$MeshFormat
4.1 0 8
$EndMeshFormat
$PhysicalNames
73
2 9 "strat_0033"
2 11 "strat_0032"
2 14 "strat_0031"
2 18 "strat_0030"
2 19 "strat_0029"
2 20 "NW_0007"
2 23 "SE_0003"
2 24 "NW_0006"
2 25 "SW_0011"
2 29 "SE_0002"
2 30 "NW_0005"
2 31 "SW_0010"
2 32 "fault_0024"
2 33 "fault_0023"
2 34 "fault_0022"
2 35 "fault_0021"
2 41 "fault_0020"
2 42 "fault_0019"
2 43 "fault_0018"
2 44 "fault_0017"
2 45 "fault_0016"
2 46 "SW_0009"
2 47 "strat_0028"
2 48 "strat_0027"
2 49 "NE_0009"
2 50 "Base_0003"
2 51 "fault_0015"
2 52 "strat_0026"
2 53 "strat_0025"
2 54 "strat_0024"
2 55 "SW_0008"
2 56 "strat_0023"
2 57 "NE_0008"
2 58 "strat_0022"
2 59 "strat_0021"
2 60 "strat_0020"
2 61 "fault_0014"
2 62 "fault_0013"
2 63 "strat_0019"
2 64 "fault_0012"
2 65 "fault_0011"
2 66 "SW_0007"
2 67 "strat_0018"
2 68 "Base_0002"
2 69 "NE_0007"
2 70 "strat_0017"
2 71 "strat_0016"
2 72 "strat_0015"
2 73 "strat_0014"
2 74 "strat_0013"
2 75 "strat_0012"
2 76 "strat_0011"
2 77 "NW_0004"
2 78 "SW_0006"
2 79 "Top_0003"
2 80 "NE_0006"
2 81 "fault_0010"
2 82 "fault_0009"
2 83 "NE_0005"
2 84 "strat_0010"
2 85 "SW_0005"
2 86 "fault_0008"
2 87 "fault_0007"
2 88 "fault_0006"
2 89 "NW_0003"
2 90 "Top_0002"
2 91 "NE_0004"
2 92 "SW_0004"
2 93 "strat_0009"
3 1 "bottom_0001"
3 2 "bottom_0002"
3 3 "top_0003"
3 4 "top_0004"
$EndPhysicalNames
$Entities
60 124 69 4
2 0 0 -100 0 
4 -70.71067811865474 70.71067811865476 -100 0 
5 70.71067811865476 70.71067811865474 0 0 
6 70.71067811865476 70.71067811865474 -100 0 
7 1.4210854715202e-14 141.4213562373095 0 0 
8 1.4210854715202e-14 141.4213562373095 -100 0 
9 -7.071067810058594 77.78174591064453 -60 0 
10 -7.071067810058594 7.071067810058594 -60 0 
11 10.07274723052979 10.07274723052979 -60 0 
15 53.10372161865234 88.31763458251953 -60 0 
16 53.10371780395508 53.10371780395508 -60 0 
17 70.71067810058594 70.71067810058594 -60 0 
19 -67.24585723876953 67.24585723876953 -60 0 
20 -35.35533905029297 106.0660171508789 -60 0 
21 6.697886560633778e-17 -4.230497320034334e-16 -60 0 
22 -42.42640686035156 42.42640686035156 -60 0 
23 -70.71067810058594 70.71067810058594 -60 0 
25 1.643130076445232e-14 141.4213562011719 -60 0 
26 -7.071067810058594 134.3502884272509 -60 0 
27 -67.24585723876953 74.17549896240234 -60 0 
28 28.28427124023438 113.1370849609375 -60 0 
29 -7.071067810058594 134.3502960205078 -60 0 
30 35.35533905029297 35.35533905029297 -30 0 
31 -14.14213562011719 56.56854248046875 -40 0 
32 7.676529884338379 30.43947410583496 -4.524617070171977e-17 0 
34 -28.28427124023438 42.42640686035156 -2.220446049250313e-15 0 
35 -1.074561238288879 33.35650253295898 -3.729778716643961e-15 0 
41 -63.63961029052734 77.78174591064453 -50 0 
42 -65.87574768066406 75.54560852050781 -43.67524719238281 0 
44 -70.71067810058594 70.71067810058594 -30.00000381469727 0 
45 -49.49747467041016 49.49747467041016 -9.574652912690534e-16 0 
46 45.96194049671024 45.96194049671024 -60 0 
47 60.10407638549805 60.10407638549805 -100 0 
48 35.35533905029297 35.35533905029297 -60 0 
49 -7.071067810058594 63.63961029052734 -60 0 
50 -17.67766978468457 67.17514393601856 -60 0 
51 -34.88684156797878 72.91153533877869 -60 0 
52 -25.05146709069413 69.63307723778813 -60.00000000000001 0 
53 -20.06240971883138 67.97005716959636 -60.00000000000001 0 
54 -46.31909942626953 95.10225677490234 -98.98979949951172 0 
55 -45.96193793146189 95.45941830584761 -100 0 
56 -60.10407615052123 81.31728005065065 -60 0 
57 -31.90295791625977 90.77308654785156 -100 0 
58 7.071067810058594 77.78174591064453 -100 0 
59 14.63437843322754 75.26064300537109 -100 0 
60 17.53890991210938 74.29246520996094 -100 0 
61 39.61836129066415 48.07646689872561 -60 0 
62 39.35757720314237 48.16339492789953 -60.00000000000001 0 
63 -3.16022782387549 62.33599717643958 -60 0 
64 14.14213524750419 56.56854285308175 -60 0 
65 -4.549964269002286 62.79924265543619 -59.99999999999999 0 
66 -56.63595222275471 80.16123876188371 -60 0 
67 27.7197265625 52.04267883300781 -60.00000000000001 0 
68 26.47492735726492 52.45761217389789 -60.00000000000001 0 
69 0 0 0 0 
70 24.74873733520508 24.74873733520508 1.15949154303515e-15 0 
71 43.36467361450195 43.36467361450195 -52.6538200378418 0 
72 -44.94160842895508 47.97885131835938 -1.679202160350182e-15 0 
73 -70.71067811865474 70.71067811865476 0 0 
74 -45.96194076538086 95.45941925048828 -100 0 
4 -70.71067821865473 -1.000000011686097e-07 -100.0000001 1.000000011686097e-07 70.71067821865475 -99.99999990000001 0 2 2 -4 
6 -9.999998695775503e-08 70.71067801865475 -1e-07 70.71067821865475 141.4213563373095 1e-07 0 2 5 -7 
8 -9.999998695775503e-08 70.71067801865475 -100.0000001 70.71067821865475 141.4213563373095 -99.99999990000001 0 2 6 -8 
14 -7.071067910058597 7.071067710058591 -60.0000001 10.07274733052979 10.07274733052979 -59.9999999 0 2 10 -11 
25 53.10371770395508 53.10371770395508 -60.0000001 53.10372171865234 88.31763468251953 -59.9999999 0 2 15 -16 
26 53.10371770395507 53.10371770395507 -60.00000010000001 70.71067820058595 70.71067820058595 -59.99999989999999 0 2 16 -17 
27 53.10372149309918 70.71067797503277 -60.00000012555316 70.71067822613911 88.3176347080727 -59.99999987444684 0 2 17 -15 
38 -35.35533915029298 77.78174581064452 -60.00000010000002 -7.071067710058578 106.0660172508789 -59.99999989999998 0 2 9 -20 
40 -1e-07 -1e-07 -100.0000001 1e-07 1e-07 -59.9999999 0 2 2 -21 
41 -7.071067910058595 -1.000000011686097e-07 -60.0000001 1.000000011686097e-07 7.071067910058595 -59.9999999 0 2 10 -21 
42 -42.42640696035157 7.071067710058589 -60.00000010000001 -7.071067710058589 42.42640696035157 -59.99999989999999 0 2 22 -10 
43 -67.24585733876954 42.42640676035155 -60.00000010000001 -42.42640676035155 67.24585733876954 -59.99999989999999 0 2 19 -22 
44 -70.71067820058596 67.24585713876951 -60.00000010000002 -67.24585713876951 70.71067820058596 -59.99999989999998 0 2 23 -19 
45 -70.71067821865473 70.71067801865476 -100.0000001 -70.71067801865475 70.71067821865475 -59.9999999 0 2 4 -23 
46 70.71067801865476 70.71067801865475 -100.0000001 70.71067821865475 70.71067821865473 -59.9999999 0 2 6 -17 
49 -1.000000011686097e-07 -1.000000020567882e-07 -60.0000001 10.07274733052979 10.07274733052979 -59.9999999 0 2 21 -11 
50 -9.999998578914528e-08 141.4213561373095 -100.0000001 1.000000142108547e-07 141.4213563373095 -59.9999999 0 2 8 -25 
51 -7.071067960058594 134.3502882772509 -60.00000015000001 1.138623861862698e-07 141.4213563511719 -59.99999985000001 0 2 26 -25 
52 -35.35533920029297 106.0660170370165 -60.00000015000001 -7.071067660058594 134.3502885772509 -59.99999985000001 0 2 20 -26 
54 -70.71067822613908 70.71067797503279 -60.00000012555315 -67.24585711321639 74.17549908795549 -59.99999987444685 0 2 27 -23 
55 28.28427111468121 88.31763445696636 -60.00000012555316 53.10372174420551 113.1370850864907 -59.99999987444684 0 2 15 -28 
56 -1.255531465460535e-07 113.1370848353843 -60.00000012555316 28.28427136578754 141.421356326725 -59.99999987444684 0 2 28 -25 
57 -7.071067910058596 77.78174581064452 -60.0000001 1.000000180439997e-07 141.4213563011719 -59.9999999 0 2 25 -9 
58 -7.071067910058594 77.78174581064454 -60.0000001 -7.071067710058593 134.3502885272509 -59.9999999 0 2 26 -9 
61 70.71067801865476 70.71067801865475 -60.0000001 70.71067821865475 70.71067821865473 1.000000011686097e-07 0 2 17 -5 
62 -9.999998578914528e-08 141.4213561373095 -60.0000001 1.000000142108547e-07 141.4213563373095 1.000000011686097e-07 0 2 25 -7 
63 -7.071067910058594 134.3502883272509 -60.0000001 -7.071067710058593 134.3502961205078 -59.9999999 0 2 29 -26 
64 -7.071067910058594 134.3502959205078 -60.0000001 1.000000162676429e-07 141.4213563011719 -59.9999999 0 2 25 -29 
65 -35.35533915029297 106.0660170508789 -60.0000001 -7.071067710058593 134.3502961205078 -59.9999999 0 2 29 -20 
68 -7.071067910058602 77.78174581064452 -60.00000010000001 53.10372171865235 88.31763468251954 -59.99999989999999 0 2 15 -9 
70 -7.071067910058609 77.78174581064452 -60.00000010000002 28.28427134023439 113.1370850609375 -59.99999989999998 0 2 28 -9 
71 -67.24585733876953 67.24585713876954 -60.0000001 -67.24585713876954 74.17549906240234 -59.9999999 0 2 27 -19 
72 -14.1421357201172 35.35533895029296 -40.00000010000001 35.35533915029298 56.56854258046876 -29.99999989999999 0 2 30 -31 
73 -14.1421357201172 30.43947400583495 -40.00000010000001 7.676529984338389 56.56854258046876 1.000000118267508e-07 0 2 31 -32 
74 7.676529784338364 30.43947400583495 -30.00000010000002 35.35533915029298 35.35533915029298 1.000000153794645e-07 0 2 32 -30 
78 -28.28427134023439 42.42640676035155 -40.00000010000001 -14.14213552011718 56.56854258046876 1.000000118267508e-07 0 2 31 -34 
79 -28.28427134023438 33.35650243295898 -1.000000073337797e-07 -1.074561138288876 42.42640696035156 1.000000013835549e-07 0 2 34 -35 
80 -14.1421357201172 33.35650243295898 -40.00000010000001 -1.074561138288869 56.56854258046876 1.000000047213234e-07 0 2 35 -31 
99 -63.63961039052735 56.56854238046874 -50.00000010000001 -14.14213552011718 77.78174601064454 -39.99999989999999 0 2 31 -41 
100 -65.87574780621722 75.54560839495466 -50.00000012555316 -63.63961016497418 77.78174603619769 -43.67524706682965 0 2 41 -42 
101 -65.87574778066408 56.56854238046873 -43.67524729238283 -14.14213552011717 75.54560862050783 -39.99999989999998 0 2 42 -31 
108 -70.71067822613908 70.71067797503279 -43.67524731793596 -65.87574755511092 75.54560864606096 -30.00000368914412 0 2 42 -44 
109 -70.71067820058595 49.49747457041015 -30.00000391469727 -49.49747457041015 70.71067820058595 1.000000064976803e-07 0 2 44 -45 
110 -65.87574778066407 49.49747457041015 -43.67524729238282 -49.49747457041015 75.54560862050782 1.000000082740371e-07 0 2 45 -42 
111 45.96194039671023 45.96194039671023 -100.0000001 60.10407648549806 60.10407648549806 -59.99999989999999 0 2 46 -47 
112 35.35533895029296 35.35533895029296 -60.00000010000001 45.96194059671025 45.96194059671025 -59.99999989999999 0 2 48 -46 
113 10.07274713052978 10.07274713052978 -60.00000010000001 35.35533915029298 35.35533915029298 -59.99999989999999 0 2 11 -48 
114 -1.000000011686097e-07 -1.000000011686097e-07 -100.0000001 60.10407648549806 60.10407648549805 -99.99999990000001 0 2 2 -47 
115 -17.67766993468457 63.63961014052735 -60.00000015 -7.071067660058593 67.17514408601858 -59.99999985 0 2 49 -50 
116 -7.071067910058594 7.071067710058593 -60.0000001 -7.071067710058593 63.63961039052734 -59.9999999 0 2 49 -10 
117 -42.42640696035158 42.42640676035155 -60.00000010000002 -17.67766968468456 67.17514403601857 -59.99999989999998 0 2 50 -22 
118 -67.24585733876954 67.24585713876952 -60.00000010000001 -34.88684146797878 72.91153543877869 -59.99999989999999 0 2 19 -51 
119 -34.88684171797878 69.63307708778811 -60.00000015000001 -25.05146694069413 72.9115354887787 -59.99999985000001 0 2 52 -51 
120 -25.05146724069413 67.97005701959637 -60.00000015000001 -20.06240956883138 69.63307738778815 -59.99999985000001 0 2 53 -52 
121 -20.06240986883138 67.17514378601857 -60.00000015000001 -17.67766963468456 67.97005731959638 -59.99999985000001 0 2 50 -53 
122 -46.31909957626953 95.10225666103993 -100.00000015 -45.96193778146189 95.45941845584758 -98.98979942617078 0 2 54 -55 
123 -60.10407627607438 81.31727992509749 -98.98979962506488 -46.31909930071638 95.1022569004555 -59.99999987444685 0 2 54 -56 
124 -67.2458573643227 74.17549883684917 -60.00000012555316 -60.10407602496807 81.31728017620382 -59.99999987444684 0 2 56 -27 
125 -70.71067821865473 70.71067801865476 -100.0000001 -45.96193783146189 95.4594184058476 -99.99999990000001 0 2 4 -55 
126 -45.96193803146189 90.77308644785157 -100.0000001 -31.90295781625976 95.4594184058476 -99.99999990000001 0 2 57 -55 
127 -31.90295801625977 77.78174581064454 -100.0000001 7.071067910058595 90.77308664785156 -99.99999990000001 0 2 58 -57 
128 7.071067710058593 75.2606429053711 -100.0000001 14.63437853322754 77.78174601064453 -99.99999990000001 0 2 59 -58 
129 14.63437833322754 74.29246510996094 -100.0000001 17.53891001210938 75.26064310537109 -99.99999990000001 0 2 60 -59 
130 17.53890981210937 60.10407628549805 -100.0000001 60.10407648549805 74.29246530996093 -99.99999990000001 0 2 47 -60 
131 39.61836114066415 45.96194034671024 -60.00000015 45.96194064671024 48.0764670487256 -59.99999985 0 2 46 -61 
132 39.35757705314237 48.07646674872561 -60.00000015 39.61836144066415 48.16339507789953 -59.99999985 0 2 61 -62 
133 17.53890981210936 48.16339482789952 -100.0000001 39.35757730314239 74.29246530996095 -59.99999989999999 0 2 60 -62 
134 35.35533895029296 35.35533895029296 -60.00000010000001 39.61836139066416 48.07646699872561 -59.99999989999999 0 2 48 -61 
135 -3.160227923875512 10.07274713052976 -60.00000010000002 10.07274733052981 62.33599727643961 -59.99999989999998 0 2 11 -63 
136 -3.160227973875487 56.56854270308176 -60.00000015 14.14213539750419 62.33599732643959 -59.99999985 0 2 64 -63 
137 14.14213514750417 35.35533895029296 -60.00000010000001 35.35533915029298 56.56854295308176 -59.99999989999999 0 2 48 -64 
138 -7.071067960058596 62.79924250543619 -60.00000014999998 -4.549964119002285 63.63961044052734 -59.99999984999999 0 2 65 -49 
139 -4.549964419002285 62.33599702643959 -60.00000014999998 -3.160227673875488 62.79924280543619 -59.99999984999999 0 2 63 -65 
140 -31.90295801625979 67.97005706959632 -100.0000001 -20.06240961883136 90.77308664785158 -59.99999989999997 0 2 57 -53 
141 -7.071067910058614 63.63961019052732 -100.0000001 7.071067910058614 77.78174601064455 -59.99999989999998 0 2 58 -49 
142 -67.24585733876954 67.24585713876952 -60.00000010000002 -56.63595212275469 80.16123886188372 -59.99999989999998 0 2 66 -19 
143 -56.63595237275471 72.9115351887787 -60.00000015000001 -34.88684141797878 80.16123891188374 -59.99999985000001 0 2 51 -66 
144 -60.10407630052124 80.16123861188372 -60.00000015000001 -56.63595207275471 81.31728020065064 -59.99999985000001 0 2 66 -56 
145 -46.31909952626955 69.63307713778811 -98.98979959951174 -25.05146699069411 95.10225687490237 -59.99999989999998 0 2 54 -52 
146 -46.31909952626954 90.77308644785155 -100.0000001 -31.90295781625976 95.10225687490235 -98.98979939951171 0 2 57 -54 
147 -4.549964369002309 62.79924255543617 -100.0000001 14.63437853322755 75.26064310537112 -59.99999989999996 0 2 59 -65 
148 17.53890981210937 52.04267873300781 -100.0000001 27.7197266625 74.29246530996095 -59.9999999 0 2 60 -67 
149 26.47492720726491 52.04267868300783 -60.00000015000001 27.71972671250001 52.45761232389785 -59.99999985000001 0 2 67 -68 
150 14.63437833322752 52.45761207389787 -100.0000001 26.47492745726494 75.2606431053711 -59.99999989999998 0 2 68 -59 
151 14.14213509750419 52.45761202389788 -60.00000015000001 26.47492750726493 56.56854300308176 -59.99999985000001 0 2 68 -64 
152 27.71972641249999 48.16339477789955 -60.00000015000001 39.35757735314237 52.0426789830078 -59.99999985000001 0 2 62 -67 
153 45.96194039671023 45.96194039671023 -60.00000010000001 53.10371790395509 53.10371790395509 -59.99999989999999 0 2 46 -16 
154 60.10407628549805 60.10407628549805 -100.0000001 70.71067821865475 70.71067821865473 -99.99999990000001 0 2 47 -6 
155 39.61836119066414 48.0764667987256 -60.00000010000001 53.10372171865235 88.31763468251954 -59.99999989999999 0 2 61 -15 
156 -45.96193803146189 95.45941820584761 -100.0000001 1.000000153794645e-07 141.4213563373095 -99.99999990000001 0 2 55 -8 
157 -60.10407627607439 81.31727992509748 -60.00000012555316 -35.3553389247398 106.0660172764321 -59.99999987444684 0 2 20 -56 
158 -7.071067910058604 56.56854275308174 -60.00000010000001 14.14213534750419 77.78174601064454 -59.99999989999999 0 2 64 -9 
159 -56.63595232275473 80.1612386618837 -60.00000010000002 -35.35533895029295 106.0660172508789 -59.99999989999998 0 2 20 -66 
160 -7.071067910058614 62.33599707643957 -60.00000010000002 -3.160227723875471 77.78174601064455 -59.99999989999998 0 2 63 -9 
161 -7.071067910058594 63.63961019052734 -60.0000001 -7.071067710058593 77.78174601064453 -59.9999999 0 2 9 -49 
162 -17.67766988468459 67.17514383601855 -60.00000010000002 -7.071067710058579 77.78174601064454 -59.99999989999998 0 2 9 -50 
163 -34.8868416679788 72.91153523877867 -60.00000010000001 -7.071067710058585 77.78174601064454 -59.99999989999999 0 2 51 -9 
164 -1e-07 -1e-07 -60.0000001 1e-07 1e-07 1.000000011686097e-07 0 2 21 -69 
165 -49.49747477041016 -1.000000011686097e-07 -1e-07 1.000000011686097e-07 49.49747477041017 1e-07 0 2 69 -45 
166 -70.71067821865473 70.71067801865476 -60.0000001 -70.71067801865475 70.71067821865475 -30.00000371469726 0 2 23 -44 
167 -9.99999993922529e-08 -9.99999993922529e-08 -1e-07 24.74873743520509 24.74873743520508 1e-07 0 2 69 -70 
168 43.36467351450194 43.36467351450194 -60.00000010000001 45.96194059671025 45.96194059671025 -52.65381993784179 0 2 71 -46 
169 35.35533895029296 35.35533895029296 -52.65382013784181 43.36467371450196 43.36467371450196 -29.99999989999999 0 2 30 -71 
170 24.74873723520507 24.74873723520507 -30.0000001 35.35533915029298 35.35533915029298 1.000000064976803e-07 0 2 70 -30 
171 -49.49747477041016 47.97885121835937 -1.000000032982596e-07 -44.94160832895508 49.49747477041016 1.000000006615921e-07 0 2 45 -72 
172 -44.94160852895508 42.42640676035156 -1.000000043957884e-07 -28.28427114023437 47.97885141835938 1.000000004961402e-07 0 2 72 -34 
173 -1.074561338288882 30.43947400583496 -1.000000071525131e-07 7.676529984338383 33.35650263295899 1.000000033774882e-07 0 2 35 -32 
174 7.676529784338378 24.74873723520508 -1.000000011043429e-07 24.74873743520508 30.43947420583496 1.000000022185883e-07 0 2 32 -70 
175 -63.63961041608051 77.78174578509137 -60.00000012555316 -60.10407602496807 81.31728017620381 -49.99999987444684 0 2 56 -41 
176 39.35757710314236 43.36467351450194 -60.00000010000002 43.36467371450196 48.16339502789954 -52.65381993784179 0 2 62 -71 
177 27.71972646249998 35.35533895029296 -60.00000010000002 35.35533915029298 52.04267893300783 -29.99999989999999 0 2 67 -30 
178 -25.05146719069414 56.56854238046874 -60.00000010000002 -14.14213552011718 69.63307733778814 -39.99999989999999 0 2 52 -31 
179 -20.06240981883139 56.56854238046874 -60.0000001 -14.14213552011718 67.97005726959635 -39.99999989999998 0 2 53 -31 
180 -14.14213572011719 56.56854238046874 -60.00000010000001 -7.071067710058586 63.63961039052735 -39.99999989999999 0 2 49 -31 
181 -14.1421357201172 56.56854238046874 -60.00000009999998 -4.549964169002283 62.7992427554362 -39.99999989999999 0 2 65 -31 
182 26.4749272572649 35.35533895029294 -60.00000010000003 35.355339150293 52.45761227389792 -29.99999989999997 0 2 30 -68 
183 -70.71067821865473 49.49747457041017 -1e-07 -49.49747457041016 70.71067821865475 1e-07 0 2 45 -73 
184 -70.71067821865473 70.71067801865476 -30.00000391469727 -70.71067801865475 70.71067821865475 9.99999993922529e-08 0 2 44 -73 
185 -70.71067821865473 70.71067801865476 -1e-07 1.000000153794645e-07 141.4213563373095 1e-07 0 2 73 -7 
186 24.74873723520508 24.74873723520508 -1e-07 70.71067821865475 70.71067821865473 1e-07 0 2 70 -5 
187 -46.31909952626953 95.10225667490235 -100.0000001 -45.96194066538086 95.45941935048828 -98.98979939951172 0 2 74 -54 
188 -45.96194086538086 95.45941820584761 -100.0000001 -45.96193783146189 95.45941935048828 -99.99999990000001 0 2 55 -74 
189 -65.87574778066407 47.97885121835937 -43.67524729238282 -44.94160832895507 75.54560862050782 1.000000082740371e-07 0 2 42 -72 
190 -44.94160852895509 47.97885121835936 -40.00000010000002 -14.14213552011718 56.56854258046877 1.000000118267508e-07 0 2 72 -31 
9 -7.071067910058597 -1.000000029449666e-07 -60.0000001 10.07274733052979 10.07274733052979 -59.9999999 1 9 3 41 49 -14 
11 53.10371767840191 53.10371767840191 -60.00000012555316 70.71067822613911 88.3176347080727 -59.99999987444684 1 11 3 25 26 27 
14 -7.071067935611762 77.78174578509136 -60.00000012555316 53.10372174420551 113.1370850864907 -59.99999987444684 1 14 3 55 70 -68 
18 -70.71067822613908 67.24585711321639 -60.00000012555315 -67.24585711321639 74.17549908795549 -59.99999987444685 1 18 3 -71 54 44 
19 -7.071067935611758 77.78174578509136 -60.00000012555316 28.28427136578754 141.421356326725 -59.99999987444684 1 19 3 -70 56 57 
20 -70.71067821865476 -1.000000224848918e-07 -100.0000001 1.000000224848918e-07 70.71067821865478 -59.99999989999998 1 20 7 -40 4 45 44 43 42 41 
23 -1.255531500987672e-07 70.71067797503277 -100.0000001255532 70.71067824420793 141.4213563628627 -59.99999987444684 1 23 6 -46 8 50 -56 -55 -27 
24 -7.071067960058594 77.78174576064453 -60.00000015000001 1.500000164078585e-07 141.4213563511719 -59.99999985 1 24 3 -57 -51 58 
25 -35.35533920029297 77.78174576064453 -60.00000015000001 -7.071067660058594 134.3502885772509 -59.99999985 1 25 3 -58 -52 -38 
29 -1.255531500987672e-07 70.71067797503277 -60.00000012555316 70.71067824420793 141.4213563628627 1.255531678623356e-07 1 29 6 -61 27 55 56 62 -6 
30 -7.071067960058594 134.3502882772509 -60.00000015000001 1.500000164078585e-07 141.4213563511719 -59.99999985 1 30 3 51 64 63 
31 -35.35533920029297 106.0660170008789 -60.00000015000001 -7.071067660058594 134.3502961705078 -59.99999985 1 31 3 52 -63 65 
32 -14.1421357201172 30.43947400583495 -40.00000010000002 35.35533915029298 56.56854258046877 1.000000153794645e-07 1 32 3 72 73 74 
33 7.676529784338364 24.74873723520506 -30.00000010000002 35.35533915029298 35.35533915029298 1.000000153794645e-07 1 33 3 174 170 -74 
34 -28.28427134023439 33.35650243295898 -40.00000010000001 -1.074561138288869 56.56854258046876 1.000000118267508e-07 1 34 3 78 79 80 
35 -14.1421357201172 30.43947400583495 -40.00000010000001 7.676529984338389 56.56854258046876 1.000000118267508e-07 1 35 3 -80 173 -73 
41 -65.87574780621722 56.56854235491559 -50.00000012555316 -14.14213549456402 77.78174603619769 -39.99999987444684 1 41 3 99 100 101 
42 -65.87574778066408 47.97885121835936 -43.67524729238283 -14.14213552011717 75.54560862050783 1.000000153794645e-07 1 42 3 -101 189 190 
43 -44.94160852895509 42.42640676035155 -40.00000010000002 -14.14213552011718 56.56854258046877 1.000000118267508e-07 1 43 3 172 -78 -190 
44 -70.71067822613908 49.49747454485701 -43.67524731793596 -49.49747454485701 75.54560864606096 1.255531465460535e-07 1 44 3 108 109 110 
45 -65.87574778066407 47.97885121835937 -43.67524729238282 -44.94160832895507 75.54560862050782 1.000000082740371e-07 1 45 3 171 -189 -110 
46 -1.000000082740371e-07 -1.000000118267508e-07 -100.0000001 60.10407648549806 60.10407648549806 -59.99999989999999 1 46 6 111 -114 40 49 113 112 
47 -42.42640701035156 7.071067660058596 -60.00000015 -7.071067660058592 67.17514408601858 -59.99999985 1 47 4 115 117 42 -116 
48 -67.24585738876954 42.42640671035156 -60.00000015000001 -17.67766963468456 72.9115354887787 -59.99999985 1 48 6 -118 43 -117 121 120 119 
49 -70.71067826865475 70.71067795058593 -100.00000015 -45.96193778146189 95.45941845584761 -59.99999985 1 49 6 122 -125 45 -54 -124 -123 
50 -70.71067821865473 -1.000000011686097e-07 -100.0000001 60.10407648549806 95.4594184058476 -99.99999990000001 1 50 8 -125 -4 114 130 129 128 127 126 
51 17.53890976210937 45.96194034671024 -100.00000015 60.10407653549805 74.29246535996094 -59.99999985 1 51 5 -131 111 130 133 -132 
52 35.35533890029297 35.35533890029297 -60.00000015 45.96194064671024 48.0764670487256 -59.99999985 1 52 3 -134 112 131 
53 -3.160227973875489 10.07274708052979 -60.00000015 35.35533920029297 62.33599732643959 -59.99999985 1 53 4 -135 113 137 136 
54 -7.071067960058596 7.071067660058596 -60.00000015 10.07274738052979 63.63961044052734 -59.99999984999999 1 54 5 138 116 14 135 139 
55 -31.90295806625977 63.63961014052735 -100.00000015 7.071067960058592 90.77308669785157 -59.99999984999999 1 55 5 -115 -141 127 140 -121 
56 -67.24585738876954 67.24585708876953 -60.00000015000001 -34.88684141797878 80.16123891188374 -59.99999985 1 56 3 142 118 143 
57 -60.10407630052124 69.63307708778811 -98.98979964951172 -25.05146694069413 95.10225692490235 -59.99999985 1 57 5 -119 -145 123 -144 -143 
58 -46.31909957626953 67.97005701959634 -100.00000015 -20.06240956883138 95.10225692490235 -59.99999984999999 1 58 4 146 145 -120 -140 
59 -67.24585738876954 67.24585708876953 -60.00000015000001 -56.63595207275471 81.31728020065066 -59.99999985 1 59 4 144 124 71 -142 
60 -46.31909957626953 90.77308639785156 -100.00000015 -31.90295776625976 95.45941845584761 -98.98979934951171 1 60 3 -146 126 -122 
61 -7.071067960058596 62.79924250543619 -100.00000015 14.63437858322754 77.78174606064454 -59.99999984999997 1 61 4 -147 128 141 -138 
62 14.63437828322754 52.04267868300782 -100.00000015 27.71972671250001 75.2606431553711 -59.99999985 1 62 4 -148 129 -150 -149 
63 14.14213509750418 35.35533890029297 -60.00000015000001 39.61836144066415 56.56854300308176 -59.99999985 1 63 6 134 132 152 149 151 -137 
64 17.53890976210937 48.16339477789953 -100.00000015 39.35757735314237 74.29246535996094 -59.99999985000001 1 64 3 148 -152 -133 
65 -4.549964419002292 52.45761202389788 -100.00000015 26.47492750726493 75.2606431553711 -59.99999984999997 1 65 5 -151 150 147 -139 -136 
66 45.96194039671023 45.96194039671023 -100.0000001 70.71067821865476 70.71067821865475 -59.99999989999999 1 66 5 -46 -154 -111 153 26 
67 39.61836114066415 45.96194034671024 -60.00000015 53.10372176865234 88.31763473251954 -59.99999985 1 67 4 -131 153 -25 -155 
68 -45.9619380314619 60.10407628549805 -100.0000001 70.71067821865475 141.4213563373095 -99.99999990000001 1 68 8 -156 -126 -127 -128 -129 -130 154 8 
69 -60.10407630052123 81.31727990065065 -100.00000015 1.500000159637693e-07 141.4213563873095 -59.99999985 1 69 7 -50 -156 -122 123 -157 52 51 
70 -7.071067960058592 48.07646674872561 -60.00000015000001 53.10372176865234 88.31763473251954 -59.99999985 1 70 7 155 68 -158 -151 -149 -152 -132 
71 -60.10407630052124 80.1612386118837 -60.00000015000001 -35.35533890029297 106.0660173008789 -59.99999985 1 71 3 -159 157 -144 
72 -7.071067960058593 56.56854270308175 -60.00000015 14.14213539750419 77.78174606064454 -59.99999985 1 72 3 -160 -136 158 
73 -7.071067960058596 62.33599702643959 -60.00000015 -3.160227673875488 77.78174606064454 -59.99999984999999 1 73 4 160 161 -138 -139 
74 -17.67766993468457 63.63961014052735 -60.00000015 -7.071067660058593 77.78174606064454 -59.99999985 1 74 3 -161 162 -115 
75 -34.88684171797879 67.17514378601855 -60.00000015000001 -7.071067660058594 77.78174606064454 -59.99999985 1 75 5 -163 -119 -120 -121 -162 
76 -56.63595237275471 72.91153518877867 -60.00000015000001 -7.071067660058596 106.0660173008789 -59.99999985 1 76 4 -143 163 38 159 
77 -70.71067821865476 -1.000000224848918e-07 -60.00000010000002 1.000000224848918e-07 70.71067821865478 1.000000189321781e-07 1 77 8 -164 -41 -42 -43 -44 166 109 -165 
78 -1.000000082740371e-07 -1.000000118267508e-07 -60.00000010000001 45.96194059671025 45.96194059671025 1.000000118267508e-07 1 78 8 167 170 169 168 -112 -113 -49 164 
79 -49.49747477041016 -1.000000047213234e-07 -1.000000073337797e-07 24.74873743520509 49.49747477041017 1.000000047634925e-07 1 79 7 -165 167 -174 -173 -79 -172 -171 
80 -70.71067824420791 70.71067797503277 -60.00000012555316 -60.10407602496807 81.31728017620382 -30.0000036891441 1 80 6 166 -108 -100 -175 124 54 
81 39.35757705314237 43.36467346450195 -60.00000015000001 45.96194064671024 48.16339507789953 -52.6538198878418 1 81 4 176 168 131 132 
82 27.71972641249999 35.35533890029297 -60.00000015000001 43.36467376450195 52.04267898300782 -29.99999985 1 82 4 177 169 -176 152 
83 -63.63961044052734 56.56854233046875 -60.00000015000001 -14.14213547011719 81.31728020065066 -39.99999985 1 83 6 -178 119 143 144 175 -99 
84 -25.05146724069413 56.56854233046875 -60.00000015000001 -14.14213547011719 69.63307738778815 -39.99999984999999 1 84 3 120 178 -179 
85 -20.06240986883138 56.56854233046875 -60.00000015000001 -7.071067660058593 67.97005731959638 -39.99999984999999 1 85 4 -180 115 121 179 
86 -14.14213577011719 35.35533890029297 -60.00000015000001 35.35533920029297 62.79924280543619 -29.99999985 1 86 6 -72 182 151 136 139 181 
87 26.47492720726491 35.35533890029297 -60.00000015000001 35.35533920029297 52.45761232389788 -29.99999985 1 87 3 -177 149 -182 
88 -14.14213577011719 56.56854233046875 -60.00000015 -4.549964119002285 63.63961044052734 -39.99999985 1 88 3 -181 138 180 
89 -70.71067821865475 49.49747457041015 -30.00000391469727 -49.49747457041015 70.71067821865476 1.000000100503939e-07 1 89 3 -183 -109 184 
90 -70.71067821865475 24.74873723520507 -1.000000073337797e-07 70.71067821865475 141.4213563373095 1.000000047634925e-07 1 90 9 -183 171 172 79 173 174 186 6 -185 
91 -70.71067826865475 70.71067795058593 -60.00000015000001 1.500000124110556e-07 141.4213563873095 1.500000017529146e-07 1 91 9 -62 -51 -52 157 175 100 108 184 185 
92 24.74873723520507 24.74873723520507 -60.00000010000001 70.71067821865476 70.71067821865475 1.000000118267508e-07 1 92 7 -61 -26 -153 -168 -169 -170 186 
93 -46.31909957626953 95.10225662490234 -100.00000015 -45.96193778146189 95.45941940048829 -98.98979934951171 1 93 3 122 188 187 
1 -70.71067826865476 -1.499999982002009e-07 -100.00000015 60.10407653549806 95.45941845584761 -59.99999984999997 1 1 23 -20 -46 9 47 48 18 49 -50 51 52 53 54 55 56 57 58 59 60 61 62 63 64 65 
2 -60.10407630052123 45.96194034671024 -100.00000015 70.71067826865476 141.4213563873095 -59.99999984999997 1 2 26 -66 23 11 67 -51 -68 14 19 69 70 -64 -62 -61 -55 -60 24 25 71 -57 -65 72 73 74 75 -58 76 
3 -70.71067826865475 -1.499999982002009e-07 -60.00000015000001 45.96194064671023 81.31728020065066 1.500000017529146e-07 1 3 31 -77 -78 79 44 80 -18 -48 -47 -9 -53 -52 81 82 33 45 43 34 35 -59 83 41 -56 84 85 -54 86 -63 87 32 42 88 
4 -70.71067826865476 24.74873718520507 -60.00000015000001 70.71067826865476 141.4213563873095 1.500000017529146e-07 1 4 35 -89 90 91 -44 29 -92 -33 -35 -34 -43 -45 -41 -83 -71 -25 -24 -19 -14 -11 -82 -81 -67 -32 -42 -84 -76 -75 -70 -87 -86 -85 -74 -72 -88 -73 
$EndEntities
$Nodes
133 88 1 88
0 2 0 1
1
0 0 -100
0 4 0 1
2
-70.71067811865474 70.71067811865476 -100
0 5 0 1
3
70.71067811865476 70.71067811865474 0
0 6 0 1
4
70.71067811865476 70.71067811865474 -100
0 7 0 1
5
1.4210854715202e-14 141.4213562373095 0
0 8 0 1
6
1.4210854715202e-14 141.4213562373095 -100
0 9 0 1
7
-7.071067810058594 77.78174591064453 -60
0 10 0 1
8
-7.071067810058594 7.071067810058594 -60
0 11 0 1
9
10.07274723052979 10.07274723052979 -60
0 15 0 1
10
53.10372161865234 88.31763458251953 -60
0 16 0 1
11
53.10371780395508 53.10371780395508 -60
0 17 0 1
12
70.71067810058594 70.71067810058594 -60
0 19 0 1
13
-67.24585723876953 67.24585723876953 -60
0 20 0 1
14
-35.35533905029297 106.0660171508789 -60
0 21 0 1
15
6.697886560633778e-17 -4.230497320034334e-16 -60
0 22 0 1
16
-42.42640686035156 42.42640686035156 -60
0 23 0 1
17
-70.71067810058594 70.71067810058594 -60
0 25 0 1
18
1.643130076445232e-14 141.4213562011719 -60
0 26 0 1
19
-7.071067810058594 134.3502884272509 -60
0 27 0 1
20
-67.24585723876953 74.17549896240234 -60
0 28 0 1
21
28.28427124023438 113.1370849609375 -60
0 29 0 1
22
-7.071067810058594 134.3502960205078 -60
0 30 0 1
23
35.35533905029297 35.35533905029297 -30
0 31 0 1
24
-14.14213562011719 56.56854248046875 -40
0 32 0 1
25
7.676529884338379 30.43947410583496 -4.524617070171977e-17
0 34 0 1
26
-28.28427124023438 42.42640686035156 -2.220446049250313e-15
0 35 0 1
27
-1.074561238288879 33.35650253295898 -3.729778716643961e-15
0 41 0 1
28
-63.63961029052734 77.78174591064453 -50
0 42 0 1
29
-65.87574768066406 75.54560852050781 -43.67524719238281
0 44 0 1
30
-70.71067810058594 70.71067810058594 -30.00000381469727
0 45 0 1
31
-49.49747467041016 49.49747467041016 -9.574652912690534e-16
0 46 0 1
32
45.96194049671024 45.96194049671024 -60
0 47 0 1
33
60.10407638549805 60.10407638549805 -100
0 48 0 1
34
35.35533905029297 35.35533905029297 -60
0 49 0 1
35
-7.071067810058594 63.63961029052734 -60
0 50 0 1
36
-17.67766978468457 67.17514393601856 -60
0 51 0 1
37
-34.88684156797878 72.91153533877869 -60
0 52 0 1
38
-25.05146709069413 69.63307723778813 -60.00000000000001
0 53 0 1
39
-20.06240971883138 67.97005716959636 -60.00000000000001
0 54 0 1
40
-46.31909942626953 95.10225677490234 -98.98979949951172
0 55 0 1
41
-45.96193793146189 95.45941830584761 -100
0 56 0 1
42
-60.10407615052123 81.31728005065065 -60
0 57 0 1
43
-31.90295791625977 90.77308654785156 -100
0 58 0 1
44
7.071067810058594 77.78174591064453 -100
0 59 0 1
45
14.63437843322754 75.26064300537109 -100
0 60 0 1
46
17.53890991210938 74.29246520996094 -100
0 61 0 1
47
39.61836129066415 48.07646689872561 -60
0 62 0 1
48
39.35757720314237 48.16339492789953 -60.00000000000001
0 63 0 1
49
-3.16022782387549 62.33599717643958 -60
0 64 0 1
50
14.14213524750419 56.56854285308175 -60
0 65 0 1
51
-4.549964269002286 62.79924265543619 -59.99999999999999
0 66 0 1
52
-56.63595222275471 80.16123876188371 -60
0 67 0 1
53
27.7197265625 52.04267883300781 -60.00000000000001
0 68 0 1
54
26.47492735726492 52.45761217389789 -60.00000000000001
0 69 0 1
55
0 0 0
0 70 0 1
56
24.74873733520508 24.74873733520508 1.15949154303515e-15
0 71 0 1
57
43.36467361450195 43.36467361450195 -52.6538200378418
0 72 0 1
58
-44.94160842895508 47.97885131835938 -1.679202160350182e-15
0 73 0 1
59
-70.71067811865474 70.71067811865476 0
0 74 0 1
60
-45.96194076538086 95.45941925048828 -100
2 9 0 0
2 11 0 0
2 14 0 0
2 18 0 0
2 19 0 0
2 20 0 0
2 23 0 0
2 24 0 0
2 25 0 0
2 29 0 2
61
62
40.69399644751218 100.7273597897973 -34.01923789310575
17.24456693097105 124.1767893063385 -38.50480947327644
2 30 0 0
2 31 0 0
2 32 0 0
2 33 0 0
2 34 0 0
2 35 0 0
2 41 0 0
2 42 0 0
2 43 0 0
2 44 0 0
2 45 0 0
2 46 0 2
63
64
21.52168151358109 21.52168151358109 -74.3559098921246
40.6586397735016 40.6586397735016 -77.42363956849843
2 47 0 0
2 48 0 0
2 49 0 0
2 50 0 2
65
66
-15.35867533702957 66.61541278749331 -100
-40.98356232585149 80.8896489399618 -100
2 51 0 0
2 52 0 0
2 53 0 0
2 54 0 0
2 55 0 1
67
-13.92860748395514 73.46792877092768 -76
2 56 0 0
2 57 0 1
68
-44.47981821448194 80.38112316112613 -69.06212932744984
2 58 0 0
2 59 0 0
2 60 0 0
2 61 0 0
2 62 0 0
2 63 0 0
2 64 0 0
2 65 0 0
2 66 0 1
69
60.11821818108081 60.11821818108081 -76
2 67 0 0
2 68 0 1
70
-6.790529542581375 101.153664412618 -100
2 69 0 1
71
-26.9414888436166 114.4798673936929 -83.79795991523416
2 70 0 1
72
25.62117002983421 62.5552682135085 -60.00000000000001
2 71 0 0
2 72 0 0
2 73 0 0
2 74 0 0
2 75 0 0
2 76 0 0
2 77 0 3
73
74
75
-18.22650876863005 18.22650876863005 -40.71223449243156
-55.50450284311177 55.50450284311178 -43.39029406921377
-39.39426187384824 39.39426187384824 -29.01708872939044
2 78 0 3
76
77
78
22.71404314041138 22.71404314041138 -44.99999999999999
18.41885004019059 18.41885004019058 -23.1007614201278
10.24112808222635 10.24112808222635 -37.62015228402556
2 79 0 1
79
0.07418344618511696 22.21757922731356 0
2 80 0 0
2 81 0 0
2 82 0 0
2 83 0 0
2 84 0 0
2 85 0 0
2 86 0 2
80
81
1.97212304715732 57.49658897044169 -53.36318513922465
15.11655776002384 50.47526530864669 -47.76322739598125
2 87 0 0
2 88 0 0
2 89 0 0
2 90 0 2
82
83
6.025345923469708 52.60658723524917 0
-33.00652136929207 56.02188696298202 0
2 91 0 3
84
85
86
-56.24093470196037 85.18042153534913 -45.96050281668019
-16.83731275267692 124.5840434846326 -42.41755317860022
-41.76015686689544 99.66119937041405 -32.08776589300105
2 92 0 2
87
88
49.44704832681011 49.4470483268101 -31.59114564361759
52.16230003085093 52.16230003085092 -49.93179837102095
2 93 0 0
3 1 0 0
3 2 0 0
3 3 0 0
3 4 0 0
$EndNodes
$Elements
73 526 1 526
2 9 2 1
1 8 15 9 
2 11 2 1
2 10 11 12 
2 14 2 1
3 7 10 21 
2 18 2 1
4 13 20 17 
2 19 2 1
5 7 21 18 
2 20 2 5
6 16 2 1 
7 15 8 1 
8 8 16 1 
9 2 16 13 
10 2 13 17 
2 23 2 4
11 21 4 6 
12 12 4 10 
13 10 4 21 
14 21 6 18 
2 24 2 1
15 7 18 19 
2 25 2 1
16 7 19 14 
2 29 2 8
17 3 61 5 
18 12 61 3 
19 5 62 18 
20 61 62 5 
21 10 61 12 
22 21 61 10 
23 18 62 21 
24 21 62 61 
2 30 2 1
25 18 22 19 
2 31 2 1
26 14 19 22 
2 32 2 1
27 23 24 25 
2 33 2 1
28 23 25 56 
2 34 2 1
29 24 26 27 
2 35 2 1
30 24 27 25 
2 41 2 1
31 24 28 29 
2 42 2 1
32 24 29 58 
2 43 2 1
33 24 58 26 
2 44 2 1
34 29 30 31 
2 45 2 1
35 29 31 58 
2 46 2 8
36 9 15 1 
37 9 1 63 
38 1 33 64 
39 63 1 64 
40 34 9 63 
41 33 32 64 
42 32 34 64 
43 34 63 64 
2 47 2 2
44 8 35 16 
45 16 35 36 
2 48 2 4
46 37 13 16 
47 16 36 39 
48 38 37 16 
49 16 39 38 
2 49 2 4
50 17 20 2 
51 2 20 42 
52 2 40 41 
53 42 40 2 
2 50 2 10
54 1 2 65 
55 46 33 1 
56 46 1 65 
57 2 41 66 
58 65 2 66 
59 41 43 66 
60 43 44 65 
61 43 65 66 
62 44 45 65 
63 45 46 65 
2 51 2 3
64 47 32 33 
65 48 33 46 
66 48 47 33 
2 52 2 1
67 32 47 34 
2 53 2 2
68 50 9 34 
69 49 9 50 
2 54 2 3
70 49 8 9 
71 51 35 8 
72 49 51 8 
2 55 2 5
73 35 67 36 
74 44 67 35 
75 36 67 39 
76 39 67 43 
77 43 67 44 
2 56 2 1
78 13 37 52 
2 57 2 5
79 38 68 37 
80 37 68 52 
81 40 68 38 
82 42 68 40 
83 52 68 42 
2 58 2 2
84 39 43 38 
85 43 40 38 
2 59 2 2
86 13 52 20 
87 52 42 20 
2 60 2 1
88 40 43 41 
2 61 2 2
89 44 35 51 
90 51 45 44 
2 62 2 2
91 45 54 46 
92 53 46 54 
2 63 2 4
93 48 34 47 
94 53 34 48 
95 50 34 54 
96 54 34 53 
2 64 2 1
97 46 53 48 
2 65 2 3
98 49 50 45 
99 49 45 51 
100 45 50 54 
2 66 2 5
101 4 12 69 
102 33 4 69 
103 12 11 69 
104 11 32 69 
105 32 33 69 
2 67 2 2
106 10 47 11 
107 47 32 11 
2 68 2 8
108 4 46 6 
109 46 4 33 
110 41 6 70 
111 6 46 70 
112 43 41 70 
113 44 43 70 
114 45 44 70 
115 46 45 70 
2 69 2 7
116 18 6 19 
117 6 71 19 
118 41 71 6 
119 19 71 14 
120 14 40 42 
121 14 71 40 
122 40 71 41 
2 70 2 7
123 7 72 10 
124 50 72 7 
125 48 47 10 
126 10 72 48 
127 48 72 53 
128 54 72 50 
129 53 72 54 
2 71 2 1
130 14 42 52 
2 72 2 1
131 7 49 50 
2 73 2 2
132 35 51 7 
133 51 49 7 
2 74 2 1
134 7 36 35 
2 75 2 3
135 36 7 39 
136 7 37 38 
137 39 7 38 
2 76 2 2
138 14 37 7 
139 52 37 14 
2 77 2 12
140 8 15 73 
141 16 8 73 
142 13 16 74 
143 17 13 30 
144 30 13 74 
145 15 55 73 
146 16 73 75 
147 74 16 75 
148 31 30 75 
149 30 74 75 
150 55 31 75 
151 73 55 75 
2 78 2 12
152 15 9 78 
153 9 34 76 
154 9 76 78 
155 55 15 78 
156 34 57 23 
157 34 23 76 
158 23 56 77 
159 76 23 77 
160 32 57 34 
161 56 55 77 
162 77 55 78 
163 76 77 78 
2 79 2 7
164 27 79 25 
165 25 79 56 
166 26 79 27 
167 58 55 26 
168 55 79 26 
169 58 31 55 
170 56 79 55 
2 80 2 4
171 28 20 17 
172 17 29 28 
173 17 30 29 
174 28 42 20 
2 81 2 2
175 47 57 32 
176 47 48 57 
2 82 2 2
177 57 53 23 
178 48 53 57 
2 83 2 4
179 28 24 37 
180 37 24 38 
181 28 37 52 
182 28 52 42 
2 84 2 1
183 24 39 38 
2 85 2 2
184 36 24 35 
185 36 39 24 
2 86 2 8
186 23 81 24 
187 54 81 23 
188 24 80 51 
189 24 81 80 
190 49 80 50 
191 51 80 49 
192 50 81 54 
193 80 81 50 
2 87 2 1
194 23 53 54 
2 88 2 1
195 24 51 35 
2 89 2 1
196 30 31 59 
2 90 2 11
197 5 82 3 
198 3 82 56 
199 59 83 5 
200 5 83 82 
201 25 82 27 
202 56 82 25 
203 27 82 26 
204 26 83 58 
205 82 83 26 
206 58 83 31 
207 31 83 59 
2 91 2 13
208 18 85 5 
209 5 86 59 
210 85 86 5 
211 14 85 19 
212 42 84 14 
213 84 86 14 
214 14 86 85 
215 19 85 18 
216 29 84 28 
217 28 84 42 
218 30 84 29 
219 59 86 30 
220 30 86 84 
2 92 2 9
221 12 3 87 
222 3 56 87 
223 11 12 88 
224 32 11 88 
225 12 87 88 
226 56 23 87 
227 23 57 87 
228 57 32 88 
229 87 57 88 
2 93 2 1
230 40 41 60 
3 1 4 65
231 38 40 66 68 
232 43 39 65 67 
233 39 65 67 36 
234 8 65 49 63 
235 36 65 67 35 
236 65 2 1 16 
237 8 65 51 49 
238 8 35 51 65 
239 50 49 65 63 
240 33 46 1 64 
241 40 38 66 43 
242 49 50 9 63 
243 35 44 65 67 
244 8 35 65 16 
245 65 8 1 63 
246 49 9 8 63 
247 16 65 2 66 
248 50 34 9 63 
249 36 65 35 16 
250 68 13 37 52 
251 46 48 53 64 
252 65 1 8 16 
253 68 52 42 20 
254 66 2 16 68 
255 51 45 65 44 
256 39 65 36 16 
257 45 49 65 50 
258 52 68 13 20 
259 38 65 43 39 
260 38 66 43 65 
261 13 16 2 68 
262 37 16 13 68 
263 65 38 16 39 
264 43 44 67 65 
265 33 48 64 47 
266 48 33 64 46 
267 47 33 32 64 
268 53 46 64 54 
269 68 40 2 42 
270 45 51 65 49 
271 68 2 13 20 
272 66 40 2 68 
273 35 44 51 65 
274 2 68 42 20 
275 64 53 54 34 
276 9 1 8 63 
277 2 17 13 20 
278 9 8 1 15 
279 41 40 2 66 
280 64 48 53 34 
281 47 64 32 34 
282 47 48 64 34 
283 66 41 40 43 
284 50 54 65 45 
285 46 65 54 45 
286 46 54 65 64 
287 16 66 38 65 
288 68 38 16 66 
289 68 16 38 37 
290 65 64 1 46 
291 1 64 65 63 
292 34 54 63 50 
293 34 63 54 64 
294 65 63 54 50 
295 65 54 63 64 
3 2 4 63
296 18 70 7 19 
297 39 43 7 67 
298 43 38 7 40 
299 43 70 41 71 
300 70 6 41 71 
301 10 7 45 72 
302 43 7 71 40 
303 7 40 68 71 
304 68 14 40 42 
305 40 7 68 38 
306 21 6 4 46 
307 21 70 6 46 
308 7 70 71 19 
309 10 45 46 72 
310 10 45 21 46 
311 70 21 45 46 
312 10 47 69 11 
313 19 71 7 14 
314 71 68 7 14 
315 33 47 32 69 
316 70 7 67 44 
317 4 10 21 46 
318 45 54 72 50 
319 69 10 46 72 
320 18 70 21 7 
321 52 14 37 68 
322 18 70 19 6 
323 37 7 68 14 
324 69 48 33 47 
325 7 10 45 21 
326 14 68 52 42 
327 45 54 46 72 
328 37 7 38 68 
329 44 35 7 67 
330 44 43 67 70 
331 71 68 14 40 
332 7 45 72 50 
333 53 46 54 72 
334 33 10 46 69 
335 48 46 69 33 
336 69 48 10 72 
337 43 39 7 38 
338 51 44 7 45 
339 48 69 10 47 
340 71 70 6 19 
341 45 7 49 50 
342 70 18 21 6 
343 51 45 7 49 
344 33 4 10 69 
345 69 32 11 47 
346 35 44 7 51 
347 46 4 10 33 
348 12 10 69 11 
349 69 4 10 12 
350 43 41 40 71 
351 39 7 36 67 
352 36 7 35 67 
353 48 72 46 53 
354 48 46 72 69 
355 45 70 7 21 
356 7 70 45 44 
357 7 43 70 67 
358 7 70 43 71 
3 3 4 77
359 75 30 29 74 
360 37 28 74 24 
361 58 55 75 26 
362 29 75 74 24 
363 24 23 77 81 
364 76 78 77 81 
365 31 29 75 30 
366 50 49 9 80 
367 78 55 73 15 
368 73 77 78 81 
369 80 81 9 50 
370 49 9 80 8 
371 34 81 9 76 
372 28 24 29 74 
373 77 73 24 81 
374 49 51 8 80 
375 24 25 77 23 
376 79 73 77 78 
377 23 76 77 81 
378 29 75 24 58 
379 81 34 9 50 
380 34 50 81 54 
381 29 31 75 58 
382 13 37 52 74 
383 73 79 55 78 
384 77 55 79 78 
385 73 24 75 27 
386 24 26 58 75 
387 27 24 75 26 
388 81 23 76 34 
389 28 37 74 52 
390 74 29 13 30 
391 53 23 34 57 
392 37 13 16 74 
393 17 13 29 30 
394 54 23 34 53 
395 23 54 34 81 
396 35 36 16 24 
397 25 56 77 23 
398 28 13 52 74 
399 16 74 75 24 
400 36 39 16 24 
401 24 75 16 73 
402 79 56 55 77 
403 79 25 56 77 
404 39 38 16 24 
405 53 48 57 34 
406 13 28 29 74 
407 13 52 20 28 
408 17 13 28 29 
409 47 32 57 34 
410 17 13 20 28 
411 47 57 48 34 
412 52 42 20 28 
413 31 55 75 58 
414 55 75 79 73 
415 55 79 75 26 
416 27 79 75 73 
417 27 75 79 26 
418 81 78 9 76 
419 81 9 78 73 
420 24 25 73 77 
421 24 73 25 27 
422 79 73 25 77 
423 79 25 73 27 
424 35 24 8 51 
425 80 8 24 51 
426 24 37 16 74 
427 24 16 37 38 
428 15 73 9 8 
429 15 9 73 78 
430 24 8 16 35 
431 24 16 8 73 
432 8 24 9 80 
433 8 9 24 73 
434 81 9 24 80 
435 81 24 9 73 
3 4 4 91
436 18 7 85 19 
437 81 61 72 80 
438 85 86 7 62 
439 61 24 7 80 
440 24 7 86 62 
441 62 24 7 61 
442 24 28 84 37 
443 5 86 85 62 
444 72 61 7 80 
445 87 81 61 72 
446 82 24 86 62 
447 62 82 24 61 
448 82 5 3 61 
449 61 88 87 72 
450 59 86 5 83 
451 86 5 82 62 
452 5 82 62 61 
453 86 84 37 24 
454 10 7 72 61 
455 83 29 30 84 
456 28 24 84 29 
457 10 88 61 72 
458 80 72 81 50 
459 29 83 30 31 
460 47 10 88 11 
461 7 19 14 85 
462 7 18 85 21 
463 83 86 5 82 
464 29 83 24 84 
465 14 52 37 84 
466 83 24 86 82 
467 30 83 84 86 
468 62 7 85 21 
469 86 37 38 24 
470 86 7 14 85 
471 42 52 14 84 
472 83 84 86 24 
473 7 62 61 21 
474 87 82 3 61 
475 7 37 86 14 
476 7 72 80 50 
477 48 10 72 88 
478 10 7 61 21 
479 85 18 5 62 
480 25 24 27 82 
481 82 56 23 87 
482 29 83 58 24 
483 61 3 87 12 
484 24 23 82 25 
485 86 38 7 24 
486 37 7 86 38 
487 84 37 14 86 
488 85 21 18 62 
489 37 28 84 52 
490 56 82 3 87 
491 10 47 88 48 
492 29 83 31 58 
493 38 39 7 24 
494 26 24 58 83 
495 88 10 12 11 
496 26 27 24 82 
497 80 49 7 50 
498 39 36 7 24 
499 83 30 59 86 
500 51 24 80 7 
501 30 83 59 31 
502 56 25 82 23 
503 83 26 24 82 
504 51 24 7 35 
505 7 51 49 80 
506 36 35 7 24 
507 48 88 57 47 
508 72 54 81 50 
509 32 57 88 47 
510 32 88 11 47 
511 52 42 28 84 
512 61 81 24 80 
513 61 24 87 82 
514 61 87 24 81 
515 23 87 24 82 
516 23 24 87 81 
517 61 88 12 87 
518 61 12 88 10 
519 53 23 72 54 
520 81 23 72 87 
521 81 72 23 54 
522 87 57 72 88 
523 48 57 72 53 
524 48 72 57 88 
525 57 72 23 87 
526 57 23 72 53 
$EndElements
