$MeshFormat
4.1 0 8
$EndMeshFormat
$PhysicalNames
70
2 9 "strat_0031"
2 11 "strat_0030"
2 14 "strat_0029"
2 18 "strat_0028"
2 19 "strat_0027"
2 20 "strat_0026"
2 21 "strat_0025"
2 22 "West_0005"
2 25 "East_0003"
2 29 "East_0002"
2 30 "fault_0031"
2 31 "fault_0030"
2 32 "fault_0029"
2 33 "fault_0028"
2 39 "fault_0027"
2 40 "fault_0026"
2 41 "fault_0025"
2 42 "fault_0024"
2 43 "fault_0023"
2 46 "fault_0022"
2 47 "South_0009"
2 48 "strat_0024"
2 49 "strat_0023"
2 50 "North_0007"
2 51 "Base_0003"
2 52 "fault_0021"
2 53 "strat_0022"
2 54 "strat_0021"
2 55 "strat_0020"
2 56 "fault_0020"
2 57 "strat_0019"
2 58 "South_0008"
2 59 "fault_0019"
2 60 "strat_0018"
2 61 "fault_0018"
2 62 "fault_0017"
2 63 "strat_0017"
2 64 "fault_0016"
2 65 "fault_0015"
2 66 "South_0007"
2 67 "strat_0016"
2 68 "Base_0002"
2 69 "North_0006"
2 70 "strat_0015"
2 71 "strat_0014"
2 72 "strat_0013"
2 73 "strat_0012"
2 74 "strat_0011"
2 75 "strat_0010"
2 76 "strat_0009"
2 77 "West_0004"
2 78 "South_0006"
2 79 "Top_0003"
2 80 "North_0005"
2 81 "fault_0014"
2 82 "fault_0013"
2 83 "South_0005"
2 84 "fault_0012"
2 85 "fault_0011"
2 86 "fault_0010"
2 87 "fault_0009"
2 88 "fault_0008"
2 89 "West_0003"
2 90 "Top_0002"
2 91 "North_0004"
2 92 "South_0004"
3 1 "bottom_0001"
3 2 "bottom_0002"
3 3 "top_0003"
3 4 "top_0004"
$EndPhysicalNames
$Entities
58 119 66 4
2 0 0 -100 0 
4 0 100 -100 0 
5 100 0 0 0 
6 100 0 -100 0 
7 100 100 0 0 
8 100 100 -100 0 
9 50 60 -60 0 
10 -2.517801200548671e-16 10 -60 0 
11 14.24501514434814 -3.465025439968947e-16 -60 0 
15 100 24.89999771118164 -60 0 
16 75.09999847412109 2.206801195502994e-15 -60 0 
17 100 2.206801195502994e-15 -60 0 
19 -2.517801200548671e-16 95.09999847412109 -60 0 
20 50 100 -60 0 
21 -2.517801200548671e-16 -3.465025439968947e-16 -60 0 
22 -2.517801200548671e-16 60 -60 0 
23 -2.517801200548671e-16 100 -60 0 
25 100 100 -60 0 
26 90 100 -60 0 
27 4.90000057220459 100 -60 0 
28 100 60 -60 0 
29 50 -1.768439622442265e-15 -30 0 
30 30 50 -40 0 
31 26.95208549499512 16.09583282470703 -4.524617070171977e-17 0 
33 10 50 -2.220446049250313e-15 0 
34 22.82678031921387 24.34643936157227 -3.729778716643961e-15 0 
40 9.999999046325684 100 -50 0 
41 6.837623119354248 100 -43.67524719238281 0 
43 2.631586941384159e-17 100 -30.00000381469727 0 
44 -2.686921386984241e-16 70 -9.574652912690534e-16 0 
45 64.99999838859344 9.457297642720649e-17 -60 0 
46 85 -1.768439622442265e-15 -100 0 
47 50 1.587463409964858e-15 -60 0 
48 40 50 -60 0 
49 34.99999999999999 60 -60 0 
50 26.88751947565442 76.22496062275367 -60 0 
51 31.52395830733178 66.95208338533642 -59.99999999999999 0 
52 33.87582270304362 62.24835459391275 -59.99999999999999 0 
53 35 100 -100 0 
54 34.49489974975586 100 -98.98979949951172 0 
55 14.99999924099362 100 -60 0 
56 41.62746810913086 86.74506378173828 -100 0 
57 60 50 -100 0 
58 63.56538009643555 42.86924362182617 -100 0 
59 64.93458557128906 40.13082122802734 -100 0 
60 62.00960616089583 5.980783318369984 -60 0 
61 61.88667128329349 6.226653026831633 -60 0 
62 41.84358796540222 46.31282535703527 -60 0 
63 50 30.00000149045206 -60 0 
64 41.18846003214517 47.62308120727539 -59.99999999999999 0 
65 16.63489020514905 96.73021822188227 -60 0 
66 56.4005366734096 17.19892338344029 -60 0 
67 55.8137343270438 18.37253298078264 -60 0 
68 0 0 0 0 
69 35 -1.768439622442265e-15 1.15949154303515e-15 0 
70 61.32690811157227 -1.768439622442265e-15 -52.6538200378418 0 
71 2.147655010223389 65.70468902587891 -1.679202160350182e-15 0 
72 0 100 0 0 
4 -1e-07 -1.000000011686097e-07 -100.0000001 1e-07 100.0000001 -99.99999990000001 0 2 2 -4 
6 99.99999990000001 -1.000000011686097e-07 -1e-07 100.0000001 100.0000001 1e-07 0 2 5 -7 
8 99.99999990000001 -1.000000011686097e-07 -100.0000001 100.0000001 100.0000001 -99.99999990000001 0 2 6 -8 
14 -1.000000029449666e-07 -1.000000020567882e-07 -60.0000001 14.24501524434815 10.0000001 -59.9999999 0 2 10 -11 
25 75.09999837412107 -1.000000118267508e-07 -60.00000010000002 100.0000001 24.89999781118166 -59.99999989999998 0 2 15 -16 
26 75.09999837412109 -1e-07 -60.0000001 100.0000001 1.000000044136024e-07 -59.9999999 0 2 16 -17 
27 99.99999990000001 -9.999999761589606e-08 -60.0000001 100.0000001 24.89999781118164 -59.9999999 0 2 17 -15 
38 49.9999999 59.9999999 -60.0000001 50.0000001 100.0000001 -59.9999999 0 2 9 -20 
40 -1e-07 -1e-07 -100.0000001 1e-07 1e-07 -59.9999999 0 2 2 -21 
41 -1.000000005035602e-07 -1.000000002804313e-07 -60.0000001 1e-07 10.0000001 -59.9999999 0 2 10 -21 
42 -1.000000005035602e-07 9.999999899999999 -60.0000001 1e-07 60.0000001 -59.9999999 0 2 22 -10 
43 -1.000000005035602e-07 59.9999999 -60.0000001 1e-07 95.09999857412109 -59.9999999 0 2 19 -22 
44 -1.000000005035602e-07 95.0999983741211 -60.0000001 1e-07 100.0000001 -59.9999999 0 2 23 -19 
45 -1e-07 99.99999990000001 -100.0000001 1e-07 100.0000001 -59.9999999 0 2 4 -23 
46 99.99999990000001 -1e-07 -100.0000001 100.0000001 1e-07 -59.9999999 0 2 6 -17 
49 -1.000000002804313e-07 -1.000000006930051e-07 -60.0000001 14.24501524434815 1e-07 -59.9999999 0 2 21 -11 
50 99.99999990000001 99.99999990000001 -100.0000001 100.0000001 100.0000001 -59.9999999 0 2 8 -25 
51 89.99999990000001 99.99999990000001 -60.0000001 100.0000001 100.0000001 -59.9999999 0 2 25 -26 
52 49.9999999 99.99999990000001 -60.0000001 90.00000009999999 100.0000001 -59.9999999 0 2 26 -20 
54 -9.999999983634211e-08 99.99999990000001 -60.0000001 4.90000067220459 100.0000001 -59.9999999 0 2 27 -23 
55 99.99999990000001 24.89999761118164 -60.0000001 100.0000001 60.0000001 -59.9999999 0 2 15 -28 
56 99.99999990000001 59.9999999 -60.0000001 100.0000001 100.0000001 -59.9999999 0 2 28 -25 
59 99.99999990000001 -1e-07 -60.0000001 100.0000001 1e-07 1.000000011686097e-07 0 2 17 -5 
60 99.99999990000001 99.99999990000001 -60.0000001 100.0000001 100.0000001 1.000000011686097e-07 0 2 25 -7 
63 49.99999989999999 24.89999761118163 -60.00000010000001 100.0000001 60.00000010000001 -59.99999989999999 0 2 15 -9 
65 49.9999999 59.9999999 -60.0000001 100.0000001 60.0000001 -59.9999999 0 2 28 -9 
66 -1.000000025008774e-07 95.09999837412109 -60.0000001 4.900000672204593 100.0000001 -59.9999999 0 2 27 -19 
67 49.99999989999998 59.99999989999998 -60.00000010000002 100.0000001 100.0000001 -59.99999989999998 0 2 25 -9 
68 49.99999989999998 59.99999989999998 -60.00000010000002 90.00000010000002 100.0000001 -59.99999989999998 0 2 26 -9 
69 29.99999989999999 -1.000000118267508e-07 -40.00000010000001 50.00000010000001 50.00000010000001 -29.99999989999999 0 2 29 -30 
70 26.95208539499511 16.09583272470702 -40.00000010000001 30.00000010000001 50.00000010000001 1.000000082740371e-07 0 2 30 -31 
71 26.95208539499511 -1.000000082740371e-07 -30.00000010000001 50.00000010000001 16.09583292470704 1.000000082740371e-07 0 2 31 -29 
75 9.999999899999995 49.99999989999999 -40.00000010000001 30.0000001 50.00000010000001 1.000000047213234e-07 0 2 30 -33 
76 9.999999899999997 24.34643926157226 -1.000000073337797e-07 22.82678041921387 50.0000001 1.000000013835549e-07 0 2 33 -34 
77 22.82678021921386 24.34643926157226 -40.00000010000001 30.00000010000001 50.00000010000001 1.000000047213234e-07 0 2 34 -30 
96 9.999998946325675 49.99999989999999 -50.00000010000001 30.00000010000001 100.0000001 -39.99999989999999 0 2 30 -40 
97 6.837623019354248 99.99999990000001 -50.0000001 9.999999146325683 100.0000001 -43.67524709238281 0 2 40 -41 
98 6.837623019354233 49.99999989999998 -43.67524729238283 30.00000010000002 100.0000001 -39.99999989999998 0 2 41 -30 
105 -9.999999983634211e-08 99.99999990000001 -43.67524729238281 6.837623219354248 100.0000001 -30.00000371469726 0 2 41 -43 
106 -1.000000005128003e-07 69.99999990000001 -30.00000391469727 1.00000000270424e-07 100.0000001 9.99999993922529e-08 0 2 43 -44 
107 -1.000000091622155e-07 69.99999989999999 -43.67524729238282 6.837623219354257 100.0000001 1.000000082740371e-07 0 2 44 -41 
108 64.99999828859343 -1.000000035368792e-07 -100.0000001 85.00000010000001 1e-07 -59.9999999 0 2 45 -46 
109 49.9999999 -1.000000005677263e-07 -60.0000001 64.99999848859345 1.000000041127753e-07 -59.9999999 0 2 47 -45 
110 14.24501504434814 -1.000000017728021e-07 -60.0000001 50.0000001 1.00000003013763e-07 -59.9999999 0 2 11 -47 
111 -1.000000011686097e-07 -1e-07 -100.0000001 85.00000009999999 1e-07 -99.99999990000001 0 2 2 -46 
112 34.99999984999999 49.99999984999999 -60.00000015 40.00000014999999 60.00000015 -59.99999985 0 2 48 -49 
113 -1.000000082740371e-07 9.999999899999992 -60.00000010000001 40.00000010000001 50.00000010000001 -59.99999989999999 0 2 48 -10 
114 -1.000000011686097e-07 59.9999999 -60.0000001 35.00000009999999 60.0000001 -59.9999999 0 2 49 -22 
115 -1.000000153794645e-07 76.22496052275366 -60.00000010000002 26.88751957565443 95.0999985741211 -59.99999989999998 0 2 19 -50 
116 26.88751932565441 66.95208323533642 -60.00000014999999 31.52395845733178 76.22496077275368 -59.99999984999999 0 2 51 -50 
117 31.52395815733179 62.24835444391276 -60.00000014999998 33.87582285304362 66.95208353533643 -59.99999984999999 0 2 52 -51 
118 33.87582255304361 59.99999985 -60.00000014999998 35.00000014999998 62.24835474391275 -59.99999984999999 0 2 49 -52 
119 34.49489964975586 99.99999990000001 -100.0000001 35.0000001 100.0000001 -98.98979939951172 0 2 53 -54 
120 14.99999914099362 99.99999990000001 -98.98979959951171 34.49489984975586 100.0000001 -59.9999999 0 2 54 -55 
121 4.90000047220459 99.99999990000001 -60.0000001 14.99999934099362 100.0000001 -59.9999999 0 2 55 -27 
122 -1.000000011686097e-07 99.99999990000001 -100.0000001 35.0000001 100.0000001 -99.99999990000001 0 2 4 -53 
123 34.9999999 86.74506368173829 -100.0000001 41.62746820913086 100.0000001 -99.99999990000001 0 2 56 -53 
124 41.62746800913086 49.9999999 -100.0000001 60.0000001 86.74506388173828 -99.99999990000001 0 2 57 -56 
125 59.9999999 42.86924352182617 -100.0000001 63.56538019643555 50.0000001 -99.99999990000001 0 2 58 -57 
126 63.56537999643555 40.13082112802734 -100.0000001 64.93458567128906 42.86924372182617 -99.99999990000001 0 2 59 -58 
127 64.93458547128907 -1.000000011686097e-07 -100.0000001 85.00000009999999 40.13082132802734 -99.99999990000001 0 2 46 -59 
128 62.00960601089582 -1.499999982002009e-07 -60.00000014999998 64.99999853859343 5.980783468369983 -59.99999984999999 0 2 45 -60 
129 61.88667113329348 5.980783168369983 -60.00000015 62.00960631089583 6.226653176831629 -59.99999985 0 2 60 -61 
130 61.88667118329347 6.226652926831619 -100.0000001 64.93458567128908 40.13082132802736 -59.99999989999999 0 2 59 -61 
131 49.99999989999998 -1.000000127149292e-07 -60.00000010000002 62.00960626089584 5.980783418369998 -59.99999989999998 0 2 47 -60 
132 14.24501504434813 -1.000000118267508e-07 -60.00000010000001 41.84358806540223 46.31282545703527 -59.99999989999999 0 2 11 -62 
133 41.84358781540223 30.00000134045207 -60.00000015 50.00000015 46.31282550703526 -59.99999985 0 2 63 -62 
134 49.9999999 -9.99999993922529e-08 -60.0000001 50.0000001 30.00000159045206 -59.9999999 0 2 47 -63 
135 39.99999984999999 47.62308105727539 -60.00000014999999 41.18846018214517 50.00000015 -59.99999984999999 0 2 64 -48 
136 41.18845988214518 46.31282520703527 -60.00000014999999 41.84358811540222 47.62308135727539 -59.99999984999999 0 2 62 -64 
137 33.87582260304359 62.24835449391273 -100.0000001 41.62746820913088 86.7450638817383 -59.99999989999996 0 2 56 -52 
138 39.99999989999998 49.99999989999998 -100.0000001 60.00000010000002 50.00000010000002 -59.99999989999998 0 2 57 -48 
139 -1.000000029449666e-07 95.09999837412109 -60.0000001 16.63489030514905 96.73021832188228 -59.9999999 0 2 65 -19 
140 16.63489005514905 76.22496047275366 -60.00000014999999 26.88751962565442 96.73021837188227 -59.99999984999999 0 2 50 -65 
141 14.9999990909936 96.73021807188226 -60.00000014999999 16.63489035514904 100.00000015 -59.99999984999999 0 2 65 -55 
142 31.52395820733176 66.9520832853364 -98.98979959951174 34.49489984975588 100.0000001 -59.99999989999997 0 2 54 -51 
143 34.49489964975586 86.74506368173829 -100.0000001 41.62746820913086 100.0000001 -98.98979939951172 0 2 56 -54 
144 41.18845993214516 42.86924352182616 -100.0000001 63.56538019643556 47.62308130727541 -59.99999989999998 0 2 58 -64 
145 56.40053657340958 17.19892328344027 -100.0000001 64.93458567128908 40.13082132802736 -59.99999989999998 0 2 59 -66 
146 55.81373417704381 17.19892323344029 -60.00000015 56.40053682340959 18.37253313078265 -59.99999985 0 2 66 -67 
147 55.8137342270438 18.37253288078264 -100.0000001 63.56538019643556 42.86924372182619 -59.99999989999999 0 2 67 -58 
148 49.99999985 18.37253283078265 -60.00000015 55.81373447704381 30.00000164045206 -59.99999985 0 2 67 -63 
149 56.40053652340962 6.226652876831629 -60.00000015 61.88667143329349 17.1989235334403 -59.99999985 0 2 61 -66 
150 64.99999828859343 -1.000000001976041e-07 -60.0000001 75.0999985741211 1.000000043619909e-07 -59.9999999 0 2 45 -16 
151 84.99999990000001 -1e-07 -100.0000001 100.0000001 1e-07 -99.99999990000001 0 2 46 -6 
152 62.00960606089581 5.98078321836997 -60.00000010000002 100.0000001 24.89999781118166 -59.99999989999998 0 2 60 -15 
153 34.9999999 99.99999990000001 -100.0000001 100.0000001 100.0000001 -99.99999990000001 0 2 53 -8 
154 14.99999914099362 99.99999990000001 -60.0000001 50.0000001 100.0000001 -59.9999999 0 2 20 -55 
155 49.9999999 30.00000139045206 -60.0000001 50.0000001 60.0000001 -59.9999999 0 2 63 -9 
156 16.63489010514904 96.73021812188226 -60.0000001 50.0000001 100.0000001 -59.9999999 0 2 20 -65 
157 41.84358786540221 46.31282525703526 -60.00000010000001 50.00000010000001 60.00000010000001 -59.99999989999999 0 2 62 -9 
158 39.99999989999999 49.99999989999999 -60.00000010000001 50.00000010000001 60.00000010000001 -59.99999989999999 0 2 9 -48 
159 34.99999989999998 59.9999999 -60.0000001 50.0000001 60.0000001 -59.9999999 0 2 9 -49 
160 26.8875193756544 59.99999989999998 -60.00000010000002 50.00000010000002 76.22496072275368 -59.99999989999998 0 2 50 -9 
161 -1e-07 -1e-07 -60.0000001 1e-07 1e-07 1.000000011686097e-07 0 2 21 -68 
162 -1e-07 -1.000000011686097e-07 -1e-07 1e-07 70.00000009999999 1e-07 0 2 68 -44 
163 -1e-07 99.99999990000001 -60.0000001 1e-07 100.0000001 -30.00000371469726 0 2 23 -43 
164 -1.000000011686097e-07 -1e-07 -1e-07 35.0000001 1e-07 1e-07 0 2 68 -69 
165 61.32690801157226 -1.000000035368792e-07 -60.0000001 64.99999848859345 1e-07 -52.6538199378418 0 2 70 -45 
166 49.9999999 -1.000000035368792e-07 -52.6538201378418 61.32690821157227 1e-07 -29.9999999 0 2 29 -70 
167 34.9999999 -1.000000035368792e-07 -30.0000001 50.0000001 1e-07 1.000000029449666e-07 0 2 69 -29 
168 -1.000000018347436e-07 65.7046889258789 -1.000000032982596e-07 2.14765511022339 70.00000010000001 1.000000006615921e-07 0 2 44 -71 
169 2.147654910223387 49.9999999 -1.000000043957884e-07 10.0000001 65.70468912587891 1.000000004961402e-07 0 2 71 -33 
170 22.82678021921386 16.09583272470703 -1.000000071525131e-07 26.95208559499512 24.34643946157227 1.000000033774882e-07 0 2 34 -31 
171 26.95208539499512 -1.000000011686097e-07 -1.000000011043429e-07 35.0000001 16.09583292470703 1.000000022185883e-07 0 2 31 -69 
172 9.999998946325684 99.99999990000001 -60.0000001 14.99999934099362 100.0000001 -49.9999999 0 2 55 -40 
173 61.32690801157226 -1.000000047213234e-07 -60.00000010000002 61.8866713832935 6.226653126831639 -52.65381993784179 0 2 61 -70 
174 49.99999989999999 -1.000000100503939e-07 -60.0000001 56.40053677340961 17.1989234834403 -29.99999989999999 0 2 66 -29 
175 29.99999989999998 49.99999989999998 -60.00000010000001 31.5239584073318 66.95208348533643 -39.99999989999998 0 2 51 -30 
176 29.99999989999999 49.99999989999999 -60.00000009999999 33.87582280304363 62.24835469391276 -39.99999989999998 0 2 52 -30 
177 29.99999989999999 49.99999989999999 -60.0000001 40.00000010000001 50.00000010000001 -39.99999989999999 0 2 48 -30 
178 29.99999989999999 47.62308110727538 -60.00000010000001 41.18846013214519 50.00000010000001 -39.99999989999999 0 2 64 -30 
179 49.99999989999998 -1.00000020708535e-07 -60.00000010000002 55.81373442704382 18.37253308078267 -29.99999989999998 0 2 29 -67 
180 -1e-07 69.99999990000001 -1e-07 1e-07 100.0000001 1e-07 0 2 44 -72 
181 -1e-07 99.99999990000001 -30.00000391469727 1e-07 100.0000001 9.99999993922529e-08 0 2 43 -72 
182 -1.000000011686097e-07 99.99999990000001 -1e-07 100.0000001 100.0000001 1e-07 0 2 72 -7 
183 34.9999999 -1e-07 -1e-07 100.0000001 1e-07 1e-07 0 2 69 -5 
184 2.147654910223382 65.7046889258789 -43.67524729238282 6.837623219354255 100.0000001 1.000000082740371e-07 0 2 41 -71 
185 2.14765491022338 49.99999989999999 -40.00000010000001 30.00000010000001 65.70468912587891 1.000000082740371e-07 0 2 71 -30 
9 -1.000000029449666e-07 -1.000000029449666e-07 -60.0000001 14.24501524434815 10.0000001 -59.9999999 1 9 3 41 49 -14 
11 75.09999837412107 -1.000000136031076e-07 -60.00000010000002 100.0000001 24.89999781118166 -59.99999989999998 1 11 3 25 26 27 
14 49.99999989999999 24.89999761118163 -60.00000010000001 100.0000001 60.00000010000001 -59.99999989999999 1 14 3 55 65 -63 
18 -1.000000029449666e-07 95.09999837412109 -60.0000001 4.900000672204593 100.0000001 -59.9999999 1 18 3 -66 54 44 
19 49.99999989999998 59.99999989999998 -60.00000010000002 100.0000001 100.0000001 -59.99999989999998 1 19 3 -65 56 67 
20 49.99999989999998 59.99999989999998 -60.00000010000002 100.0000001 100.0000001 -59.99999989999998 1 20 3 51 68 -67 
21 49.99999989999998 59.99999989999998 -60.00000010000002 90.00000010000002 100.0000001 -59.99999989999998 1 21 3 -68 52 -38 
22 -1.000000005035602e-07 -1.000000011686097e-07 -100.0000001 1.000000002517801e-07 100.0000001 -59.9999999 1 22 7 -40 4 45 44 43 42 41 
25 99.99999990000001 -1.000000011686097e-07 -100.0000001 100.0000001 100.0000001 -59.9999999 1 25 6 -46 8 50 -56 -55 -27 
29 99.99999990000001 -1.000000011686097e-07 -60.0000001 100.0000001 100.0000001 1.000000011686097e-07 1 29 6 -59 27 55 56 60 -6 
30 26.95208539499511 -1.000000118267508e-07 -40.00000010000001 50.00000010000001 50.00000010000001 1.000000118267508e-07 1 30 3 69 70 71 
31 26.95208539499511 -1.000000100503939e-07 -30.00000010000001 50.00000010000001 16.09583292470704 1.000000082740371e-07 1 31 3 171 167 -71 
32 9.999999899999992 24.34643926157226 -40.00000010000001 30.00000010000001 50.00000010000001 1.000000082740371e-07 1 32 3 75 76 77 
33 22.82678021921386 16.09583272470702 -40.00000010000001 30.00000010000001 50.00000010000001 1.000000082740371e-07 1 33 3 -77 170 -70 
39 6.837623019354233 49.99999989999998 -50.00000010000002 30.00000010000002 100.0000001 -39.99999989999998 1 39 3 96 97 98 
40 2.147654910223375 49.99999989999998 -43.67524729238283 30.00000010000002 100.0000001 1.000000153794645e-07 1 40 3 -98 184 185 
41 2.14765491022338 49.99999989999999 -40.00000010000001 30.00000010000001 65.70468912587891 1.000000082740371e-07 1 41 3 169 -75 -185 
42 -1.000000091622155e-07 69.99999989999999 -43.67524729238282 6.837623219354257 100.0000001 1.000000082740371e-07 1 42 3 105 106 107 
43 -1.000000091622155e-07 65.7046889258789 -43.67524729238282 6.837623219354257 100.0000001 1.000000082740371e-07 1 43 3 168 -184 -107 
46 34.49489964975586 86.74506368173829 -100.0000001 41.62746820913086 100.0000001 -98.98979939951172 1 46 3 123 119 -143 
47 -1.000000011686097e-07 -1.000000039236293e-07 -100.0000001 85.00000010000001 1.000000041127753e-07 -59.9999999 1 47 6 108 -111 40 49 110 109 
48 -1.500000017529146e-07 9.999999850000002 -60.00000015 40.00000015 60.00000015 -59.99999985 1 48 4 112 114 42 -113 
49 -1.500000017529146e-07 59.99999985 -60.00000015 35.00000014999998 95.0999986241211 -59.99999984999999 1 49 6 -115 43 -114 118 117 116 
50 -1.000000011686097e-07 99.99999990000001 -100.0000001 35.0000001 100.0000001 -59.9999999 1 50 6 -119 -122 45 -54 -121 -120 
51 -1.000000011686097e-07 -1.000000011686097e-07 -100.0000001 85.00000009999999 100.0000001 -99.99999990000001 1 51 8 -122 -4 111 127 126 125 124 123 
52 61.88667113329348 -1.500000017529146e-07 -100.00000015 85.00000015000001 40.13082137802734 -59.99999984999999 1 52 5 -128 108 127 130 -129 
53 49.99999985 -1.499999982002009e-07 -60.00000015 64.99999853859345 5.980783468369983 -59.99999984999999 1 53 3 -131 109 128 
54 14.24501499434815 -1.500000017529146e-07 -60.00000015 50.00000015 46.31282550703526 -59.99999985 1 54 4 -132 110 134 133 
55 -1.500000017529146e-07 -1.500000017529146e-07 -60.00000015 41.84358811540222 50.00000015 -59.99999984999999 1 55 5 135 113 14 132 136 
56 33.87582255304361 49.99999984999999 -100.00000015 60.00000015 86.74506393173829 -59.99999984999998 1 56 5 -112 -138 124 137 -118 
57 -1.499999999765578e-07 76.22496047275366 -60.00000015 26.88751962565442 96.73021837188227 -59.99999984999999 1 57 3 139 115 140 
58 14.9999990909936 66.95208323533642 -98.98979964951172 34.49489989975586 100.00000015 -59.99999984999999 1 58 5 -116 -142 120 -141 -140 
59 31.52395815733178 62.24835444391275 -100.00000015 41.62746825913086 100.00000015 -59.99999984999998 1 59 4 143 142 -117 -137 
60 -1.499999999765578e-07 95.09999832412109 -60.00000015 16.63489035514905 100.00000015 -59.99999984999999 1 60 4 141 121 66 -139 
61 39.99999984999999 42.86924347182617 -100.00000015 63.56538024643555 50.00000015 -59.99999984999999 1 61 4 -144 125 138 -135 
62 55.81373417704381 17.19892323344029 -100.00000015 64.93458572128907 42.86924377182618 -59.99999984999999 1 62 4 -145 126 -147 -146 
63 49.99999985 -1.499999982002009e-07 -60.00000015 62.00960631089583 30.00000164045206 -59.99999985 1 63 6 131 129 149 146 148 -134 
64 56.4005365234096 6.226652876831629 -100.00000015 64.93458572128907 40.13082137802734 -59.99999984999999 1 64 3 145 -149 -130 
65 41.18845988214518 18.37253283078265 -100.00000015 63.56538024643555 47.62308135727539 -59.99999984999999 1 65 5 -148 147 144 -136 -133 
66 64.99999828859343 -1.000000039752408e-07 -100.0000001 100.0000001 1.000000044136024e-07 -59.9999999 1 66 5 -46 -151 -108 150 26 
67 62.00960601089582 -1.499999982002009e-07 -60.00000015 100.00000015 24.89999786118164 -59.99999984999999 1 67 4 -128 150 -25 -152 
68 34.9999999 -1.000000011686097e-07 -100.0000001 100.0000001 100.0000001 -99.99999990000001 1 68 8 -153 -123 -124 -125 -126 -127 151 8 
69 14.99999914099362 99.99999990000001 -100.0000001 100.0000001 100.0000001 -59.9999999 1 69 7 -50 -153 119 120 -154 -52 -51 
70 49.99999985 5.980783168369982 -60.00000015 100.00000015 60.00000015 -59.99999985 1 70 7 152 63 -155 -148 -146 -149 -129 
71 14.9999990909936 96.73021807188226 -60.00000015 50.00000015 100.00000015 -59.99999984999999 1 71 3 -156 154 -141 
72 41.84358781540222 30.00000134045206 -60.00000015 50.00000015 60.00000015 -59.99999985 1 72 3 -157 -133 155 
73 39.99999984999999 46.31282520703527 -60.00000015 50.00000015 60.00000015 -59.99999984999999 1 73 4 157 158 -135 -136 
74 34.99999984999999 49.99999984999999 -60.00000015 50.00000015 60.00000015 -59.99999985 1 74 3 -158 159 -112 
75 26.88751932565441 59.99999985 -60.00000015 50.00000015 76.22496077275368 -59.99999984999999 1 75 5 -160 -116 -117 -118 -159 
76 16.63489005514905 59.99999985 -60.00000015 50.00000015 100.00000015 -59.99999984999999 1 76 4 -140 160 38 156 
77 -1.000000005204723e-07 -1.000000011686097e-07 -60.0000001 1.00000000278096e-07 100.0000001 1.000000011686097e-07 1 77 8 -161 -41 -42 -43 -44 163 106 -162 
78 -1.000000011686097e-07 -1.000000039236293e-07 -60.0000001 64.99999848859345 1.000000041127753e-07 1.000000047213234e-07 1 78 8 164 167 166 165 -109 -110 -49 161 
79 -1.000000047213234e-07 -1.000000011686097e-07 -1.000000073337797e-07 35.0000001 70.00000010000001 1.000000047634925e-07 1 79 7 -162 164 -171 -170 -76 -169 -168 
80 -1.000000002804313e-07 99.99999990000001 -60.0000001 14.99999934099362 100.0000001 -30.00000371469726 1 80 6 163 -105 -97 -172 121 54 
81 61.32690796157227 -1.500000017529146e-07 -60.00000015000001 64.99999853859345 6.226653176831634 -52.6538198878418 1 81 4 173 165 128 129 
82 49.99999985 -1.500000017529146e-07 -60.00000015000001 61.88667143329349 17.1989235334403 -29.99999985 1 82 4 174 166 -173 149 
83 9.999998896325684 49.99999985 -60.00000015 31.52395845733178 100.00000015 -39.99999985 1 83 6 -175 116 140 141 172 -96 
84 29.99999985 49.99999985 -60.00000014999999 33.87582285304362 66.95208353533643 -39.99999984999999 1 84 3 117 175 -176 
85 29.99999985 49.99999984999999 -60.00000015 40.00000015 62.24835474391275 -39.99999984999999 1 85 4 -177 112 118 176 
86 29.99999985 -1.500000017529146e-07 -60.00000015 55.81373447704381 50.00000015 -29.99999985 1 86 6 -69 179 148 133 136 178 
87 49.99999985 -1.500000017529146e-07 -60.00000015 56.4005368234096 18.37253313078265 -29.99999985 1 87 3 -174 146 -179 
88 29.99999985 47.62308105727539 -60.00000015 41.18846018214518 50.00000015 -39.99999985 1 88 3 -178 135 177 
89 -1.000000005128003e-07 69.99999990000001 -30.00000391469727 1.00000000270424e-07 100.0000001 9.99999993922529e-08 1 89 3 -180 -106 181 
90 -1.000000011686097e-07 -1.000000011686097e-07 -1.000000073337797e-07 100.0000001 100.0000001 1.000000047634925e-07 1 90 9 -180 168 169 76 170 171 183 6 -182 
91 -1.000000011686097e-07 99.99999990000001 -60.0000001 100.0000001 100.0000001 1.000000011686097e-07 1 91 9 -60 51 52 154 172 97 105 181 182 
92 34.9999999 -1.000000039752408e-07 -60.0000001 100.0000001 1.000000044136024e-07 1.000000047213234e-07 1 92 7 -59 -26 -150 -165 -166 -167 183 
1 -1.499999982002009e-07 -1.500000053056283e-07 -100.00000015 85.00000015000001 100.00000015 -59.99999984999998 1 1 23 -22 -47 9 48 49 18 50 -51 52 53 54 55 56 57 58 59 60 46 61 62 63 64 65 
2 14.9999990909936 -1.500000053056283e-07 -100.00000015 100.00000015 100.00000015 -59.99999984999998 1 2 26 -66 25 11 67 -52 -68 14 19 69 70 -64 -62 -61 -56 -46 20 21 71 -58 -65 72 73 74 75 -59 76 
3 -1.499999982002009e-07 -1.500000053056283e-07 -60.00000015000001 64.99999853859345 100.00000015 1.500000017529146e-07 1 3 31 -77 -78 79 42 80 -18 -49 -48 -9 -54 -53 81 82 31 43 41 32 33 -60 83 39 -57 84 85 -55 86 -63 87 30 40 88 
4 -1.499999982002009e-07 -1.500000053056283e-07 -60.00000015000001 100.00000015 100.00000015 1.500000017529146e-07 1 4 35 -89 90 91 -42 29 -92 -31 -33 -32 -41 -43 -39 -83 -71 -21 -20 -19 -14 -11 -82 -81 -67 -30 -40 -84 -76 -75 -70 -87 -86 -85 -74 -72 -88 -73 
$EndEntities
$Nodes
128 85 1 85
0 2 0 1
1
0 0 -100
0 4 0 1
2
0 100 -100
0 5 0 1
3
100 0 0
0 6 0 1
4
100 0 -100
0 7 0 1
5
100 100 0
0 8 0 1
6
100 100 -100
0 9 0 1
7
50 60 -60
0 10 0 1
8
-2.517801200548671e-16 10 -60
0 11 0 1
9
14.24501514434814 -3.465025439968947e-16 -60
0 15 0 1
10
100 24.89999771118164 -60
0 16 0 1
11
75.09999847412109 2.206801195502994e-15 -60
0 17 0 1
12
100 2.206801195502994e-15 -60
0 19 0 1
13
-2.517801200548671e-16 95.09999847412109 -60
0 20 0 1
14
50 100 -60
0 21 0 1
15
-2.517801200548671e-16 -3.465025439968947e-16 -60
0 22 0 1
16
-2.517801200548671e-16 60 -60
0 23 0 1
17
-2.517801200548671e-16 100 -60
0 25 0 1
18
100 100 -60
0 26 0 1
19
90 100 -60
0 27 0 1
20
4.90000057220459 100 -60
0 28 0 1
21
100 60 -60
0 29 0 1
22
50 -1.768439622442265e-15 -30
0 30 0 1
23
30 50 -40
0 31 0 1
24
26.95208549499512 16.09583282470703 -4.524617070171977e-17
0 33 0 1
25
10 50 -2.220446049250313e-15
0 34 0 1
26
22.82678031921387 24.34643936157227 -3.729778716643961e-15
0 40 0 1
27
9.999999046325684 100 -50
0 41 0 1
28
6.837623119354248 100 -43.67524719238281
0 43 0 1
29
2.631586941384159e-17 100 -30.00000381469727
0 44 0 1
30
-2.686921386984241e-16 70 -9.574652912690534e-16
0 45 0 1
31
64.99999838859344 9.457297642720649e-17 -60
0 46 0 1
32
85 -1.768439622442265e-15 -100
0 47 0 1
33
50 1.587463409964858e-15 -60
0 48 0 1
34
40 50 -60
0 49 0 1
35
34.99999999999999 60 -60
0 50 0 1
36
26.88751947565442 76.22496062275367 -60
0 51 0 1
37
31.52395830733178 66.95208338533642 -59.99999999999999
0 52 0 1
38
33.87582270304362 62.24835459391275 -59.99999999999999
0 53 0 1
39
35 100 -100
0 54 0 1
40
34.49489974975586 100 -98.98979949951172
0 55 0 1
41
14.99999924099362 100 -60
0 56 0 1
42
41.62746810913086 86.74506378173828 -100
0 57 0 1
43
60 50 -100
0 58 0 1
44
63.56538009643555 42.86924362182617 -100
0 59 0 1
45
64.93458557128906 40.13082122802734 -100
0 60 0 1
46
62.00960616089583 5.980783318369984 -60
0 61 0 1
47
61.88667128329349 6.226653026831633 -60
0 62 0 1
48
41.84358796540222 46.31282535703527 -60
0 63 0 1
49
50 30.00000149045206 -60
0 64 0 1
50
41.18846003214517 47.62308120727539 -59.99999999999999
0 65 0 1
51
16.63489020514905 96.73021822188227 -60
0 66 0 1
52
56.4005366734096 17.19892338344029 -60
0 67 0 1
53
55.8137343270438 18.37253298078264 -60
0 68 0 1
54
0 0 0
0 69 0 1
55
35 -1.768439622442265e-15 1.15949154303515e-15
0 70 0 1
56
61.32690811157227 -1.768439622442265e-15 -52.6538200378418
0 71 0 1
57
2.147655010223389 65.70468902587891 -1.679202160350182e-15
0 72 0 1
58
0 100 0
2 9 0 0
2 11 0 0
2 14 0 0
2 18 0 0
2 19 0 0
2 20 0 0
2 21 0 0
2 22 0 0
2 25 0 0
2 29 0 2
59
60
100 42.44999885559082 -34.01923788646684
100 75.61249971389771 -38.50480947161671
2 30 0 0
2 31 0 0
2 32 0 0
2 33 0 0
2 39 0 0
2 40 0 0
2 41 0 0
2 42 0 0
2 43 0 0
2 46 0 0
2 47 0 2
61
62
30.43625358466121 0 -74.35590995519323
57.49999919429672 0 -77.42363982077291
2 48 0 0
2 49 0 0
2 50 0 0
2 51 0 1
63
38.35457229614258 53.29085477193196 -100
2 52 0 0
2 53 0 0
2 54 0 0
2 55 0 0
2 56 0 1
64
42.10065816243489 61.7986836751302 -76
2 57 0 0
2 58 0 1
65
25.38605660483853 88.29001538778778 -69.06212922477361
2 59 0 0
2 60 0 0
2 61 0 0
2 62 0 0
2 63 0 0
2 64 0 0
2 65 0 0
2 66 0 1
66
85.01999937254291 0 -76
2 67 0 0
2 68 0 1
67
66.72481340389785 76.32807156553535 -100
2 69 0 1
68
61.89897994995118 100 -83.79795989990234
2 70 0 1
69
62.35015704729115 26.11635143211471 -60
2 71 0 0
2 72 0 0
2 73 0 0
2 74 0 0
2 75 0 0
2 76 0 0
2 77 0 3
70
71
72
0 25.77617538160432 -40.71223408602187
0 78.49521884553567 -43.39029356120165
0 55.71189903785666 -29.01708857698679
2 78 0 3
73
74
75
32.12250757217407 0 -45
26.04818740479902 0 -23.1007614007875
14.48314202426425 0 -37.6201522801575
2 79 0 1
76
15.76265718932319 15.65774612435039 0
2 80 0 0
2 81 0 0
2 82 0 0
2 83 0 0
2 84 0 0
2 85 0 0
2 86 0 2
77
78
42.05072965457678 39.26172676851015 -53.3631851144069
46.3804229901261 25.002382145013 -47.76322733267067
2 87 0 0
2 88 0 0
2 89 0 0
2 90 0 2
79
80
41.4590379806337 32.93791197478971 0
16.27432224632106 62.95259219325896 0
2 91 0 3
81
82
83
20.46330676204909 100 -45.96050274332082
76.1884438331242 100 -42.41755309056897
40.94221916562098 100 -32.08776545284483
2 92 0 2
84
85
69.92868587168063 0 -31.59114576211519
73.76863112396151 0 -49.93179873135037
3 1 0 0
3 2 0 0
3 3 0 0
3 4 0 0
$EndNodes
$Elements
70 517 1 517
2 9 2 1
1 8 15 9 
2 11 2 1
2 10 11 12 
2 14 2 1
3 7 10 21 
2 18 2 1
4 13 20 17 
2 19 2 1
5 7 21 18 
2 20 2 1
6 7 18 19 
2 21 2 1
7 7 19 14 
2 22 2 5
8 16 2 1 
9 15 8 1 
10 8 16 1 
11 2 16 13 
12 2 13 17 
2 25 2 4
13 21 4 6 
14 12 4 10 
15 10 4 21 
16 21 6 18 
2 29 2 8
17 3 59 5 
18 12 59 3 
19 5 60 18 
20 59 60 5 
21 10 59 12 
22 21 59 10 
23 18 60 21 
24 21 60 59 
2 30 2 1
25 22 23 24 
2 31 2 1
26 22 24 55 
2 32 2 1
27 23 25 26 
2 33 2 1
28 23 26 24 
2 39 2 1
29 23 27 28 
2 40 2 1
30 23 28 57 
2 41 2 1
31 23 57 25 
2 42 2 1
32 28 29 30 
2 43 2 1
33 28 30 57 
2 46 2 1
34 39 40 42 
2 47 2 8
35 9 15 1 
36 9 1 61 
37 1 32 62 
38 61 1 62 
39 33 9 61 
40 32 31 62 
41 31 33 62 
42 33 61 62 
2 48 2 2
43 8 34 16 
44 16 34 35 
2 49 2 4
45 16 36 13 
46 38 16 35 
47 37 36 16 
48 37 16 38 
2 50 2 4
49 17 20 2 
50 2 20 41 
51 2 40 39 
52 41 40 2 
2 51 2 8
53 1 2 63 
54 1 45 32 
55 45 1 63 
56 39 42 2 
57 2 42 63 
58 42 43 63 
59 43 44 63 
60 44 45 63 
2 52 2 3
61 46 31 32 
62 47 32 45 
63 47 46 32 
2 53 2 1
64 31 46 33 
2 54 2 2
65 49 9 33 
66 48 9 49 
2 55 2 3
67 8 9 48 
68 34 8 50 
69 50 8 48 
2 56 2 5
70 34 64 35 
71 43 64 34 
72 35 64 38 
73 38 64 42 
74 42 64 43 
2 57 2 1
75 13 36 51 
2 58 2 5
76 37 65 36 
77 36 65 51 
78 40 65 37 
79 41 65 40 
80 51 65 41 
2 59 2 2
81 38 42 37 
82 42 40 37 
2 60 2 2
83 13 51 20 
84 51 41 20 
2 61 2 2
85 43 34 50 
86 50 44 43 
2 62 2 2
87 44 53 45 
88 52 45 53 
2 63 2 4
89 47 33 46 
90 52 33 47 
91 49 33 53 
92 53 33 52 
2 64 2 1
93 45 52 47 
2 65 2 3
94 48 49 44 
95 48 44 50 
96 49 53 44 
2 66 2 5
97 4 12 66 
98 32 4 66 
99 12 11 66 
100 11 31 66 
101 31 32 66 
2 67 2 2
102 10 46 11 
103 46 31 11 
2 68 2 8
104 4 45 6 
105 45 4 32 
106 39 6 67 
107 6 45 67 
108 42 39 67 
109 43 42 67 
110 44 43 67 
111 45 44 67 
2 69 2 7
112 6 19 18 
113 6 68 19 
114 39 68 6 
115 19 68 14 
116 40 41 14 
117 14 68 40 
118 40 68 39 
2 70 2 7
119 7 69 10 
120 49 69 7 
121 46 10 47 
122 10 69 47 
123 47 69 52 
124 53 69 49 
125 52 69 53 
2 71 2 1
126 14 41 51 
2 72 2 1
127 7 48 49 
2 73 2 2
128 34 50 7 
129 50 48 7 
2 74 2 1
130 7 35 34 
2 75 2 3
131 35 7 38 
132 7 36 37 
133 7 37 38 
2 76 2 2
134 14 36 7 
135 51 36 14 
2 77 2 12
136 8 15 70 
137 16 8 70 
138 13 16 71 
139 29 17 13 
140 29 13 71 
141 15 54 70 
142 16 70 72 
143 71 16 72 
144 30 29 72 
145 29 71 72 
146 54 30 72 
147 70 54 72 
2 78 2 12
148 15 9 75 
149 9 33 73 
150 9 73 75 
151 54 15 75 
152 33 56 22 
153 33 22 73 
154 22 55 74 
155 73 22 74 
156 31 56 33 
157 55 54 74 
158 74 54 75 
159 73 74 75 
2 79 2 7
160 26 76 24 
161 24 76 55 
162 25 76 26 
163 57 54 25 
164 54 76 25 
165 57 30 54 
166 55 76 54 
2 80 2 4
167 17 27 20 
168 28 27 17 
169 17 29 28 
170 20 27 41 
2 81 2 2
171 46 56 31 
172 46 47 56 
2 82 2 2
173 56 52 22 
174 47 52 56 
2 83 2 4
175 27 23 36 
176 36 23 37 
177 27 36 51 
178 27 51 41 
2 84 2 1
179 23 38 37 
2 85 2 2
180 35 23 34 
181 35 38 23 
2 86 2 8
182 22 78 23 
183 53 78 22 
184 23 77 50 
185 23 78 77 
186 48 77 49 
187 50 77 48 
188 49 78 53 
189 77 78 49 
2 87 2 1
190 22 52 53 
2 88 2 1
191 23 50 34 
2 89 2 1
192 29 30 58 
2 90 2 11
193 5 79 3 
194 3 79 55 
195 58 80 5 
196 5 80 79 
197 24 79 26 
198 55 79 24 
199 26 79 25 
200 25 80 57 
201 79 80 25 
202 57 80 30 
203 30 80 58 
2 91 2 13
204 18 82 5 
205 5 83 58 
206 82 83 5 
207 14 82 19 
208 41 81 14 
209 81 83 14 
210 14 83 82 
211 19 82 18 
212 28 81 27 
213 27 81 41 
214 29 81 28 
215 58 83 29 
216 29 83 81 
2 92 2 9
217 12 3 84 
218 3 55 84 
219 11 12 85 
220 31 11 85 
221 12 84 85 
222 55 22 84 
223 22 56 84 
224 56 31 85 
225 84 56 85 
3 1 4 61
226 42 38 63 64 
227 63 38 35 64 
228 63 35 34 64 
229 48 61 8 63 
230 37 65 16 36 
231 63 2 1 16 
232 8 34 50 63 
233 50 48 8 63 
234 1 45 62 32 
235 63 48 61 49 
236 48 49 9 61 
237 8 34 63 16 
238 48 9 8 61 
239 1 8 61 63 
240 49 33 9 61 
241 63 35 16 34 
242 34 43 63 64 
243 1 8 63 16 
244 65 51 13 36 
245 45 47 52 62 
246 63 38 16 35 
247 20 41 51 65 
248 13 20 51 65 
249 65 13 2 16 
250 13 65 36 16 
251 50 44 63 43 
252 63 48 49 44 
253 42 43 64 63 
254 32 46 47 62 
255 45 47 62 32 
256 46 32 31 62 
257 44 50 63 48 
258 52 45 62 53 
259 2 40 41 65 
260 20 13 2 65 
261 34 43 50 63 
262 41 20 2 65 
263 40 42 2 39 
264 52 62 33 53 
265 1 8 9 61 
266 17 13 2 20 
267 9 8 1 15 
268 33 62 52 47 
269 33 62 46 31 
270 33 62 47 46 
271 2 16 40 65 
272 37 40 16 65 
273 49 53 63 44 
274 45 63 53 44 
275 45 53 63 62 
276 2 42 16 63 
277 2 16 42 40 
278 37 42 16 40 
279 16 38 42 37 
280 16 42 38 63 
281 63 62 1 45 
282 1 62 63 61 
283 33 53 61 49 
284 33 61 53 62 
285 63 61 53 49 
286 63 53 61 62 
3 2 4 63
287 18 67 7 19 
288 42 7 38 64 
289 40 7 37 42 
290 68 42 39 67 
291 68 39 6 67 
292 10 7 44 69 
293 40 7 42 68 
294 7 40 65 68 
295 40 41 65 14 
296 40 7 65 37 
297 6 4 21 45 
298 67 6 21 45 
299 68 19 7 67 
300 10 44 45 69 
301 10 44 21 45 
302 45 21 67 44 
303 10 46 66 11 
304 7 14 19 68 
305 7 65 14 68 
306 46 66 31 32 
307 67 7 64 43 
308 21 4 10 45 
309 44 53 69 49 
310 10 69 45 66 
311 18 67 21 7 
312 51 14 36 65 
313 18 67 19 6 
314 65 7 14 36 
315 32 46 66 47 
316 7 10 44 21 
317 41 51 65 14 
318 44 53 45 69 
319 37 65 36 7 
320 43 34 7 64 
321 43 42 64 67 
322 14 65 40 68 
323 69 49 7 44 
324 52 45 53 69 
325 66 45 10 32 
326 47 45 66 32 
327 10 66 47 69 
328 37 42 7 38 
329 50 43 7 44 
330 66 10 47 46 
331 6 19 68 67 
332 49 48 7 44 
333 67 18 21 6 
334 44 50 48 7 
335 66 10 4 32 
336 66 46 31 11 
337 34 43 7 50 
338 45 4 10 32 
339 12 11 10 66 
340 10 4 12 66 
341 39 40 42 68 
342 35 7 64 38 
343 34 7 64 35 
344 47 69 45 52 
345 47 45 69 66 
346 67 44 7 43 
347 7 44 67 21 
348 7 42 67 64 
349 7 67 42 68 
3 3 4 77
350 72 29 28 71 
351 36 27 71 23 
352 25 57 72 54 
353 28 72 71 23 
354 30 28 72 29 
355 49 48 9 77 
356 15 54 75 70 
357 78 9 77 49 
358 48 9 77 8 
359 9 33 78 73 
360 27 23 28 71 
361 78 70 9 73 
362 8 48 50 77 
363 74 23 24 22 
364 70 76 75 74 
365 28 72 23 57 
366 33 49 9 78 
367 70 75 9 73 
368 33 49 78 53 
369 28 30 72 57 
370 36 51 13 71 
371 75 54 76 70 
372 76 54 75 74 
373 72 26 70 23 
374 23 25 57 72 
375 72 25 26 23 
376 33 78 73 22 
377 27 36 71 51 
378 71 28 13 29 
379 52 22 33 56 
380 16 36 13 71 
381 28 17 13 29 
382 53 22 33 52 
383 22 53 33 78 
384 34 35 16 23 
385 22 74 55 24 
386 27 13 51 71 
387 71 72 16 23 
388 35 38 16 23 
389 16 72 70 23 
390 76 54 74 55 
391 55 74 76 24 
392 16 38 37 23 
393 47 52 33 56 
394 27 28 13 71 
395 51 20 13 27 
396 28 13 17 27 
397 56 33 46 31 
398 20 17 13 27 
399 46 47 33 56 
400 51 41 20 27 
401 30 54 72 57 
402 26 72 76 25 
403 26 76 72 70 
404 54 76 72 25 
405 54 72 76 70 
406 70 73 74 75 
407 24 76 70 74 
408 70 76 24 26 
409 70 23 24 74 
410 24 23 70 26 
411 34 23 8 50 
412 77 8 23 50 
413 23 36 16 71 
414 23 16 36 37 
415 70 15 9 75 
416 70 9 15 8 
417 73 22 70 74 
418 73 70 22 78 
419 23 70 22 74 
420 23 22 70 78 
421 23 8 16 34 
422 23 16 8 70 
423 8 23 9 77 
424 8 9 23 70 
425 78 9 23 77 
426 78 23 9 70 
3 4 4 91
427 18 7 82 19 
428 59 78 77 69 
429 7 83 60 82 
430 23 77 7 59 
431 7 83 23 60 
432 59 7 23 60 
433 23 27 81 36 
434 60 83 5 82 
435 59 77 7 69 
436 84 78 59 69 
437 79 23 83 60 
438 23 79 59 60 
439 5 3 79 59 
440 59 85 84 69 
441 58 83 5 80 
442 79 83 5 60 
443 59 79 5 60 
444 81 36 83 23 
445 10 7 69 59 
446 81 80 29 28 
447 27 23 81 28 
448 10 85 59 69 
449 49 77 78 69 
450 29 80 30 28 
451 46 10 85 11 
452 7 14 82 19 
453 7 18 82 21 
454 80 83 5 79 
455 81 80 28 23 
456 14 51 36 81 
457 83 80 23 79 
458 80 81 29 83 
459 82 60 7 21 
460 83 36 37 23 
461 83 7 14 82 
462 41 51 14 81 
463 81 80 23 83 
464 60 59 7 21 
465 84 79 3 59 
466 7 36 83 14 
467 49 7 77 69 
468 47 10 69 85 
469 10 7 59 21 
470 5 60 82 18 
471 24 23 26 79 
472 79 55 22 84 
473 80 28 23 57 
474 3 84 59 12 
475 23 22 79 24 
476 7 37 23 83 
477 36 7 83 37 
478 14 36 83 81 
479 82 21 18 60 
480 36 27 81 51 
481 79 3 55 84 
482 10 46 85 47 
483 28 80 30 57 
484 37 7 23 38 
485 25 23 57 80 
486 10 85 11 12 
487 25 26 23 79 
488 77 48 7 49 
489 38 35 7 23 
490 80 29 58 83 
491 50 23 77 7 
492 29 80 58 30 
493 24 55 22 79 
494 23 80 25 79 
495 50 23 7 34 
496 50 48 7 77 
497 35 34 7 23 
498 85 47 46 56 
499 69 78 49 53 
500 56 46 85 31 
501 11 85 46 31 
502 41 51 81 27 
503 78 23 59 77 
504 59 23 84 79 
505 59 84 23 78 
506 22 84 23 79 
507 22 23 84 78 
508 59 85 12 84 
509 59 12 85 10 
510 52 22 69 53 
511 78 22 69 84 
512 78 69 22 53 
513 47 69 56 85 
514 47 56 69 52 
515 84 56 69 85 
516 56 69 22 84 
517 56 22 69 52 
$EndElements
