$MeshFormat
4.1 0 8
$EndMeshFormat
$PhysicalNames
69
2 2 "East_0001"
2 3 "South_0001"
2 4 "North_0001"
2 5 "Base_0001"
2 6 "Top_0001"
2 18 "Divider_0056"
2 20 "Divider_0055"
2 21 "Divider_0054"
2 23 "Divider_0053"
2 24 "Divider_0052"
2 26 "Divider_0051"
2 27 "Divider_0050"
2 28 "Divider_0049"
2 29 "Divider_0048"
2 32 "Divider_0047"
2 33 "Divider_0046"
2 34 "Divider_0045"
2 35 "Divider_0044"
2 36 "Divider_0043"
2 37 "Divider_0042"
2 38 "Divider_0041"
2 41 "Divider_0040"
2 42 "Divider_0039"
2 43 "Divider_0038"
2 44 "Divider_0037"
2 45 "Divider_0036"
2 46 "Divider_0035"
2 47 "fault_0023"
2 48 "fault_0022"
2 49 "fault_0021"
2 50 "fault_0020"
2 51 "fault_0019"
2 52 "fault_0018"
2 53 "fault_0017"
2 54 "fault_0016"
2 55 "fault_0015"
2 57 "fault_0014"
2 61 "fault_0013"
2 62 "West_0007"
2 63 "West_0006"
2 64 "Divider_0034"
2 65 "Divider_0033"
2 66 "Divider_0032"
2 67 "Divider_0031"
2 68 "Divider_0030"
2 69 "Divider_0029"
2 70 "Divider_0028"
2 71 "Divider_0027"
2 72 "Divider_0026"
2 73 "Divider_0025"
2 74 "Divider_0024"
2 75 "Divider_0023"
2 76 "Divider_0022"
2 77 "Divider_0021"
2 78 "fault_0012"
2 79 "fault_0011"
2 80 "fault_0010"
2 81 "fault_0009"
2 82 "fault_0008"
2 83 "fault_0007"
2 84 "fault_0006"
2 85 "fault_0005"
2 86 "West_0005"
2 87 "West_0004"
2 88 "West_0003"
2 89 "West_0002"
2 90 "Divider_0020"
2 91 "Divider_0019"
3 1 "bottom_0001"
$EndPhysicalNames
$Entities
75 144 68 1
1 0 0 0 0 
2 0 0 -100 0 
3 0 100 0 0 
4 0 100 -100 0 
5 100 0 0 0 
6 100 0 -100 0 
7 100 100 0 0 
8 100 100 -100 0 
9 25.53963584169973 3.552713678800501e-15 -50 0 
10 48.26351928710938 59.84807586669922 -50 0 
11 11.82139718347315 0 -50 0 
12 7.705539226531982 1.925281047821045 -50 0 
13 23.47062301635742 -5.449175834655762 -50 0 
14 54.37443219910041 0 -50 0 
16 8.045018283996571 0 -50 0 
17 9.442021369934082 -7.922796726226807 -50 0 
18 0 45.62556665732251 -50 0 
19 0 51.33791688667603 -50 0 
20 -0.9768694043159485 51.16566848754883 -50 0 
21 107.9227981567383 9.442021369934082 -50 0 
22 103.5989608764648 33.9637336730957 -50 0 
23 100 8.045018136811937 -50 0 
24 100 28.82388556094349 -50 0 
25 83.40108489990234 5.118181228637695 -50 0 
26 100 31.30323716621976 -50 0 
27 100 35.64722497979068 -50 0 
28 100 54.37444378021747 -50 0 
29 97.50390625 68.53048706054688 -50 0 
30 0 87.70655320728949 -50 0 
31 -7.071920394897461 85.732421875 -50 0 
32 0 82.4243785035798 -50 0 
33 41.31759262084961 99.24038696289062 -50 0 
34 0 91.9549784234628 -50 0 
35 -3.097238063812256 91.40885162353516 -50 0 
36 83.58777550800598 100 -50 0 
37 91.95497949083475 100 -50 0 
38 90.55797576904297 107.9227981567383 -50 0 
39 76.37819452125888 100 -50 0 
40 80.70989990234375 106.1863174438477 -50 0 
41 45.62556982489424 100 -50 0 
42 -7.922796726226807 90.55797576904297 -50 0 
44 30.3038444519043 46.52703475952148 -50 0 
45 71.26144409179688 17.84821510314941 2.122266460334067e-15 0 
46 88.22663879394531 5.969057559967041 2.122266460334067e-15 0 
47 30.3038444519043 46.52703475952148 2.397226907539969e-15 0 
48 66.46039581298828 21.20994567871094 2.397226907539969e-15 0 
49 88.22663879394531 5.969057559967041 -59.38932037353516 0 
50 88.22663879394531 5.969057559967041 -100 0 
51 54.96032333374023 29.26238441467285 -100 0 
52 52.07009124755859 31.28614616394043 -100 0 
53 30.3038444519043 46.52703475952148 -100 0 
55 17.24410057067871 55.67156982421875 2.397226907539969e-15 0 
57 5.647369861602783 63.79168701171875 9.665730130344052e-16 0 
59 8.609914779663086 61.71729278564453 -100 0 
60 0 67.74601769366357 4.832865065172026e-16 0 
61 0 67.74601769366357 -6.894165518278488 0 
62 0 67.74601769366357 -27.96502153043944 0 
63 0 67.74601780174724 -39.74406158537609 0 
64 -2.224763941798719e-16 67.746017176301 -50 0 
65 0 67.746017176301 -86.99417047955416 0 
66 0 67.74601834724523 -95.00695363049512 0 
67 0 67.74601834724524 -100 0 
68 36.09612463476758 42.47123651534923 -50 0 
69 40.49591397724483 39.390470853712 -50 0 
70 53.47296353749223 30.30384293527973 -50 0 
71 58.68240737915039 0.7596123218536377 -50 0 
72 18.71928518852714 54.6386312833841 -50 0 
73 76.67301471243158 14.05899222891909 -50 0 
74 85.38842481280571 7.956396383000426 -50 0 
75 -4.449832916259766 70.86182403564453 -50 0 
76 -4.449832916259766 70.86182403564453 -12.32640838623047 0 
77 -4.449832916259766 70.86182403564453 9.665730130344052e-16 0 
78 -4.449832916259766 70.86182403564453 -92.42641448974609 0 
79 -4.449832916259766 70.86182403564453 -100 0 
80 88.22663879394531 5.969057559967041 -50 0 
1 -1e-07 -1e-07 -100.0000001 1e-07 1e-07 1.000000011686097e-07 0 2 2 -1 
2 -1e-07 -1.000000011686097e-07 -1e-07 1e-07 100.0000001 1e-07 0 2 1 -3 
3 -1e-07 99.99999990000001 -100.0000001 1e-07 100.0000001 1.000000011686097e-07 0 2 4 -3 
4 -1e-07 -1.000000011686097e-07 -100.0000001 1e-07 100.0000001 -99.99999990000001 0 2 2 -4 
5 99.99999990000001 -1e-07 -100.0000001 100.0000001 1e-07 1.000000011686097e-07 0 2 6 -5 
6 99.99999990000001 -1.000000011686097e-07 -1e-07 100.0000001 100.0000001 1e-07 0 2 5 -7 
7 99.99999990000001 99.99999990000001 -100.0000001 100.0000001 100.0000001 1.000000011686097e-07 0 2 8 -7 
8 99.99999990000001 -1.000000011686097e-07 -100.0000001 100.0000001 100.0000001 -99.99999990000001 0 2 6 -8 
9 -1.000000011686097e-07 -1e-07 -100.0000001 100.0000001 1e-07 -99.99999990000001 0 2 2 -6 
10 -1.000000011686097e-07 -1e-07 -1e-07 100.0000001 1e-07 1e-07 0 2 1 -5 
11 -1.000000011686097e-07 99.99999990000001 -100.0000001 100.0000001 100.0000001 -99.99999990000001 0 2 4 -8 
12 -1.000000011686097e-07 99.99999990000001 -1e-07 100.0000001 100.0000001 1e-07 0 2 3 -7 
14 11.82139703347315 -1.5e-07 -50.00000015 25.53963599169974 1.5e-07 -49.99999985 0 2 11 -9 
15 7.705539126531979 -1.000000025008774e-07 -50.0000001 11.82139728347315 1.925281147821047 -49.9999999 0 2 12 -11 
17 23.47062291635741 -5.449175934655776 -50.00000010000002 25.53963594169975 1.000000175999105e-07 -49.99999989999998 0 2 13 -9 
18 11.82139708347314 -5.449175934655765 -50.0000001 23.47062311635742 1.000000025008774e-07 -49.9999999 0 2 11 -13 
19 25.53963569169973 -1.5e-07 -50.00000015 54.37443234910041 1.5e-07 -49.99999985 0 2 9 -14 
20 23.47062291635742 -5.449175934655762 -50.0000001 54.37443229910041 1.000000007245205e-07 -49.9999999 0 2 13 -14 
23 8.045018133996571 -1.5e-07 -50.00000014999998 11.82139733347315 1.5e-07 -49.99999984999999 0 2 16 -11 
24 7.705539126531982 -9.999999994736442e-08 -50.0000001 8.04501838399657 1.925281147821045 -49.9999999 0 2 12 -16 
25 9.442021269934083 -7.922796826226807 -50.0000001 23.47062311635742 -5.449175734655761 -49.9999999 0 2 17 -13 
26 8.045018183996572 -7.922796826226807 -50.0000001 9.442021469934081 9.999999983634211e-08 -49.9999999 0 2 16 -17 
28 -1.5e-07 45.62556650732251 -50.00000015000001 1.5e-07 51.33791703667602 -49.99999985000002 0 2 19 -18 
30 -0.9768695043159484 45.62556655732251 -50.0000001 1.000000005579871e-07 51.16566858754883 -49.9999999 0 2 20 -18 
31 -0.9768695043159557 51.16566838754882 -50.00000010000001 1.000000000583867e-07 51.33791698667603 -49.99999989999999 0 2 19 -20 
32 103.5989607764648 9.442021269934083 -50.0000001 107.9227982567383 33.9637337730957 -49.9999999 0 2 21 -22 
33 99.99999990000001 8.045018036811937 -50.0000001 107.9227982567383 9.442021469934081 -49.9999999 0 2 23 -21 
34 99.99999984999999 8.045017986811937 -50.00000015000001 100.00000015 28.8238857109435 -49.99999985000002 0 2 24 -23 
35 99.99999989999999 28.82388546094349 -50.00000010000001 103.5989609764649 33.96373377309571 -49.99999989999999 0 2 22 -24 
36 83.40108479990235 5.118181128637695 -50.0000001 100.0000001 8.045018236811936 -49.9999999 0 2 25 -23 
37 83.40108479990234 5.118181128637691 -50.0000001 100.0000001 28.8238856609435 -49.9999999 0 2 24 -25 
38 99.99999989999999 31.30323706621975 -50.00000010000001 103.5989609764649 33.96373377309571 -49.99999989999999 0 2 26 -22 
39 99.99999984999999 31.30323701621976 -50.00000015 100.00000015 35.64722512979068 -49.99999985 0 2 27 -26 
40 99.99999989999999 33.96373357309569 -50.00000010000002 103.5989609764649 35.64722507979069 -49.99999989999998 0 2 22 -27 
42 48.26351918710936 35.64722487979066 -50.00000010000002 100.0000001 59.84807596669923 -49.99999989999998 0 2 27 -10 
43 99.99999984999999 28.82388541094349 -50.00000015 100.00000015 31.30323731621976 -49.99999985 0 2 26 -24 
45 99.99999984999999 35.64722482979068 -50.00000015 100.00000015 54.37444393021747 -49.99999985 0 2 28 -27 
46 99.99999990000001 33.9637335730957 -50.0000001 103.5989609764648 54.37444388021746 -49.9999999 0 2 22 -28 
47 48.26351918710936 59.8480757666992 -50.00000010000002 97.50390635000001 68.53048716054688 -49.99999989999998 0 2 29 -10 
48 97.50390615000001 54.37444368021746 -50.0000001 100.0000001 68.53048716054687 -49.9999999 0 2 28 -29 
49 -7.071920494897475 85.73242177499999 -50.00000010000002 1.000000073858587e-07 87.7065533072895 -49.99999989999998 0 2 30 -31 
50 -1.5e-07 82.4243783535798 -50.00000015 1.5e-07 87.70655335728949 -49.99999985 0 2 30 -32 
51 -7.071920494897477 82.42437840357978 -50.00000010000002 1.000000153794645e-07 85.73242197500002 -49.99999989999998 0 2 31 -32 
52 -1.000000224848918e-07 87.70655310728948 -50.00000010000002 41.31759272084962 99.24038706289063 -49.99999989999998 0 2 33 -30 
53 41.31759252084959 59.8480757666992 -50.00000010000002 48.26351938710939 99.24038706289063 -49.99999989999998 0 2 10 -33 
54 -1.000000082740371e-07 59.84807576669921 -50.00000010000001 48.26351938710938 82.42437860357981 -49.99999989999999 0 2 32 -10 
55 -1.5e-07 87.70655305728948 -50.00000015000001 1.5e-07 91.95497857346281 -49.99999985000001 0 2 34 -30 
56 -1.000000082740371e-07 91.95497832346281 -50.0000001 41.31759272084961 99.24038706289062 -49.9999999 0 2 33 -34 
57 -7.071920494897462 85.73242177500001 -50.0000001 -3.097237963812255 91.40885172353515 -49.9999999 0 2 35 -31 
58 -3.097238163812256 91.40885152353516 -50.0000001 9.999999295295936e-08 91.9549785234628 -49.9999999 0 2 34 -35 
61 48.26351918710935 59.8480757666992 -50.00000010000002 83.587775608006 100.0000001 -49.99999989999998 0 2 36 -10 
62 83.58777535800597 99.99999984999999 -50.00000015 91.95497964083475 100.00000015 -49.99999985 0 2 36 -37 
63 91.95497939083475 68.53048696054688 -50.0000001 97.50390634999999 100.0000001 -49.9999999 0 2 29 -37 
64 83.58777540800595 99.99999989999998 -50.00000010000002 90.55797586904299 107.9227982567383 -49.99999989999998 0 2 38 -36 
65 90.55797566904297 99.99999990000001 -50.0000001 91.95497959083474 107.9227982567383 -49.9999999 0 2 37 -38 
66 76.37819437125887 99.99999984999999 -50.00000014999999 83.58777565800598 100.00000015 -49.99999984999999 0 2 39 -36 
67 76.37819442125887 99.99999989999999 -50.00000010000002 80.70990000234376 106.1863175438477 -49.99999989999998 0 2 40 -39 
68 80.70989980234376 106.1863173438477 -50.0000001 90.55797586904296 107.9227982567383 -49.9999999 0 2 38 -40 
69 48.26351918710937 59.84807576669921 -50.00000010000001 76.37819462125888 100.0000001 -49.99999989999999 0 2 39 -10 
70 45.62556967489424 99.99999984999999 -50.00000015000001 76.37819467125888 100.00000015 -49.99999985000001 0 2 41 -39 
71 45.62556972489423 99.99999990000001 -50.0000001 80.70990000234374 106.1863175438477 -49.9999999 0 2 40 -41 
72 41.31759252084961 99.24038686289063 -50.0000001 45.62556992489423 100.0000001 -49.9999999 0 2 41 -33 
73 -7.922796826226807 90.55797566904297 -50.0000001 -3.097237963812256 91.40885172353515 -49.9999999 0 2 35 -42 
74 -7.922796826226807 85.73242177500001 -50.0000001 -7.071920294897461 90.55797586904296 -49.9999999 0 2 42 -31 
78 71.26144399179687 5.969057459967039 -1e-07 88.22663889394532 17.84821520314942 1.000000042445329e-07 0 2 45 -46 
81 30.3038443519043 46.52703465952148 -50.0000001 30.3038445519043 46.52703485952149 1.000000011686097e-07 0 2 44 -47 
82 30.3038443519043 21.20994557871094 -1e-07 66.46039591298829 46.52703485952149 1.000000047944538e-07 0 2 47 -48 
83 30.30384435190429 21.20994557871093 -50.00000010000001 66.46039591298829 46.52703485952149 1.000000118267508e-07 0 2 48 -44 
85 66.46039571298827 17.84821500314941 -1.000000002520471e-07 71.26144419179688 21.20994577871094 1.000000047715404e-07 0 2 48 -45 
87 88.22663869394532 5.969057459967041 -100.0000001 88.22663889394531 5.969057659967041 -59.38932027353516 0 2 49 -50 
88 54.96032323374023 5.96905745996704 -100.0000001 88.22663889394531 29.26238451467285 -99.99999990000001 0 2 50 -51 
89 54.96032323374022 5.969057459967024 -100.0000001 88.22663889394533 29.26238451467287 -59.38932027353514 0 2 51 -49 
93 30.3038443519043 31.28614606394043 -100.0000001 52.07009134755859 46.52703485952149 -99.99999990000001 0 2 52 -53 
99 52.07009114755859 29.26238431467285 -100.0000001 54.96032343374024 31.28614626394043 -99.99999990000001 0 2 51 -52 
105 17.24410047067871 46.52703465952148 -1e-07 30.3038445519043 55.67156992421875 1.000000047944538e-07 0 2 55 -47 
111 5.647369761602781 55.67156972421875 -1.000000013114327e-07 17.24410067067871 63.79168711171875 1.000000046752327e-07 0 2 57 -55 
118 8.609914679663087 46.52703465952148 -100.0000001 30.3038445519043 61.71729288564453 -99.99999990000001 0 2 53 -59 
119 -1e-07 -1.000000011686097e-07 -1e-07 1e-07 67.74601779366357 1e-07 0 2 1 -60 
120 -1.499999999444888e-07 67.74601754366358 -6.894165668278484 1.500000000555111e-07 67.74601784366359 1.499999999765578e-07 0 2 61 -60 
121 -1.499999998889777e-07 67.74601754366358 -27.96502168043945 1.500000001110223e-07 67.74601784366359 -6.894165368278484 0 2 62 -61 
122 -1.500000008881784e-07 67.74601754366361 -39.74406173537609 1.499999991118216e-07 67.74601795174729 -27.96502138043944 0 2 63 -62 
123 -1.5e-07 67.746017026301 -50.00000015 1.5e-07 67.74601795174726 -39.74406143537609 0 2 64 -63 
124 -1.500000013322676e-07 67.74601702630102 -86.99417062955416 1.499999986677324e-07 67.74601732630103 -49.99999985 0 2 65 -64 
125 -1.500000035527137e-07 67.746017026301 -95.00695378049512 1.499999964472863e-07 67.74601849724525 -86.99417032955415 0 2 66 -65 
126 -1.500000000555111e-07 67.74601819724521 -100.00000015 1.499999999444888e-07 67.74601849724522 -95.00695348049511 0 2 67 -66 
127 -1e-07 -1.000000011686097e-07 -100.0000001 1e-07 67.74601844724523 -99.99999990000001 0 2 2 -67 
128 -1.5e-07 51.33791673667603 -50.00000015000001 1.5e-07 67.746017326301 -49.99999985000001 0 2 64 -19 
129 -1e-07 67.74601759366358 -1e-07 1e-07 100.0000001 1e-07 0 2 60 -3 
130 -1e-07 67.74601824724525 -100.0000001 1e-07 100.0000001 -99.99999990000001 0 2 67 -4 
131 -1.5e-07 67.74601702630099 -50.00000015000001 1.5e-07 82.42437865357981 -49.99999985000001 0 2 32 -64 
132 7.705539126531967 1.92528094782103 -50.00000010000002 36.09612473476759 42.47123661534925 -49.99999989999998 0 2 68 -12 
133 36.09612453476756 39.39047075371201 -50.00000010000001 40.49591407724483 42.47123661534925 -49.99999989999999 0 2 69 -68 
134 25.53963574169973 -1.000000047213234e-07 -50.00000010000001 40.49591407724483 39.390470953712 -49.99999989999999 0 2 9 -69 
135 36.09612453476756 42.47123641534922 -50.00000010000002 48.26351938710939 59.84807596669923 -49.99999989999998 0 2 10 -68 
136 40.49591387724482 39.39047075371199 -50.00000010000001 48.26351938710938 59.84807596669923 -49.99999989999999 0 2 69 -10 
137 40.4959138772448 30.30384283527971 -50.00000010000002 53.47296363749223 39.39047095371203 -49.99999989999998 0 2 70 -69 
138 53.47296343749221 0.7596122218536259 -50.00000010000002 58.68240747915041 30.30384303527975 -49.99999989999998 0 2 71 -70 
139 54.37443209910041 -9.999999911469715e-08 -50.0000001 58.68240747915039 0.7596124218536376 -49.9999999 0 2 14 -71 
140 48.26351918710936 30.30384283527972 -50.00000010000002 53.47296363749224 59.84807596669923 -49.99999989999998 0 2 70 -10 
141 30.30384435190428 42.47123641534922 -50.00000010000002 36.09612473476759 46.5270348595215 -49.99999989999998 0 2 68 -44 
142 18.71928508852712 46.52703465952147 -50.00000010000002 30.30384455190431 54.63863138338412 -49.99999989999998 0 2 44 -72 
143 18.71928508852713 54.63863118338408 -50.00000010000001 48.26351938710938 59.84807596669923 -49.99999989999999 0 2 10 -72 
144 -9.99999993922529e-08 1.925280947821044 -50.0000001 7.705539326531983 45.62556675732251 -49.9999999 0 2 18 -12 
145 -1.000000136031076e-07 51.33791678667602 -50.00000010000001 18.71928528852715 54.6386313833841 -49.99999989999999 0 2 72 -19 
146 76.67301461243157 14.05899212891907 -50.00000010000002 100.0000001 31.30323726621978 -49.99999989999998 0 2 73 -26 
147 53.47296343749218 14.05899212891906 -50.00000010000003 76.6730148124316 30.30384303527976 -49.99999989999997 0 2 73 -70 
148 58.68240727915038 0.7596122218536232 -50.00000010000002 76.67301481243159 14.0589923289191 -49.99999989999998 0 2 71 -73 
149 76.67301461243156 7.956396283000408 -50.00000010000002 85.38842491280573 14.05899232891911 -49.99999989999998 0 2 74 -73 
150 83.40108479990234 5.118181128637691 -50.0000001 85.38842491280572 7.956396483000431 -49.9999999 0 2 74 -25 
151 58.68240727915039 0.7596122218536379 -50.0000001 83.40108499990234 5.118181328637696 -49.9999999 0 2 71 -25 
152 85.3884247128057 7.956396283000423 -50.0000001 100.0000001 28.8238856609435 -49.9999999 0 2 24 -74 
153 -4.449833016259773 67.74601707630099 -50.00000010000001 1.000000069417695e-07 70.86182413564454 -49.99999989999999 0 2 64 -75 
154 -7.071920494897461 70.86182393988388 -50.0000001 -4.449832792217271 85.73242197499999 -49.9999999 0 2 31 -75 
155 -4.449832992217272 51.16566838754883 -50.0000001 -0.9768693043159486 70.86182413988386 -49.9999999 0 2 75 -20 
156 -1.000000064976803e-07 54.63863118338409 -50.00000010000001 18.71928528852715 67.746017276301 -49.99999989999999 0 2 72 -64 
157 17.24410047067871 46.52703465952148 -50.00000010000001 30.3038445519043 55.67156992421876 1.000000082740371e-07 0 2 55 -44 
158 -1.000000153794645e-07 55.67156972421873 -39.74406168537611 17.24410067067873 67.74601790174725 1.000000153794645e-07 0 2 63 -55 
159 -4.449833016259782 67.74601770174722 -50.00000010000002 1.000000158235537e-07 70.86182413564455 -39.74406148537608 0 2 75 -63 
160 -4.449833016259768 67.74601759366357 -50.0000001 1.000000033890558e-07 70.86182413564454 -27.96502143043944 0 2 62 -75 
161 -4.449833016259769 67.74601759366357 -12.32640848623047 1.000000042772342e-07 70.86182413564454 -6.894165418278483 0 2 76 -61 
162 -4.449833016259766 70.86182393564454 -50.0000001 -4.449832816259765 70.86182413564453 -12.32640828623047 0 2 75 -76 
163 -1.0000001227084e-07 63.79168691171873 -27.96502163043946 5.647369961602798 67.74601779366358 1.000000153794645e-07 0 2 57 -62 
164 -1.000000025008774e-07 63.79168691171875 -6.894165618278489 5.647369961602786 67.74601779366358 1.000000051654126e-07 0 2 61 -57 
165 -4.449833016259766 67.74601759366358 -9.999999903342698e-08 1.000000025008774e-07 70.86182413564453 1.00000000966573e-07 0 2 77 -60 
166 -4.449833016259766 70.86182393564454 -12.32640848623047 -4.449832816259765 70.86182413564453 1.000000020567882e-07 0 2 76 -77 
167 -9.999999850407448e-08 63.79168691171875 -1e-07 5.647369961602784 67.74601779366357 1.00000001933146e-07 0 2 60 -57 
168 -4.449833016259773 67.74601824724522 -95.00695373049513 1.000000051654126e-07 70.86182413564454 -92.42641438974609 0 2 66 -78 
169 -4.449833016259786 67.74601707630099 -92.42641458974612 1.000000211526242e-07 70.86182413564455 -86.99417037955413 0 2 78 -65 
170 -1.000000064976803e-07 61.71729268564452 -100.0000001 8.609914879663092 67.74601844724523 -95.00695353049511 0 2 59 -66 
171 8.609914679663072 46.52703465952147 -100.0000001 30.30384455190431 61.71729288564455 -49.99999989999998 0 2 59 -44 
172 -1.000000136031076e-07 46.52703465952147 -86.99417057955417 30.30384455190431 67.74601727630102 -49.99999989999998 0 2 65 -44 
173 -1.000000020567882e-07 61.71729268564453 -100.0000001 8.609914879663085 67.74601844724523 -99.99999990000001 0 2 59 -67 
174 -4.449833016259766 70.86182393564454 -100.0000001 -4.449832816259765 70.86182413564453 -92.4264143897461 0 2 79 -78 
175 -4.449833016259766 67.74601824724525 -100.0000001 9.999999805998527e-08 70.86182413564453 -99.99999990000001 0 2 67 -79 
176 -4.449833016259766 70.86182393564454 -92.42641458974609 -4.449832816259765 70.86182413564453 -49.9999999 0 2 78 -75 
177 85.38842471280567 5.969057459967011 -50.00000010000003 88.22663889394535 7.956396483000457 -49.99999989999997 0 2 80 -74 
178 30.30384435190427 17.84821500314939 -50.00000010000002 71.2614441917969 46.52703485952151 1.000000224848918e-07 0 2 44 -45 
179 71.26144399179687 5.969057459967027 -50.00000010000002 88.22663889394532 17.84821520314943 1.000000153794645e-07 0 2 45 -80 
180 88.22663869394532 5.969057459967041 -50.0000001 88.22663889394531 5.969057659967041 1.000000011686097e-07 0 2 46 -80 
181 52.07009114755857 5.969057459967019 -100.0000001 88.22663889394533 31.28614626394045 -49.99999989999998 0 2 80 -52 
182 30.30384435190428 31.28614606394041 -100.0000001 52.07009134755861 46.5270348595215 -49.99999989999998 0 2 52 -44 
183 30.3038443519043 46.52703465952148 -100.0000001 30.3038445519043 46.52703485952149 -49.9999999 0 2 53 -44 
184 88.22663869394532 5.969057459967041 -59.38932047353516 88.22663889394531 5.969057659967041 -49.9999999 0 2 80 -49 
185 54.96032323374021 5.969057459967019 -100.0000001 88.22663889394533 29.26238451467287 -49.99999989999998 0 2 51 -80 
2 99.99999990000001 -1.000000011686097e-07 -100.0000001 100.0000001 100.0000001 1.000000011686097e-07 1 2 4 -5 8 7 -6 
3 -1.000000011686097e-07 -1e-07 -100.0000001 100.0000001 1e-07 1.000000011686097e-07 1 3 4 -9 1 10 -5 
4 -1.000000011686097e-07 99.99999990000001 -100.0000001 100.0000001 100.0000001 1.000000011686097e-07 1 4 4 -11 3 12 -7 
5 -1.000000011686097e-07 -1.000000011686097e-07 -100.0000001 100.0000001 100.0000001 -99.99999990000001 1 5 4 -4 9 8 -11 
6 -1.000000011686097e-07 -1.000000011686097e-07 -1e-07 100.0000001 100.0000001 1e-07 1 6 4 -2 10 6 -12 
18 -7.922796826226808 85.73242177500001 -50.0000001 -3.097237963812255 91.40885172353515 -49.9999999 1 18 3 -57 73 74 
20 11.82139703347315 -5.449175984655762 -50.00000015 25.53963599169974 1.500000035292715e-07 -49.99999985 1 20 3 17 -14 18 
21 23.47062286635742 -5.449175984655762 -50.00000015 54.37443234910041 1.500000035292715e-07 -49.99999985 1 21 3 -17 20 -19 
23 7.705539076531982 -1.499999999765578e-07 -50.00000015 11.82139733347315 1.925281197821045 -49.99999984999999 1 23 3 -15 24 23 
24 8.045018133996571 -7.922796876226807 -50.00000015 23.47062316635742 1.499999999765578e-07 -49.99999984999999 1 24 4 -23 26 25 -18 
26 -0.9768695543159485 45.62556650732251 -50.00000015000001 1.500000005316693e-07 51.33791703667602 -49.99999985 1 26 3 -28 31 30 
27 99.99999984999999 8.045017986811937 -50.00000015000001 107.9227983067383 33.9637338230957 -49.99999985 1 27 4 32 35 34 33 
28 83.40108474990234 5.118181078637695 -50.00000015000001 100.00000015 28.8238857109435 -49.99999985 1 28 3 -34 37 36 
29 99.99999984999999 31.30323701621976 -50.00000015 103.5989610264648 35.64722512979068 -49.99999985 1 29 3 38 40 39 
32 99.99999984999999 28.82388541094349 -50.00000015 103.5989610264648 33.9637338230957 -49.99999985 1 32 3 -38 43 -35 
33 99.99999984999999 33.9637335230957 -50.00000015 103.5989610264648 54.37444393021747 -49.99999985 1 33 3 -40 46 45 
34 48.26351913710938 35.64722482979067 -50.00000015 100.00000015 68.53048721054688 -49.99999985 1 34 4 -45 48 47 -42 
35 -7.071920544897461 82.4243783535798 -50.00000015 1.499999999765578e-07 87.70655335728949 -49.99999985 1 35 3 49 51 -50 
36 -1.50000008858342e-07 59.84807571669922 -50.00000015 48.26351943710937 99.24038711289063 -49.99999985 1 36 4 50 54 53 52 
37 -1.50000008858342e-07 87.70655305728948 -50.00000015000001 41.31759277084961 99.24038711289063 -49.99999985 1 37 3 -52 56 55 
38 -7.071920544897461 85.73242172499999 -50.00000015000001 1.499999999765578e-07 91.95497857346281 -49.99999985 1 38 4 -55 58 57 -49 
41 48.26351913710938 59.84807571669922 -50.00000015 97.50390640000001 100.00000015 -49.99999985 1 41 4 -47 63 -62 61 
42 83.58777535800597 99.99999984999999 -50.00000015 91.95497964083475 107.9227983067383 -49.99999985 1 42 3 62 65 64 
43 76.37819437125887 99.99999984999999 -50.00000015 90.55797591904297 107.9227983067383 -49.99999984999999 1 43 4 -64 68 67 66 
44 48.26351913710938 59.84807571669922 -50.00000015 83.58777565800598 100.00000015 -49.99999984999999 1 44 3 -61 -66 69 
45 45.62556967489423 99.99999984999999 -50.00000015000001 80.70990005234376 106.1863175938477 -49.99999985 1 45 3 70 -67 71 
46 41.31759247084961 59.84807571669922 -50.00000015000001 76.37819467125888 100.00000015 -49.99999985 1 46 4 -69 -70 72 -53 
47 30.30384435190427 5.969057459967011 -50.00000010000003 88.22663889394535 46.52703485952151 1.000000331430329e-07 1 47 8 177 149 147 137 133 141 178 179 
48 71.26144399179687 5.969057459967027 -50.00000010000002 88.22663889394532 17.84821520314943 1.000000153794645e-07 1 48 3 78 180 -179 
49 30.30384435190429 21.20994557871093 -50.00000010000001 66.46039591298829 46.52703485952149 1.000000118267508e-07 1 49 3 81 82 83 
50 30.30384435190427 17.84821500314939 -50.00000010000002 71.2614441917969 46.52703485952151 1.000000224848918e-07 1 50 3 -83 85 -178 
51 54.96032323374022 5.969057459967024 -100.0000001 88.22663889394533 29.26238451467287 -59.38932027353514 1 51 3 87 88 89 
52 30.30384435190427 5.969057459967011 -100.0000001 88.22663889394535 46.52703485952151 -49.99999989999997 1 52 8 -141 -133 -137 -147 -149 -177 181 182 
53 30.30384435190428 31.28614606394041 -100.0000001 52.07009134755861 46.5270348595215 -49.99999989999998 1 53 3 93 183 -182 
54 54.96032323374021 5.969057459967019 -100.0000001 88.22663889394533 29.26238451467287 -49.99999989999998 1 54 3 184 -89 185 
55 52.07009114755857 5.969057459967019 -100.0000001 88.22663889394533 31.28614626394045 -49.99999989999998 1 55 3 99 -181 -185 
57 17.24410047067871 46.52703465952148 -50.00000010000001 30.3038445519043 55.67156992421876 1.000000082740371e-07 1 57 3 105 -81 -157 
61 8.609914679663072 46.52703465952147 -100.0000001 30.30384455190431 61.71729288564455 -49.99999989999998 1 61 3 -183 118 171 
62 -1.500000035527137e-07 -1.499999982002009e-07 -100.00000015 1.500000001110223e-07 67.74601849724525 1.499999982002009e-07 1 62 10 -119 -1 127 126 125 124 123 122 121 120 
63 -1.500000035527137e-07 67.74601702630099 -100.00000015 1.500000001110223e-07 100.00000015 1.499999982002009e-07 1 63 10 -129 -120 -121 -122 -123 -124 -125 -126 130 3 
64 7.705539076531984 -1.500000017529146e-07 -50.00000015 40.49591412724482 42.47123666534924 -49.99999985 1 64 5 14 134 133 132 15 
65 36.09612453476755 39.39047075371198 -50.00000010000002 48.26351938710939 59.84807596669923 -49.99999989999998 1 65 3 -133 136 135 
66 25.53963569169973 -1.500000017529146e-07 -50.00000015 58.68240752915039 39.39047100371202 -49.99999985 1 66 5 -134 19 139 138 137 
67 40.4959138772448 30.30384283527971 -50.00000010000002 53.47296363749224 59.84807596669923 -49.99999989999998 1 67 3 -136 -137 140 
68 18.71928508852712 42.47123641534922 -50.00000010000002 48.26351938710939 59.84807596669923 -49.99999989999998 1 68 4 -135 143 -142 -141 
69 -1.50000008858342e-07 1.925280897821047 -50.00000015000001 36.09612478476758 54.6386314333841 -49.99999985 1 69 6 -132 141 142 145 28 144 
70 48.26351913710938 14.05899207891908 -50.00000015 100.00000015 59.84807601669922 -49.99999985 1 70 5 -39 42 -140 -147 146 
71 53.47296343749218 0.7596122218536081 -50.00000010000003 76.6730148124316 30.30384303527977 -49.99999989999997 1 71 3 148 147 -138 
72 58.68240727915038 0.7596122218536188 -50.00000010000002 85.38842491280573 14.05899232891911 -49.99999989999998 1 72 4 -148 151 -150 149 
73 76.67301456243158 7.956396233000426 -50.00000015 100.00000015 31.30323731621976 -49.99999985 1 73 4 -146 -149 -152 -43 
74 -7.071920544897461 67.74601702630099 -50.00000015000001 1.499999999765578e-07 85.73242202500001 -49.99999985 1 74 4 -51 154 -153 -131 
75 -4.449833066259766 51.16566833754883 -50.00000015000001 1.499999999765578e-07 70.86182418988388 -49.99999985 1 75 4 153 155 -31 -128 
76 -1.500000017529146e-07 54.6386311333841 -50.00000015000001 48.26351943710937 82.42437865357981 -49.99999985 1 76 4 -54 131 -156 -143 
77 -1.500000070819851e-07 51.33791673667603 -50.00000015000001 18.71928533852714 67.746017326301 -49.99999985 1 77 3 156 128 -145 
78 -1.500000017529146e-07 46.52703460952149 -50.00000015 30.3038446019043 67.74601795174726 1.500000017529146e-07 1 78 5 157 142 156 123 158 
79 -4.449833066259766 67.74601702630099 -50.00000015 1.499999999765578e-07 70.86182418564454 -39.74406143537609 1 79 3 -123 153 159 
80 -4.449833066259766 67.74601754366357 -50.00000015 1.500000017529146e-07 70.86182418564454 -6.894165368278486 1 80 4 160 162 161 -121 
81 -1.499999999765578e-07 63.79168686171875 -27.96502168043945 5.647370011602783 67.74601784366359 1.500000017529146e-07 1 81 3 163 121 164 
82 -1.500000017529146e-07 55.67156967421875 -39.74406173537609 17.24410072067871 67.74601795174729 1.500000017529146e-07 1 82 4 -163 111 -158 122 
83 -4.449833066259766 67.74601754366357 -50.00000015 1.500000017529146e-07 70.86182418564454 -27.96502138043944 1 83 3 -160 -122 -159 
84 -4.449833066259766 67.74601754366357 -12.32640853623047 1.50000002641093e-07 70.86182418564454 1.500000017529146e-07 1 84 4 -161 166 165 -120 
85 -1.499999999765578e-07 63.79168686171875 -6.894165668278486 5.647370011602783 67.74601784366359 1.500000017529146e-07 1 85 3 -164 120 167 
86 -4.449833066259767 67.746017026301 -95.00695378049512 1.500000008647362e-07 70.86182418564454 -86.99417032955415 1 86 3 168 169 -125 
87 -1.500000035292715e-07 46.52703460952149 -100.00000015 30.3038446019043 67.74601849724525 -49.99999985 1 87 4 125 172 -171 170 
88 -1.500000017529146e-07 61.71729263564453 -100.00000015 8.609914929663086 67.74601849724525 -95.00695348049511 1 88 3 -170 173 126 
89 -4.449833066259767 67.74601819724521 -100.00000015 1.499999999765578e-07 70.86182418564454 -92.42641433974609 1 89 4 -126 175 174 -168 
90 -4.449833066259766 67.74601702630099 -92.4264146397461 1.500000008647362e-07 70.86182418564454 -49.99999985 1 90 4 -124 -169 176 -153 
91 -1.500000017529146e-07 46.52703460952149 -86.99417062955416 30.3038446019043 67.74601732630103 -49.99999985 1 91 4 -172 124 -156 -142 
1 -1.500000053056283e-07 -1.499999982002009e-07 -100.00000015 100.00000015 100.00000015 1.500000053056283e-07 1 1 7 -62 6 -63 -5 -3 2 4 
$EndEntities
