$MeshFormat
4.1 0 8
$EndMeshFormat
$PhysicalNames
21
1 1 "entity_1_28_rot30"
1 2 "entity_1_31_rot30"
1 3 "entity_1_34_rot30"
1 4 "entity_1_18_rot30"
1 5 "entity_1_21_rot30"
1 6 "entity_1_24_rot30"
1 7 "entity_1_30_rot30"
1 8 "entity_1_27_rot30"
1 9 "entity_1_33_rot30"
1 10 "entity_1_36_rot30"
1 11 "entity_1_20_rot30"
1 12 "entity_1_17_rot30"
1 13 "entity_1_23_rot30"
1 14 "entity_1_26_rot30"
1 15 "entity_1_32_rot30"
1 16 "entity_1_29_rot30"
1 17 "entity_1_35_rot30"
1 18 "entity_1_19_rot30"
1 19 "entity_1_25_rot30"
1 20 "entity_1_22_rot30"
2 21 "FaultA_rot30"
$EndPhysicalNames
$Entities
20 24 8 1
9 0.5 0 0 0 
10 0.51 0 0 0 
11 0.51 1 0 0 
12 0.5 1 0 0 
13 0.3169872981077806 -0.1830127018922193 1 0 
14 0.3169872981077806 -0.1830127018922193 0 0 
15 -0.1830127018922194 0.6830127018922194 1 0 
16 -0.1830127018922194 0.6830127018922194 0 0 
17 1.183012701892219 0.3169872981077806 1 0 
18 1.183012701892219 0.3169872981077806 0 0 
19 0.6830127018922194 1.183012701892219 1 0 
20 0.6830127018922194 1.183012701892219 0 0 
21 0.75 0.06698729810778067 0 0 
22 0.7586602540378443 0.07198729810778065 0 0 
23 0.2586602540378444 0.9380127018922194 0 0 
24 0.25 0.9330127018922193 0 0 
25 0.5 0 0 0 
26 0.51 0 0 0 
27 0.51 1 0 0 
28 0.5 1 0 0 
13 0.4999999 -1e-07 -1e-07 0.5100001 1e-07 1e-07 0 2 9 -10 
14 0.5099999000000001 -9.999999994736442e-08 -1e-07 0.5100001 1.0000001 1e-07 0 2 10 -11 
15 0.4999999 0.9999999000000001 -1e-07 0.5100001 1.0000001 1e-07 0 2 11 -12 
16 0.4999999 -9.999999994736442e-08 -1e-07 0.5000000999999999 1.0000001 1e-07 0 2 12 -9 
17 0.3169871981077806 -0.1830128018922193 -9.999999994736442e-08 0.3169873981077806 -0.1830126018922193 1.0000001 1 12 2 14 -13 
18 -0.1830128018922193 -0.1830128018922193 0.9999999000000001 0.3169873981077805 0.6830128018922194 1.0000001 1 4 2 13 -15 
19 -0.1830128018922194 0.6830126018922195 -9.999999994736442e-08 -0.1830126018922194 0.6830128018922194 1.0000001 1 18 2 16 -15 
20 -0.1830128018922193 -0.1830128018922193 -1e-07 0.3169873981077805 0.6830128018922194 1e-07 1 11 2 14 -16 
21 1.183012601892219 0.3169871981077806 -9.999999994736442e-08 1.183012801892219 0.3169873981077806 1.0000001 1 5 2 18 -17 
22 0.6830126018922192 0.3169871981077806 0.9999999000000001 1.183012801892219 1.183012801892219 1.0000001 1 20 2 17 -19 
23 0.6830126018922195 1.183012601892219 -9.999999994736442e-08 0.6830128018922194 1.183012801892219 1.0000001 1 13 2 20 -19 
24 0.6830126018922192 0.3169871981077806 -1e-07 1.183012801892219 1.183012801892219 1e-07 1 6 2 18 -20 
25 0.3169871981077806 -0.1830128018922193 -1e-07 1.183012801892219 0.3169873981077806 1e-07 1 19 2 14 -18 
26 0.3169871981077806 -0.1830128018922193 0.9999999000000001 1.183012801892219 0.3169873981077806 1.0000001 1 14 2 13 -17 
27 -0.1830128018922194 0.6830126018922195 -1e-07 0.6830128018922194 1.183012801892219 1e-07 1 8 2 16 -20 
28 -0.1830128018922194 0.6830126018922195 0.9999999000000001 0.6830128018922194 1.183012801892219 1.0000001 1 1 2 15 -19 
29 0.7499999000000001 0.06698719810778067 -1e-07 0.7586603540378444 0.07198739810778068 1e-07 1 16 2 21 -22 
30 0.2586601540378444 0.07198719810778065 -1e-07 0.7586603540378443 0.9380128018922193 1e-07 1 7 2 22 -23 
31 0.2499999 0.9330126018922195 -1e-07 0.2586603540378444 0.9380128018922194 1e-07 1 2 2 23 -24 
32 0.2499999 0.06698719810778059 -1e-07 0.7500000999999999 0.9330128018922192 1e-07 1 15 2 24 -21 
33 0.4999999 -1e-07 -1e-07 0.5100001 1e-07 1e-07 1 9 2 25 -26 
34 0.5099999000000001 -9.999999994736442e-08 -1e-07 0.5100001 1.0000001 1e-07 1 3 2 26 -27 
35 0.4999999 0.9999999000000001 -1e-07 0.5100001 1.0000001 1e-07 1 17 2 27 -28 
36 0.4999999 -9.999999994736442e-08 -1e-07 0.5000000999999999 1.0000001 1e-07 1 10 2 28 -25 
7 0.4999999 -9.999999994736442e-08 -1e-07 0.5100001 1.0000001 1e-07 0 4 13 14 15 16 
8 0.2499998999999999 0.06698719810778059 -1e-07 0.7586603540378444 0.9380128018922194 1e-07 0 4 29 30 31 32 
9 -0.1830128018922193 -0.1830128018922193 -9.999999994736442e-08 0.3169873981077805 0.6830128018922194 1.0000001 1 24 4 -17 20 19 -18 
10 0.6830126018922192 0.3169871981077806 -9.999999994736442e-08 1.183012801892219 1.183012801892219 1.0000001 1 22 4 -21 24 23 -22 
11 0.3169871981077806 -0.1830128018922193 -9.999999994736442e-08 1.183012801892219 0.3169873981077806 1.0000001 1 26 4 -25 17 26 -21 
12 -0.1830128018922194 0.6830126018922195 -9.999999994736442e-08 0.6830128018922194 1.183012801892219 1.0000001 1 25 4 -27 19 28 -23 
13 -0.1830128018922193 -0.1830128018922194 -1e-07 1.183012801892219 1.183012801892219 1e-07 1 23 4 -20 25 24 -27 
14 -0.1830128018922193 -0.1830128018922194 0.9999999000000001 1.183012801892219 1.183012801892219 1.0000001 1 21 4 -18 26 22 -28 
1 -0.1830128018922193 -0.1830128018922194 -9.999999994736442e-08 1.183012801892219 1.183012801892219 1.0000001 0 6 -9 10 -11 12 -13 14 
$EndEntities
