$MeshFormat
4.1 0 8
$EndMeshFormat
$PhysicalNames
60
2 9 "Divider_0029"
2 14 "Divider_0028"
2 15 "Divider_0027"
2 16 "Divider_0026"
2 18 "Divider_0025"
2 19 "Divider_0024"
2 20 "Divider_0023"
2 21 "Divider_0022"
2 24 "North_0003"
2 25 "East_0003"
2 28 "North_0002"
2 29 "East_0002"
2 30 "fault_0018"
2 31 "fault_0017"
2 32 "fault_0016"
2 33 "fault_0015"
2 34 "fault_0014"
2 35 "fault_0013"
2 36 "fault_0012"
2 37 "fault_0011"
2 38 "fault_0010"
2 39 "fault_0009"
2 40 "fault_0008"
2 41 "fault_0007"
2 42 "fault_0006"
2 43 "fault_0005"
2 44 "fault_0004"
2 45 "fault_0003"
2 46 "fault_0002"
2 47 "fault_0001"
2 48 "West_0007"
2 49 "South_0007"
2 50 "Divider_0021"
2 51 "Divider_0020"
2 52 "Base_0003"
2 53 "Divider_0019"
2 54 "Divider_0018"
2 55 "Divider_0017"
2 56 "Divider_0016"
2 57 "Divider_0015"
2 58 "West_0006"
2 59 "Divider_0014"
2 60 "Base_0002"
2 61 "Divider_0013"
2 62 "South_0006"
2 63 "Divider_0012"
2 64 "Divider_0011"
2 65 "Divider_0010"
2 66 "Divider_0009"
2 67 "Divider_0008"
2 68 "West_0005"
2 69 "South_0005"
2 70 "Top_0003"
2 71 "West_0004"
2 72 "Top_0002"
2 73 "South_0004"
3 1 "bottom_0001"
3 2 "bottom_0002"
3 3 "top_0003"
3 4 "top_0004"
$EndPhysicalNames
$Entities
75 100 56 4
3 0 100 0 0 
4 0 100 -100 0 
5 100 0 0 0 
6 100 0 -100 0 
7 100 100 0 0 
8 100 100 -100 0 
9 -35.09999847412109 -25.09999847412109 -50 0 
10 50 -25.09999847412109 -50 0 
11 50 60 -50 0 
12 -2.517801200548671e-16 -25.09999847412109 -50 0 
13 -2.517801200548671e-16 10 -50 0 
15 14.24501514434814 -3.465025439968947e-16 -50 0 
17 -35.09999847412109 60 -50 0 
19 135.1000061035156 -25.09999847412109 -50 0 
20 135.1000061035156 60 -50 0 
21 100 -25.09999847412109 -50 0 
22 100 24.89999771118164 -50 0 
23 100 2.206801195502994e-15 -50 0 
26 50 145.1000061035156 -50 0 
27 -2.517801200548671e-16 95.09999847412109 -50 0 
28 50 100 -50 0 
30 -35.09999847412109 145.1000061035156 -50 0 
31 -2.517801200548671e-16 145.1000061035156 -50 0 
33 135.1000061035156 145.1000061035156 -50 0 
34 100 110 -50 0 
37 100 145.1000061035156 -50 0 
38 -2.517801200548671e-16 -3.465025439968947e-16 -50 0 
40 -2.517801200548671e-16 100 -50 0 
42 100 100 -50 0 
43 90 100 -50 0 
44 4.90000057220459 100 -50 0 
45 100 60 -50 0 
46 86.63925170898438 -6.639251708984375 30.09999847412109 0 
47 86.63925170898438 -6.639251708984375 -50 0 
48 30 50 -50 0 
50 80 -2.95898254629081e-16 20.71067810058594 0 
53 30 50 30.09999847412109 0 
54 80 -2.95898254629081e-16 30.09999847412109 0 
55 30 50 2.397226907539969e-15 0 
56 61.21098709106445 18.78901290893555 2.397226907539969e-15 0 
57 86.63925170898438 -6.639251708984375 -130.1000061035156 0 
58 30 50 -130.1000061035156 0 
59 80 -2.95898254629081e-16 -130.1000061035156 0 
60 80 -2.95898254629081e-16 -59.38932037353516 0 
61 51.28391647338867 28.71608352661133 -100 0 
62 80 -2.95898254629081e-16 -100 0 
65 -26.63925170898438 106.6392517089844 -50 0 
66 1.368720539468224e-16 80 -50 0 
67 1.368720539468224e-16 80 -12.32640838623047 0 
69 8.716087341308594 71.28391265869141 9.665730130344052e-16 0 
70 -26.63925170898438 106.6392517089844 30.09999847412109 0 
71 1.368720539468224e-16 80 30.09999847412109 0 
73 -26.63925170898438 106.6392517089844 -130.1000061035156 0 
74 1.368720539468224e-16 80 -130.1000061035156 0 
75 0 0 -100 0 
76 -2.517801200548671e-16 60 -50 0 
77 1.368720539468224e-16 80 -92.42641448974609 0 
78 1.368720539468224e-16 80 -100 0 
79 80 -2.95898254629081e-16 -50 0 
80 75.09999847412109 2.206801195502994e-15 -50 0 
81 50 1.587463409964858e-15 -50 0 
82 20 60 -50 0 
83 34.99999999999999 45.00000000000001 -50 0 
84 11.27340984344482 68.72659301757812 -100 0 
85 30 50 -100 0 
86 48.78901672363281 31.21098327636719 -100 0 
87 77.54999942473145 2.450000575268549 -50 0 
88 70.02670288167536 9.973297118324631 -50 0 
89 38.79797696917245 41.20202303082755 -50 0 
90 50 30 -50 0 
91 0 0 0 0 
92 1.368720539468224e-16 80 9.665730130344052e-16 0 
93 80 -2.95898254629081e-16 2.122266460334067e-15 0 
94 18.72659301757812 61.27340698242188 2.397226907539969e-15 0 
95 65.35533905029297 14.64466094970703 2.122266460334067e-15 0 
6 99.99999990000001 -1.000000011686097e-07 -1e-07 100.0000001 100.0000001 1e-07 0 2 5 -7 
8 99.99999990000001 -1.000000011686097e-07 -100.0000001 100.0000001 100.0000001 -99.99999990000001 0 2 6 -8 
11 -1.000000011686097e-07 99.99999990000001 -100.0000001 100.0000001 100.0000001 -99.99999990000001 0 2 4 -8 
12 -1.000000011686097e-07 99.99999990000001 -1e-07 100.0000001 100.0000001 1e-07 0 2 3 -7 
14 -1.000000029449666e-07 -1.000000020567882e-07 -50.0000001 14.24501524434815 10.0000001 -49.9999999 0 2 13 -15 
27 99.99999990000001 -9.999999761589606e-08 -50.0000001 100.0000001 24.89999781118164 -49.9999999 0 2 23 -22 
37 -1.000000153794645e-07 59.99999989999998 -50.00000010000002 50.00000010000002 95.0999985741211 -49.99999989999998 0 2 27 -11 
38 49.9999999 59.9999999 -50.0000001 50.0000001 100.0000001 -49.9999999 0 2 11 -28 
39 -1.000000047213234e-07 95.09999837412109 -50.0000001 50.0000001 100.0000001 -49.9999999 0 2 28 -27 
41 -1.000000005035602e-07 -1.000000002804313e-07 -50.0000001 1e-07 10.0000001 -49.9999999 0 2 13 -38 
44 -1.000000005035602e-07 95.0999983741211 -50.0000001 1e-07 100.0000001 -49.9999999 0 2 40 -27 
45 -1e-07 99.99999990000001 -100.0000001 1e-07 100.0000001 -49.9999999 0 2 4 -40 
46 99.99999990000001 -1e-07 -100.0000001 100.0000001 1e-07 -49.9999999 0 2 6 -23 
49 -1.000000002804313e-07 -1.000000006930051e-07 -50.0000001 14.24501524434815 1e-07 -49.9999999 0 2 38 -15 
50 99.99999990000001 99.99999990000001 -100.0000001 100.0000001 100.0000001 -49.9999999 0 2 8 -42 
51 89.99999990000001 99.99999990000001 -50.0000001 100.0000001 100.0000001 -49.9999999 0 2 42 -43 
52 49.9999999 99.99999990000001 -50.0000001 90.00000009999999 100.0000001 -49.9999999 0 2 43 -28 
53 4.900000472204589 99.99999990000001 -50.0000001 50.0000001 100.0000001 -49.9999999 0 2 28 -44 
54 -9.999999983634211e-08 99.99999990000001 -50.0000001 4.90000067220459 100.0000001 -49.9999999 0 2 44 -40 
55 99.99999990000001 24.89999761118164 -50.0000001 100.0000001 60.0000001 -49.9999999 0 2 22 -45 
56 99.99999990000001 59.9999999 -50.0000001 100.0000001 100.0000001 -49.9999999 0 2 45 -42 
58 -1e-07 99.99999990000001 -50.0000001 1e-07 100.0000001 1.000000011686097e-07 0 2 40 -3 
59 99.99999990000001 -1e-07 -50.0000001 100.0000001 1e-07 1.000000011686097e-07 0 2 23 -5 
60 99.99999990000001 99.99999990000001 -50.0000001 100.0000001 100.0000001 1.000000011686097e-07 0 2 42 -7 
63 49.99999989999999 24.89999761118163 -50.00000010000001 100.0000001 60.00000010000001 -49.99999989999999 0 2 22 -11 
65 49.9999999 59.9999999 -50.0000001 100.0000001 60.0000001 -49.9999999 0 2 45 -11 
66 -1.000000025008774e-07 95.09999837412109 -50.0000001 4.900000672204593 100.0000001 -49.9999999 0 2 44 -27 
67 49.99999989999998 59.99999989999998 -50.00000010000002 100.0000001 100.0000001 -49.99999989999998 0 2 42 -11 
68 49.99999989999998 59.99999989999998 -50.00000010000002 90.00000010000002 100.0000001 -49.99999989999998 0 2 43 -11 
75 29.9999999 49.9999999 -50.0000001 30.0000001 50.0000001 1.000000011686097e-07 0 2 48 -55 
76 29.9999999 18.78901280893554 -1e-07 61.21098719106445 50.0000001 1.000000047944538e-07 0 2 55 -56 
77 29.99999989999999 18.78901280893554 -50.00000010000002 61.21098719106447 50.00000010000002 1.000000153794645e-07 0 2 56 -48 
81 79.99999990000001 -1.000000005917965e-07 -100.0000001 80.00000009999999 1e-07 -59.38932027353516 0 2 60 -62 
82 51.28391637338867 -1.000000011686097e-07 -100.0000001 80.00000009999999 28.71608362661133 -99.99999990000001 0 2 62 -61 
83 51.28391637338866 -1.000000153794645e-07 -100.0000001 80.00000010000002 28.71608362661134 -59.38932027353514 0 2 61 -60 
102 -1e-07 79.99999990000001 -50.0000001 1.000000002737441e-07 80.00000009999999 -12.32640828623047 0 2 66 -67 
103 -1.000000029449666e-07 71.2839125586914 -12.32640848623047 8.716087441308597 80.00000010000001 1.000000047213234e-07 0 2 67 -69 
104 -1.000000224848918e-07 71.28391255869138 -50.00000010000002 8.716087441308616 80.00000010000002 1.000000224848918e-07 0 2 69 -66 
105 -1e-07 -1e-07 -100.0000001 1e-07 1e-07 -49.9999999 0 2 75 -38 
106 -1.000000005035602e-07 9.999999899999999 -50.0000001 1e-07 60.0000001 -49.9999999 0 2 76 -13 
107 -1.000000005035602e-07 59.9999999 -50.0000001 1e-07 80.00000009999999 -49.9999999 0 2 66 -76 
108 -1e-07 79.99999990000001 -92.42641458974609 1.000000002737441e-07 80.00000009999999 -49.9999999 0 2 77 -66 
109 -1e-07 79.99999990000001 -100.0000001 1.000000002737441e-07 80.00000009999999 -92.4264143897461 0 2 78 -77 
110 -1e-07 -1.000000011686097e-07 -100.0000001 1e-07 80.00000009999999 -99.99999990000001 0 2 75 -78 
111 79.99999990000001 -1.000000005917965e-07 -59.38932047353516 80.00000009999999 1e-07 -49.9999999 0 2 79 -60 
112 75.09999837412109 -1e-07 -50.0000001 80.00000010000001 1.000000044136024e-07 -49.9999999 0 2 80 -79 
113 49.9999999 -1.000000005677263e-07 -50.0000001 75.0999985741211 1.000000043619909e-07 -49.9999999 0 2 81 -80 
114 14.24501504434814 -1.000000017728021e-07 -50.0000001 50.0000001 1.00000003013763e-07 -49.9999999 0 2 15 -81 
115 -1.000000011686097e-07 -1e-07 -100.0000001 80.00000009999999 1e-07 -99.99999990000001 0 2 75 -62 
116 19.99999989999999 49.99999989999999 -50.00000010000001 30.00000010000001 60.00000010000001 -49.99999989999999 0 2 48 -82 
117 29.9999999 44.9999999 -50.0000001 35.0000001 50.0000001 -49.9999999 0 2 83 -48 
118 -1.000000082740371e-07 9.999999899999992 -50.00000010000001 35.00000010000001 45.00000010000001 -49.99999989999999 0 2 83 -13 
119 -9.99999993922529e-08 59.9999999 -50.0000001 20.0000001 60.0000001 -49.9999999 0 2 82 -76 
120 -1.000000082740371e-07 59.99999989999999 -50.00000010000001 20.00000010000001 80.00000010000001 -49.99999989999999 0 2 82 -66 
121 -1.000000002804313e-07 68.72659291757813 -100.0000001 11.27340994344482 80.00000009999999 -99.99999990000001 0 2 84 -78 
122 11.27340974344482 49.9999999 -100.0000001 30.0000001 68.72659311757812 -99.99999990000001 0 2 85 -84 
123 29.9999999 31.21098317636719 -100.0000001 48.78901682363281 50.0000001 -99.99999990000001 0 2 86 -85 
124 48.78901662363281 28.71608342661133 -100.0000001 51.28391657338867 31.21098337636719 -99.99999990000001 0 2 61 -86 
125 77.54999932473143 -1.000000204864904e-07 -50.00000010000002 80.00000010000002 2.450000675268568 -49.99999989999998 0 2 79 -87 
126 75.09999837412107 -1.0000001227084e-07 -50.00000010000002 77.54999952473148 2.450000675268559 -49.99999989999998 0 2 87 -80 
127 49.99999989999998 -1.000000127149292e-07 -50.00000010000002 70.02670298167537 9.973297218324642 -49.99999989999998 0 2 81 -88 
128 70.02670278167534 2.450000475268527 -50.00000010000002 77.54999952473148 9.973297218324653 -49.99999989999998 0 2 87 -88 
129 14.24501504434813 -1.000000118267508e-07 -50.00000010000001 38.79797706917245 41.20202313082756 -49.99999989999999 0 2 15 -89 
130 38.79797686917244 29.99999989999998 -50.00000010000001 50.00000010000002 41.20202313082756 -49.99999989999999 0 2 90 -89 
131 49.9999999 -9.99999993922529e-08 -50.0000001 50.0000001 30.0000001 -49.9999999 0 2 81 -90 
132 34.9999999 41.20202293082755 -50.0000001 38.79797706917245 45.0000001 -49.9999999 0 2 89 -83 
133 49.9999999 9.973297018324622 -50.00000010000001 70.02670298167537 30.0000001 -49.99999989999999 0 2 88 -90 
134 -1.000000005035602e-07 79.99999990000001 -50.0000001 1e-07 95.09999857412109 -49.9999999 0 2 27 -66 
135 -1e-07 79.99999990000001 -100.0000001 1e-07 100.0000001 -99.99999990000001 0 2 78 -4 
136 19.9999999 59.9999999 -50.0000001 50.0000001 60.0000001 -49.9999999 0 2 11 -82 
137 79.99999990000001 -1e-07 -100.0000001 100.0000001 1e-07 -99.99999990000001 0 2 62 -6 
138 34.99999989999999 44.99999989999999 -50.00000010000001 50.00000010000001 60.00000010000001 -49.99999989999999 0 2 11 -83 
139 79.99999989999999 -1e-07 -50.0000001 100.0000001 1.000000044136024e-07 -49.9999999 0 2 79 -23 
140 38.79797686917244 41.20202293082755 -50.00000010000001 50.00000010000001 60.00000010000001 -49.99999989999999 0 2 89 -11 
141 77.54999932473143 2.450000475268528 -50.00000010000002 100.0000001 24.89999781118166 -49.99999989999998 0 2 22 -87 
142 49.9999999 29.9999999 -50.0000001 50.0000001 60.0000001 -49.9999999 0 2 90 -11 
143 70.02670278167535 9.973297018324615 -50.00000010000002 100.0000001 24.89999781118166 -49.99999989999998 0 2 88 -22 
144 -1e-07 -1e-07 -50.0000001 1e-07 1e-07 1.000000011686097e-07 0 2 38 -91 
145 -1e-07 -1.000000011686097e-07 -1e-07 1e-07 80.00000009999999 1e-07 0 2 91 -92 
146 -1e-07 79.99999990000001 -12.32640848623047 1.000000002737441e-07 80.00000009999999 1.000000020567882e-07 0 2 67 -92 
147 79.99999990000001 -1.000000005917965e-07 -50.0000001 80.00000009999999 1e-07 1.000000011686097e-07 0 2 93 -79 
148 -1.000000011686097e-07 -1e-07 -1e-07 80.00000009999999 1e-07 1e-07 0 2 91 -93 
149 -1.000000011686097e-07 71.28391255869141 -1e-07 8.716087441308595 80.00000009999999 1.00000001933146e-07 0 2 92 -69 
150 8.716087241308591 61.27340688242187 -1.000000013114327e-07 18.72659311757813 71.28391275869141 1.000000046752327e-07 0 2 69 -94 
151 18.72659291757812 49.9999999 -1e-07 30.0000001 61.27340708242188 1.000000047944538e-07 0 2 94 -55 
152 61.21098699106445 14.64466084970703 -1.000000002520471e-07 65.35533915029298 18.78901300893555 1.000000047715404e-07 0 2 56 -95 
153 65.35533895029296 -1.000000020567882e-07 -1e-07 80.00000010000001 14.64466104970703 1.000000042445329e-07 0 2 95 -93 
154 -1e-07 79.99999990000001 -1e-07 1e-07 100.0000001 1e-07 0 2 92 -3 
155 79.99999990000001 -1e-07 -1e-07 100.0000001 1e-07 1e-07 0 2 93 -5 
156 29.99999989999999 14.64466084970702 -50.00000010000002 65.35533915029298 50.00000010000002 1.000000189321781e-07 0 2 48 -95 
157 65.35533895029296 -1.00000003833145e-07 -50.00000010000001 80.00000010000001 14.64466104970704 1.000000082740371e-07 0 2 95 -79 
158 48.7890166236328 -1.000000171558213e-07 -100.0000001 80.00000010000002 31.2109833763672 -49.99999989999998 0 2 79 -86 
159 29.99999989999998 31.21098317636717 -100.0000001 48.78901682363283 50.00000010000002 -49.99999989999998 0 2 86 -48 
160 29.9999999 49.9999999 -100.0000001 30.0000001 50.0000001 -49.9999999 0 2 85 -48 
161 51.28391637338866 -1.00000020708535e-07 -100.0000001 80.00000010000002 28.71608362661134 -49.99999989999998 0 2 61 -79 
162 -1.000000136031076e-07 61.27340688242186 -50.00000010000002 18.72659311757814 80.00000010000001 1.000000153794645e-07 0 2 66 -94 
163 18.72659291757811 49.99999989999998 -50.00000010000002 30.00000010000002 61.27340708242189 1.000000189321781e-07 0 2 94 -48 
164 11.2734097434448 49.99999989999998 -100.0000001 30.00000010000002 68.72659311757815 -49.99999989999998 0 2 84 -48 
165 -1.000000153794645e-07 49.99999989999998 -92.42641458974612 30.00000010000002 80.00000010000002 -49.99999989999998 0 2 77 -48 
166 -1.000000056095018e-07 68.72659291757812 -100.0000001 11.27340994344483 80.00000010000001 -92.42641438974609 0 2 84 -77 
9 -1.000000029449666e-07 -1.000000029449666e-07 -50.0000001 14.24501524434815 10.0000001 -49.9999999 1 9 3 41 49 -14 
14 49.99999989999999 24.89999761118163 -50.00000010000001 100.0000001 60.00000010000001 -49.99999989999999 1 14 3 55 65 -63 
15 -1.000000153794645e-07 59.99999989999998 -50.00000010000002 50.00000010000002 100.0000001 -49.99999989999998 1 15 3 37 38 39 
16 -1.000000047213234e-07 95.09999837412109 -50.0000001 50.0000001 100.0000001 -49.9999999 1 16 3 53 66 -39 
18 -1.000000029449666e-07 95.09999837412109 -50.0000001 4.900000672204593 100.0000001 -49.9999999 1 18 3 -66 54 44 
19 49.99999989999998 59.99999989999998 -50.00000010000002 100.0000001 100.0000001 -49.99999989999998 1 19 3 -65 56 67 
20 49.99999989999998 59.99999989999998 -50.00000010000002 100.0000001 100.0000001 -49.99999989999998 1 20 3 51 68 -67 
21 49.99999989999998 59.99999989999998 -50.00000010000002 90.00000010000002 100.0000001 -49.99999989999998 1 21 3 -68 52 -38 
24 -1.000000011686097e-07 99.99999990000001 -100.0000001 100.0000001 100.0000001 -49.9999999 1 24 7 -50 -11 45 -54 -53 -52 -51 
25 99.99999990000001 -1.000000011686097e-07 -100.0000001 100.0000001 100.0000001 -49.9999999 1 25 6 -46 8 50 -56 -55 -27 
28 -1.000000011686097e-07 99.99999990000001 -50.0000001 100.0000001 100.0000001 1.000000011686097e-07 1 28 7 -60 51 52 53 54 58 12 
29 99.99999990000001 -1.000000011686097e-07 -50.0000001 100.0000001 100.0000001 1.000000011686097e-07 1 29 6 -59 27 55 56 60 -6 
30 29.99999989999998 -1.000000224848918e-07 -50.00000010000002 80.00000010000002 50.00000010000002 1.000000260376055e-07 1 30 8 125 128 133 130 132 117 156 157 
31 65.35533895029296 -1.000000056095018e-07 -50.00000010000001 80.00000010000001 14.64466104970704 1.000000082740371e-07 1 31 3 153 147 -157 
32 29.99999989999999 18.78901280893553 -50.00000010000002 61.21098719106447 50.00000010000002 1.000000153794645e-07 1 32 3 75 76 77 
33 29.99999989999999 14.64466084970702 -50.00000010000002 65.35533915029298 50.00000010000002 1.000000189321781e-07 1 33 3 -77 152 -156 
34 51.28391637338866 -1.000000153794645e-07 -100.0000001 80.00000010000002 28.71608362661135 -59.38932027353514 1 34 3 81 82 83 
35 29.99999989999998 -1.000000224848918e-07 -100.0000001 80.00000010000002 50.00000010000002 -49.99999989999998 1 35 8 -117 -132 -130 -133 -128 -125 158 159 
36 29.99999989999998 31.21098317636717 -100.0000001 48.78901682363283 50.00000010000002 -49.99999989999998 1 36 3 123 160 -159 
37 51.28391637338866 -1.00000020708535e-07 -100.0000001 80.00000010000002 28.71608362661134 -49.99999989999998 1 37 3 111 -83 161 
38 48.7890166236328 -1.00000020708535e-07 -100.0000001 80.00000010000002 31.2109833763672 -49.99999989999998 1 38 3 124 -158 -161 
39 -1.000000153794645e-07 49.99999989999998 -50.00000010000002 30.00000010000002 80.00000010000002 1.000000189321781e-07 1 39 4 116 120 162 163 
40 18.72659291757811 49.99999989999998 -50.00000010000002 30.00000010000002 61.27340708242189 1.000000189321781e-07 1 40 3 151 -75 -163 
41 -1.000000224848918e-07 71.28391255869138 -50.00000010000002 8.716087441308616 80.00000010000002 1.000000260376055e-07 1 41 3 102 103 104 
42 -1.000000224848918e-07 61.27340688242185 -50.00000010000002 18.72659311757815 80.00000010000002 1.000000260376055e-07 1 42 3 150 -162 -104 
43 -1.000000029449666e-07 71.2839125586914 -12.32640848623047 8.716087441308597 80.00000010000001 1.000000047213234e-07 1 43 3 146 149 -103 
44 11.2734097434448 49.99999989999998 -100.0000001 30.00000010000002 68.72659311757815 -49.99999989999998 1 44 3 -160 122 164 
45 -1.000000224848918e-07 49.99999989999998 -100.0000001 30.00000010000002 80.00000010000002 -49.99999989999998 1 45 3 165 -164 166 
46 -1.000000056095018e-07 68.72659291757812 -100.0000001 11.27340994344483 80.00000010000001 -92.42641438974609 1 46 3 121 109 -166 
47 -1.000000153794645e-07 49.99999989999998 -92.42641458974612 30.00000010000002 80.00000010000002 -49.99999989999998 1 47 4 -165 108 -120 -116 
48 -1.000000005035602e-07 -1.000000011686097e-07 -100.0000001 1.000000003886522e-07 80.00000009999999 -49.9999999 1 48 7 -105 110 109 108 107 106 41 
49 -1.000000011686097e-07 -1.000000025533037e-07 -100.0000001 80.00000010000001 1.000000044136024e-07 -49.9999999 1 49 8 81 -115 105 49 114 113 112 111 
50 -1.000000118267508e-07 9.999999899999992 -50.00000010000001 35.00000010000001 60.00000010000001 -49.99999989999999 1 50 5 116 119 106 -118 117 
51 -1.000000082740371e-07 59.99999989999999 -50.00000010000001 20.00000010000001 80.00000010000001 -49.99999989999999 1 51 3 120 107 -119 
52 -1.000000011686097e-07 -1.000000011686097e-07 -100.0000001 80.00000009999999 80.00000009999999 -99.99999990000001 1 52 7 -110 115 82 124 123 122 121 
53 75.09999837412107 -1.000000204864904e-07 -50.00000010000002 80.00000010000002 2.450000675268568 -49.99999989999998 1 53 3 125 126 112 
54 49.99999989999998 -1.000000189321781e-07 -50.00000010000002 77.54999952473148 9.973297218324653 -49.99999989999998 1 54 4 -127 113 -126 128 
55 14.24501504434814 -1.000000118267508e-07 -50.00000010000001 50.00000010000002 41.20202313082756 -49.99999989999999 1 55 4 -129 114 131 130 
56 -1.000000118267508e-07 -1.000000118267508e-07 -50.00000010000001 38.79797706917246 45.00000010000001 -49.99999989999999 1 56 4 132 118 14 129 
57 49.99999989999998 -1.000000136031076e-07 -50.00000010000002 70.02670298167537 30.00000010000002 -49.99999989999998 1 57 3 127 133 -131 
58 -1.000000005035602e-07 79.99999990000001 -100.0000001 1.000000003886522e-07 100.0000001 -49.9999999 1 58 6 -109 135 45 44 134 -108 
59 -1.000000153794645e-07 59.99999989999998 -50.00000010000002 50.00000010000002 95.0999985741211 -49.99999989999998 1 59 4 -37 134 -120 -136 
60 -1.000000011686097e-07 -1.000000011686097e-07 -100.0000001 100.0000001 100.0000001 -99.99999990000001 1 60 9 -135 -121 -122 -123 -124 -82 137 8 -11 
61 19.99999989999999 44.99999989999999 -50.00000010000001 50.00000010000001 60.00000010000001 -49.99999989999999 1 61 4 -138 136 -116 -117 
62 79.99999989999999 -1.000000025026994e-07 -100.0000001 100.0000001 1.000000044136024e-07 -49.9999999 1 62 5 -46 -137 -81 -111 139 
63 34.99999989999999 41.20202293082754 -50.00000010000001 50.00000010000001 60.00000010000001 -49.99999989999999 1 63 3 140 138 -132 
64 77.54999932473143 -1.00000020708535e-07 -50.00000010000002 100.0000001 24.89999781118166 -49.99999989999998 1 64 4 27 141 -125 139 
65 38.79797686917244 29.99999989999998 -50.00000010000001 50.00000010000002 60.00000010000001 -49.99999989999999 1 65 3 -140 -130 142 
66 49.99999989999998 9.973297018324615 -50.00000010000002 100.0000001 60.00000010000002 -49.99999989999998 1 66 4 143 63 -142 -133 
67 70.02670278167534 2.450000475268522 -50.00000010000002 100.0000001 24.89999781118166 -49.99999989999998 1 67 3 -143 -128 -141 
68 -1.000000005035602e-07 -1.000000011686097e-07 -50.0000001 1.000000003886522e-07 80.00000009999999 1.000000011686097e-07 1 68 7 -144 -41 -106 -107 102 146 -145 
69 -1.000000011686097e-07 -1.000000025533037e-07 -50.0000001 80.00000010000001 1.000000044136024e-07 1.000000047213234e-07 1 69 7 147 -112 -113 -114 -49 144 148 
70 -1.000000011686097e-07 -1.000000011686097e-07 -1.000000023972269e-07 80.00000010000001 80.00000010000001 1.000000047944538e-07 1 70 8 -145 148 -153 -152 -76 -151 -150 -149 
71 -1.000000005035602e-07 79.99999990000001 -50.0000001 1.000000003886522e-07 100.0000001 1.000000011686097e-07 1 71 6 -154 -146 -102 -134 -44 58 
72 -1.000000011686097e-07 -1.000000011686097e-07 -1.000000023972269e-07 100.0000001 100.0000001 1.000000047944538e-07 1 72 10 -154 149 150 151 76 152 153 155 6 -12 
73 79.99999989999999 -1.000000025026994e-07 -50.0000001 100.0000001 1.000000044136024e-07 1.000000047213234e-07 1 73 4 -59 -139 -147 155 
1 -1.000000224848918e-07 -1.000000224848918e-07 -100.0000001 80.00000010000002 80.00000010000002 -49.99999989999998 1 1 20 -48 -49 9 50 51 47 46 -52 34 37 53 54 55 56 35 45 44 36 38 57 
2 -1.000000224848918e-07 -1.000000224848918e-07 -100.0000001 100.0000001 100.0000001 -49.99999989999998 1 2 28 -58 -46 -47 59 18 24 -60 -45 61 15 16 25 20 21 -62 -34 -38 -36 -44 63 -35 64 14 19 -37 65 66 67 
3 -1.000000224848918e-07 -1.000000224848918e-07 -50.00000010000002 80.00000010000002 80.00000010000002 1.000000295903192e-07 1 3 20 -68 -69 70 43 41 -51 -50 -9 31 -55 -54 -53 42 40 32 33 39 30 -56 -57 
4 -1.000000224848918e-07 -1.000000224848918e-07 -50.00000010000002 100.0000001 100.0000001 1.000000295903192e-07 1 4 28 -71 72 28 -18 -59 -41 -43 29 -73 -31 -33 -32 -40 -42 -16 -21 -20 -15 -61 -39 -19 -14 -64 -30 -63 -66 -67 -65 
$EndEntities
$Nodes
162 265 1 265
0 3 0 1
1
0 100 0
0 4 0 1
2
0 100 -100
0 5 0 1
3
100 0 0
0 6 0 1
4
100 0 -100
0 7 0 1
5
100 100 0
0 8 0 1
6
100 100 -100
0 11 0 1
7
50 60 -50
0 13 0 1
8
-2.517801200548671e-16 10 -50
0 15 0 1
9
14.24501514434814 -3.465025439968947e-16 -50
0 22 0 1
10
100 24.89999771118164 -50
0 23 0 1
11
100 2.206801195502994e-15 -50
0 27 0 1
12
-2.517801200548671e-16 95.09999847412109 -50
0 28 0 1
13
50 100 -50
0 38 0 1
14
-2.517801200548671e-16 -3.465025439968947e-16 -50
0 40 0 1
15
-2.517801200548671e-16 100 -50
0 42 0 1
16
100 100 -50
0 43 0 1
17
90 100 -50
0 44 0 1
18
4.90000057220459 100 -50
0 45 0 1
19
100 60 -50
0 48 0 1
20
30 50 -50
0 55 0 1
21
30 50 2.397226907539969e-15
0 56 0 1
22
61.21098709106445 18.78901290893555 2.397226907539969e-15
0 60 0 1
23
80 -2.95898254629081e-16 -59.38932037353516
0 61 0 1
24
51.28391647338867 28.71608352661133 -100
0 62 0 1
25
80 -2.95898254629081e-16 -100
0 66 0 1
26
1.368720539468224e-16 80 -50
0 67 0 1
27
1.368720539468224e-16 80 -12.32640838623047
0 69 0 1
28
8.716087341308594 71.28391265869141 9.665730130344052e-16
0 75 0 1
29
0 0 -100
0 76 0 1
30
-2.517801200548671e-16 60 -50
0 77 0 1
31
1.368720539468224e-16 80 -92.42641448974609
0 78 0 1
32
1.368720539468224e-16 80 -100
0 79 0 1
33
80 -2.95898254629081e-16 -50
0 80 0 1
34
75.09999847412109 2.206801195502994e-15 -50
0 81 0 1
35
50 1.587463409964858e-15 -50
0 82 0 1
36
20 60 -50
0 83 0 1
37
34.99999999999999 45.00000000000001 -50
0 84 0 1
38
11.27340984344482 68.72659301757812 -100
0 85 0 1
39
30 50 -100
0 86 0 1
40
48.78901672363281 31.21098327636719 -100
0 87 0 1
41
77.54999942473145 2.450000575268549 -50
0 88 0 1
42
70.02670288167536 9.973297118324631 -50
0 89 0 1
43
38.79797696917245 41.20202303082755 -50
0 90 0 1
44
50 30 -50
0 91 0 1
45
0 0 0
0 92 0 1
46
1.368720539468224e-16 80 9.665730130344052e-16
0 93 0 1
47
80 -2.95898254629081e-16 2.122266460334067e-15
0 94 0 1
48
18.72659301757812 61.27340698242188 2.397226907539969e-15
0 95 0 1
49
65.35533905029297 14.64466094970703 2.122266460334067e-15
1 6 0 3
50
51
52
100 24.99999999999997 0
100 49.99999999999988 0
100 74.99999999999989 0
1 8 0 3
53
54
55
100 24.99999999999997 -100
100 49.99999999999988 -100
100 74.99999999999989 -100
1 11 0 3
56
57
58
24.99999999999997 100 -100
49.99999999999988 100 -100
74.99999999999989 100 -100
1 12 0 3
59
60
61
24.99999999999997 100 0
49.99999999999988 100 0
74.99999999999989 100 0
1 37 0 2
62
63
16.66666666666666 83.39999898274739 -50
33.33333333333333 71.6999994913737 -50
1 38 0 1
64
50 80.00000000000003 -50
1 39 0 1
65
25.00000000000008 97.54999923706056 -50
1 45 0 1
66
0 100 -75.00000000000006
1 46 0 1
67
100 0 -75.00000000000006
1 50 0 1
68
100 100 -75.00000000000006
1 52 0 1
69
69.99999999999997 100 -50
1 53 0 1
70
27.45000028610237 100 -50
1 55 0 1
71
100 42.44999885559082 -50
1 56 0 1
72
100 80.00000000000003 -50
1 58 0 1
73
0 100 -25.00000000000006
1 59 0 1
74
100 0 -25.00000000000006
1 60 0 1
75
100 100 -25.00000000000006
1 63 0 2
76
77
83.3333333333333 36.59999847412112 -50
66.66666666666663 48.29999923706058 -50
1 65 0 1
78
75.00000000000006 60 -50
1 67 0 2
79
80
83.33333333333334 86.66666666666667 -50
66.66666666666666 73.33333333333334 -50
1 68 0 1
81
70.00000000000006 80.00000000000006 -50
1 75 0 1
82
30 50 -25.00000000000006
1 76 0 1
83
45.60549354553227 34.39450645446773 2.397226907539969e-15
1 77 0 2
84
85
50.80732472737632 29.19267527262368 -16.66666666666664
40.40366236368816 39.59633763631184 -33.33333333333332
1 81 0 1
86
80 -2.95898254629081e-16 -79.69466018676756
1 82 0 1
87
65.64195823669434 14.35804176330567 -100
1 83 0 1
88
65.64195823669429 14.35804176330571 -79.69466018676763
1 102 0 1
89
1.368720539468224e-16 80 -31.16320419311523
1 104 0 1
90
4.358043670654297 75.6419563293457 -25
1 105 0 1
91
0 0 -75.00000000000006
1 106 0 1
92
-2.517801200548671e-16 35.00000000000006 -50
1 108 0 1
93
1.368720539468224e-16 80 -71.21320724487308
1 110 0 2
94
95
0 26.66666666666667 -100
0 53.33333333333343 -100
1 114 0 1
96
32.1225075721741 6.20480432983983e-16 -50
1 115 0 2
97
98
26.66666666666667 0 -100
53.33333333333343 0 -100
1 118 0 1
99
17.50000000000005 27.50000000000005 -50
1 129 0 1
100
26.5214960567603 20.60101151541378 -50
1 141 0 1
101
88.7749997123657 13.67499914322507 -50
1 143 0 1
102
85.0133514408377 17.43664741475314 -50
1 144 0 1
103
0 0 -25.00000000000006
1 145 0 2
104
105
0 26.66666666666667 0
0 53.33333333333343 0
1 147 0 1
106
80 -2.95898254629081e-16 -24.99999999999994
1 148 0 2
107
108
26.66666666666667 0 0
53.33333333333343 0 0
1 156 0 2
109
110
41.78511301676431 38.21488698323569 -33.33333333333335
53.57022603352862 26.42977396647138 -16.6666666666667
1 157 0 1
111
72.6776695251465 7.322330474853505 -25.00000000000004
1 158 0 2
112
113
69.59633890787759 10.40366109212241 -66.66666666666669
59.1926778157552 20.8073221842448 -83.33333333333334
1 159 0 1
114
39.39450836181641 40.60549163818359 -75
1 160 0 1
115
30 50 -75.00000000000006
1 161 0 2
116
117
60.85594431559246 19.14405568440754 -83.33333333333331
70.42797215779623 9.57202784220377 -66.66666666666666
1 162 0 1
118
9.363296508789039 70.63670349121097 -25.00000000000006
1 163 0 1
119
24.36329650878907 55.63670349121093 -25.00000000000001
1 164 0 1
120
20.63670492172244 59.36329650878903 -74.99999999999991
1 165 0 1
121
15.00000000000001 64.99999999999999 -71.21320724487303
2 9 0 0
2 14 0 1
122
85 49.4699993133545 -50.00000000000001
2 15 0 1
123
36.17205961402598 86.8833465648227 -49.99999999999999
2 16 0 0
2 18 0 0
2 19 0 1
124
86.72222222222224 70.97222222222224 -50.00000000000001
2 20 0 0
2 21 0 1
125
60.00000000000001 90.00000000000001 -50
2 24 0 8
126
127
128
129
130
131
132
133
58.02803606828591 100 -66.9111413826099
79.12717389171587 100 -63.79680805579368
37.31276700602022 100 -80.13484898935428
19.51382347316394 100 -66.13541618582104
78.11803237073707 100 -81.64057004127949
16.7083481372304 100 -83.29165186276961
38.72500014305118 100 -61.95902441515172
59.69176708900859 100 -85.73731208264873
2 25 0 9
134
135
136
137
138
139
140
141
142
100 32.80534868160823 -66.03899242575328
100 69.38400187307971 -66.04631395984832
100 50.77267319505081 -66.38285136639757
100 60.07111993702043 -82.97039681509114
100 15.51384830513228 -65.55159377123952
100 40.17283206924526 -82.93020640956796
100 18.91533817599762 -81.58679876776014
100 81.83733209253303 -81.54360236314349
100 86.24426679312255 -64.51798326459837
2 28 0 9
143
144
145
146
147
148
149
150
151
60.45658435594916 100 -34.97357369893967
79.59041863824592 100 -31.72915014132499
34.59795889310458 100 -19.48784685183469
18.32902300200825 100 -34.25786062153257
69.99999999999999 100 -17.48725462253671
16.70834813723035 100 -16.70834813723037
40.80801208830137 100 -35.05883353904147
51.98450961752037 100 -21.46784983374803
87.08592747352652 100 -12.91407252647346
2 29 0 9
152
153
154
155
156
157
158
159
160
100 32.80534868160825 -33.96100757424675
100 69.38400187307971 -33.95368604015169
100 50.77267319505081 -33.61714863360244
100 60.07111993702043 -17.02960318490886
100 15.5138483051323 -34.44840622876049
100 40.17283206924527 -17.06979359043206
100 18.91533817599763 -18.41320123223991
100 81.83733209253302 -18.45639763685654
100 86.24426679312255 -35.48201673540166
2 30 0 3
161
162
163
59.45813703735907 20.54186296264094 -35.13565044943276
44.39898848458623 35.60101151541378 -43.13900576873767
51.01608674644486 28.98391325355515 -34.01158558049706
2 31 0 0
2 32 0 1
164
39.04563428606372 40.95436571393628 -14.05166984532707
2 33 0 0
2 34 0 1
165
72.82097911834717 7.179020881652837 -89.84733009338379
2 35 0 3
166
167
168
60.6761549000303 19.32384509996971 -59.20683244284044
43.25481262831142 36.74518737168859 -59.03213262093901
53.30175673126681 26.6982432687332 -68.47668511851971
2 36 0 0
2 37 0 0
2 38 0 0
2 39 0 1
169
16.86329650878907 63.13670349121093 -35.64355635167101
2 40 0 0
2 41 0 0
2 42 0 0
2 43 0 0
2 44 0 0
2 45 0 0
2 46 0 0
2 47 0 1
170
8.750000000000011 71.25 -60.60660362243652
2 48 0 6
171
172
173
174
175
176
0 47.84516865621526 -70.81670185795672
0 22.76292458362077 -66.93683808369491
0 65.47535867288209 -80.52771326821646
0 64.70577327533206 -65.59804755032017
0 33.14428212883514 -83.39849770518717
0 15.05968156421517 -85.65856188705941
2 49 0 10
177
178
179
180
181
182
183
184
185
186
66.90450753373774 0 -70.13886271715452
40.75849701379992 0 -65.08960941163241
23.73104015685853 0 -66.16708384320549
33.15002932184558 0 -82.44334134160582
52.8503525407461 0 -78.18515782150916
65.65871747659041 0 -58.22399729119363
66.63164667730724 0 -86.81619155888555
55.23441491297483 0 -64.32752544829793
14.8719285704844 0 -83.75429244294759
10.56959677433822 0 -64.98427525723062
2 50 0 2
187
188
19.0452714580189 46.80007784648853 -50
9.889263831250055 41.17514735228188 -50
2 51 0 0
2 52 0 5
189
190
191
192
193
42.85991792090643 22.78698472388493 -100
53.5183656185633 16.59249090848029 -100
13.70370370370367 40.00000000000004 -100
19.91121258244549 19.91121258244549 -100
31.05277018613769 32.78183611653953 -100
2 53 0 0
2 54 0 0
2 55 0 1
194
39.6610009072336 12.65025287885345 -49.99999999999999
2 56 0 1
195
14.27799360696388 13.93873159305038 -50
2 57 0 0
2 58 0 3
196
197
198
0 91.01999969482422 -59.24264144897462
0 88.35024449655974 -81.81981086730958
0 90.47523892171651 -91.26674580357179
2 59 0 0
2 60 0 13
199
200
201
202
203
204
205
206
207
208
209
210
211
57.21301527611504 37.1400820790936 -100
62.49999999999988 78.34936490538908 -100
29.75739848093644 74.07883512608531 -100
50.49444963027573 58.14569166251884 -100
78.89787042628168 37.89635398446934 -100
82.29732766088074 58.96679052813167 -100
14.82874965375757 84.23951955649346 -100
81.32455629241596 17.28933835486862 -100
67.94983617749364 49.44270814426379 -100
80.75881876386478 79.23772831646777 -100
66.87226334097913 27.07997994166972 -100
45.34674048930426 82.97889215201855 -100
65.80840185384579 63.55748701996848 -100
2 61 0 0
2 62 0 3
212
213
214
88.16782909673131 0 -69.54199028015135
90.22618708838056 0 -60.08512521274329
89.86645984670052 0 -88.02517265898146
2 63 0 0
2 64 0 0
2 65 0 0
2 66 0 1
215
71.00801086450259 28.46198844885189 -50.00000000000001
2 67 0 0
2 68 0 6
216
217
218
219
220
221
0 65.40763604134757 -22.45737741986017
0 22.94465304192221 -33.01990383945602
0 48.14049434612932 -30.01199980347867
0 33.72033483421114 -16.81103868231416
0 66.70962607749539 -36.72651628329081
0 15.72777654930927 -15.05407276370768
2 69 0 7
222
223
224
225
226
227
228
41.06125378608706 0 -34.51763740153883
62.54999923706054 0 -36.82450962238454
23.36219603832982 0 -33.71509201668776
57.93287464856527 0 -19.15669090160799
35.95917901200755 0 -16.6598662783244
8.692988593395926 0 -36.60513896275136
15.09976539858944 0 -16.92232891643235
2 70 0 5
229
230
231
232
233
43.27217493152964 16.45569429493292 0
26.16384143126455 30.55834788573227 0
14.97808688976853 44.36635097363085 0
15.09286867824134 15.09286867824134 0
58.19610589389483 9.007124519789899 0
2 71 0 2
234
235
0 90.52454169162095 -37.98466841379803
0 88.04725167560466 -21.74480628967285
2 72 0 15
236
237
238
239
240
241
242
243
244
245
246
247
248
249
250
50.49586677635887 57.34068028494638 0
70.53355067728469 23.64637291478516 0
23.27960998325715 73.84117930533209 0
77.16892209614883 61.75404765338961 0
80.63688651374302 41.46210364908065 0
62.85298648570253 79.03221336650377 0
42.66468212455663 73.55521876850575 0
14.95421513172111 85.19434732621406 0
81.99525928840178 14.5343464278233 0
64.5496342586827 33.04804872936889 0
83.56208298675038 26.40557030820513 0
64.76125346578905 46.94824771957536 0
32.54207444710052 63.8154814295224 0
82.65697205945048 82.69613257203646 0
31.93883223216197 86.28443948650042 0
2 73 0 2
251
252
90 0 -37.5
90 0 -12.5
3 1 0 1
253
32.59649270938517 19.57161743782597 -71.1866848788095
3 2 0 6
254
255
256
257
258
259
63.30853432137183 73.10407449717636 -75.1822962940949
76.140336437984 44.07440962998461 -73.65101334250103
83.4046636470494 71.00775373040231 -71.15435476968855
39.17058965477462 80.13042325568556 -73.06228855561177
43.83133308822333 57.5781200624719 -69.12766007794413
81.76369886522539 23.2936453944115 -75.78792059433958
3 3 0 1
260
27.95444415928685 19.818220339359 -23.08067206472949
3 4 0 5
261
262
263
264
265
79.14189498152231 72.46551471370383 -25.65452206881984
76.14033643798402 44.07440962998463 -26.348986657499
41.69116463871017 75.80080703375461 -25.80679563676513
55.3005943993774 55.97157723837147 -23.70097300171538
59.89756099459991 81.22145463042169 -29.87169274026038
$EndNodes
$Elements
60 1532 1 1532
2 9 2 1
1 8 14 9 
2 14 2 7
2 78 7 77 
3 76 10 71 
4 19 122 71 
5 78 122 19 
6 71 122 76 
7 76 122 77 
8 77 122 78 
2 15 2 7
9 64 63 7 
10 65 12 62 
11 13 123 64 
12 65 123 13 
13 63 123 62 
14 62 123 65 
15 64 123 63 
2 16 2 3
16 65 18 12 
17 65 13 70 
18 70 18 65 
2 18 2 1
19 12 18 15 
2 19 2 7
20 80 7 78 
21 72 16 79 
22 72 124 19 
23 19 124 78 
24 79 124 72 
25 78 124 80 
26 80 124 79 
2 20 2 4
27 80 81 7 
28 79 16 17 
29 79 17 81 
30 81 80 79 
2 21 2 6
31 64 7 81 
32 64 125 13 
33 13 125 69 
34 17 69 81 
35 81 125 64 
36 69 125 81 
2 24 2 28
37 2 131 56 
38 66 131 2 
39 58 130 6 
40 6 130 68 
41 69 126 13 
42 13 132 70 
43 126 132 13 
44 66 15 18 
45 17 16 68 
46 68 127 17 
47 17 127 69 
48 18 129 66 
49 70 129 18 
50 56 128 57 
51 56 131 128 
52 57 133 58 
53 128 133 57 
54 58 133 130 
55 129 131 66 
56 68 130 127 
57 69 127 126 
58 70 132 129 
59 127 130 126 
60 128 132 126 
61 126 133 128 
62 130 133 126 
63 128 131 129 
64 129 132 128 
2 25 2 29
65 53 140 4 
66 4 140 67 
67 6 141 55 
68 68 141 6 
69 11 138 10 
70 10 134 71 
71 10 138 134 
72 67 138 11 
73 16 142 68 
74 72 142 16 
75 71 136 19 
76 19 135 72 
77 19 136 135 
78 54 139 53 
79 139 140 53 
80 55 137 54 
81 137 139 54 
82 55 141 137 
83 67 140 138 
84 68 142 141 
85 134 136 71 
86 135 142 72 
87 134 139 136 
88 138 140 134 
89 134 140 139 
90 136 137 135 
91 137 141 135 
92 141 142 135 
93 136 139 137 
2 28 2 30
94 59 148 1 
95 1 148 73 
96 5 151 61 
97 75 151 5 
98 13 143 69 
99 70 149 13 
100 13 149 143 
101 73 18 15 
102 75 16 17 
103 69 144 17 
104 17 144 75 
105 18 146 70 
106 73 146 18 
107 60 145 59 
108 145 148 59 
109 61 147 60 
110 60 150 145 
111 147 150 60 
112 61 151 147 
113 143 144 69 
114 146 149 70 
115 73 148 146 
116 144 151 75 
117 143 147 144 
118 143 150 147 
119 149 150 143 
120 147 151 144 
121 146 148 145 
122 145 149 146 
123 145 150 149 
2 29 2 29
124 3 158 50 
125 74 158 3 
126 52 159 5 
127 5 159 75 
128 10 156 11 
129 71 152 10 
130 152 156 10 
131 11 156 74 
132 16 160 72 
133 75 160 16 
134 19 154 71 
135 72 153 19 
136 153 154 19 
137 50 157 51 
138 50 158 157 
139 51 155 52 
140 51 157 155 
141 155 159 52 
142 71 154 152 
143 72 160 153 
144 156 158 74 
145 159 160 75 
146 154 157 152 
147 152 158 156 
148 157 158 152 
149 153 155 154 
150 153 159 155 
151 153 160 159 
152 155 157 154 
2 30 2 15
153 20 109 37 
154 33 41 111 
155 109 43 37 
156 111 41 42 
157 44 161 42 
158 42 161 111 
159 43 162 44 
160 109 162 43 
161 44 163 161 
162 162 163 44 
163 111 110 49 
164 110 163 109 
165 109 163 162 
166 111 161 110 
167 161 163 110 
2 31 2 3
168 106 33 111 
169 49 47 111 
170 111 47 106 
2 32 2 7
171 85 20 82 
172 21 164 82 
173 83 164 21 
174 83 22 84 
175 82 164 85 
176 84 164 83 
177 85 164 84 
2 33 2 5
178 109 20 85 
179 110 22 49 
180 84 22 110 
181 85 84 109 
182 109 84 110 
2 34 2 6
183 88 23 86 
184 87 24 88 
185 25 165 86 
186 87 165 25 
187 86 165 88 
188 88 165 87 
2 35 2 15
189 20 37 114 
190 41 33 112 
191 43 167 37 
192 37 167 114 
193 40 114 113 
194 112 42 41 
195 42 166 44 
196 112 166 42 
197 44 167 43 
198 166 168 44 
199 44 168 167 
200 113 168 112 
201 112 168 166 
202 114 168 113 
203 167 168 114 
2 36 2 3
204 115 20 114 
205 40 39 114 
206 114 39 115 
2 37 2 4
207 33 23 117 
208 23 88 117 
209 88 24 116 
210 116 117 88 
2 38 2 5
211 113 24 40 
212 116 24 113 
213 33 117 112 
214 116 113 112 
215 112 117 116 
2 39 2 6
216 36 169 20 
217 20 169 119 
218 26 169 36 
219 118 169 26 
220 48 119 118 
221 119 169 118 
2 40 2 3
222 82 20 119 
223 48 21 119 
224 119 21 82 
2 41 2 3
225 89 90 26 
226 90 27 28 
227 89 27 90 
2 42 2 3
228 90 118 26 
229 118 28 48 
230 90 28 118 
2 43 2 1
231 27 46 28 
2 44 2 3
232 120 20 115 
233 120 39 38 
234 115 39 120 
2 45 2 3
235 121 20 120 
236 38 31 121 
237 38 121 120 
2 46 2 1
238 31 38 32 
2 47 2 6
239 36 20 121 
240 36 170 26 
241 26 170 93 
242 121 31 93 
243 121 170 36 
244 93 170 121 
2 48 2 22
245 91 14 8 
246 91 8 172 
247 8 92 172 
248 30 26 174 
249 26 93 174 
250 29 91 176 
251 94 29 176 
252 92 30 171 
253 171 30 174 
254 31 32 95 
255 93 31 173 
256 31 95 173 
257 91 172 176 
258 92 171 172 
259 93 173 174 
260 95 94 175 
261 175 94 176 
262 95 171 173 
263 171 95 175 
264 172 171 175 
265 173 171 174 
266 172 175 176 
2 49 2 31
267 9 14 186 
268 96 9 179 
269 179 9 186 
270 14 91 186 
271 33 34 23 
272 23 34 182 
273 86 23 177 
274 177 23 182 
275 25 86 183 
276 98 25 183 
277 91 29 185 
278 29 97 185 
279 34 35 182 
280 35 96 178 
281 35 178 184 
282 182 35 184 
283 86 177 183 
284 91 185 186 
285 178 96 179 
286 97 98 180 
287 97 180 185 
288 180 98 181 
289 181 98 183 
290 177 181 183 
291 181 177 184 
292 177 182 184 
293 178 179 180 
294 178 180 181 
295 178 181 184 
296 180 179 185 
297 185 179 186 
2 50 2 9
298 92 8 99 
299 36 187 20 
300 20 187 37 
301 30 187 36 
302 92 188 30 
303 30 188 187 
304 37 187 99 
305 99 188 92 
306 187 188 99 
2 51 2 1
307 26 30 36 
2 52 2 20
308 40 24 189 
309 24 87 190 
310 189 24 190 
311 25 98 87 
312 29 94 192 
313 97 29 192 
314 38 95 32 
315 38 39 191 
316 95 38 191 
317 39 40 193 
318 191 39 193 
319 40 189 193 
320 87 98 190 
321 94 95 191 
322 94 191 192 
323 98 97 189 
324 189 97 192 
325 98 189 190 
326 189 192 193 
327 192 191 193 
2 53 2 1
328 33 41 34 
2 54 2 2
329 42 35 34 
330 41 42 34 
2 55 2 6
331 100 9 96 
332 44 194 35 
333 35 194 96 
334 44 43 100 
335 100 194 44 
336 96 194 100 
2 56 2 6
337 9 195 8 
338 8 195 99 
339 100 195 9 
340 43 37 99 
341 100 43 99 
342 99 195 100 
2 57 2 1
343 35 42 44 
2 58 2 12
344 2 32 198 
345 66 2 198 
346 12 15 196 
347 26 12 196 
348 15 66 196 
349 93 26 196 
350 32 31 198 
351 31 93 197 
352 31 197 198 
353 66 93 196 
354 93 66 197 
355 197 66 198 
2 59 2 4
356 7 63 36 
357 62 12 26 
358 36 62 26 
359 36 63 62 
2 60 2 40
360 32 2 205 
361 2 56 205 
362 4 25 206 
363 53 4 206 
364 6 55 208 
365 58 6 208 
366 24 40 199 
367 87 24 209 
368 24 199 209 
369 25 87 206 
370 38 32 205 
371 39 38 201 
372 201 38 205 
373 40 39 202 
374 39 201 202 
375 199 40 202 
376 54 53 203 
377 203 53 206 
378 55 54 204 
379 54 203 204 
380 55 204 208 
381 56 57 210 
382 56 201 205 
383 201 56 210 
384 57 58 200 
385 57 200 210 
386 200 58 208 
387 206 87 209 
388 199 202 207 
389 203 199 207 
390 199 203 209 
391 200 202 210 
392 202 200 211 
393 200 208 211 
394 202 201 210 
395 207 202 211 
396 204 203 207 
397 203 206 209 
398 204 207 211 
399 208 204 211 
2 61 2 2
400 20 7 36 
401 37 7 20 
2 62 2 11
402 25 4 214 
403 4 67 214 
404 11 33 213 
405 67 11 213 
406 33 23 213 
407 23 86 212 
408 23 212 213 
409 86 25 214 
410 212 67 213 
411 67 212 214 
412 212 86 214 
2 63 2 1
413 7 37 43 
2 64 2 3
414 11 10 101 
415 11 101 33 
416 101 41 33 
2 65 2 1
417 7 43 44 
2 66 2 7
418 77 7 44 
419 102 10 76 
420 42 215 44 
421 102 215 42 
422 44 215 77 
423 77 215 76 
424 76 215 102 
2 67 2 3
425 101 10 102 
426 42 41 102 
427 102 41 101 
2 68 2 22
428 103 8 14 
429 92 8 217 
430 8 103 217 
431 26 30 220 
432 89 26 220 
433 27 105 46 
434 27 89 216 
435 105 27 216 
436 30 92 218 
437 30 218 220 
438 103 45 221 
439 45 104 221 
440 216 89 220 
441 92 217 218 
442 217 103 221 
443 104 105 219 
444 104 219 221 
445 105 216 218 
446 105 218 219 
447 218 216 220 
448 218 217 219 
449 219 217 221 
2 69 2 24
450 14 9 227 
451 9 96 224 
452 9 224 227 
453 103 14 227 
454 106 34 33 
455 35 34 223 
456 34 106 223 
457 96 35 222 
458 222 35 223 
459 45 103 228 
460 107 45 228 
461 106 47 225 
462 47 108 225 
463 96 222 224 
464 103 227 228 
465 223 106 225 
466 108 107 226 
467 226 107 228 
468 225 108 226 
469 222 223 225 
470 224 222 226 
471 222 225 226 
472 224 226 228 
473 227 224 228 
2 70 2 21
474 48 231 21 
475 21 230 83 
476 21 231 230 
477 22 233 49 
478 83 229 22 
479 229 233 22 
480 28 46 105 
481 28 105 48 
482 45 232 104 
483 107 232 45 
484 49 233 47 
485 47 233 108 
486 105 231 48 
487 83 230 229 
488 104 231 105 
489 230 231 104 
490 104 232 230 
491 108 229 107 
492 229 232 107 
493 108 233 229 
494 230 232 229 
2 71 2 10
495 27 46 1 
496 27 1 235 
497 1 73 235 
498 15 12 234 
499 12 26 234 
500 73 15 234 
501 26 89 234 
502 89 27 235 
503 73 234 235 
504 234 89 235 
2 72 2 45
505 46 243 1 
506 1 243 59 
507 3 244 47 
508 50 244 3 
509 5 249 52 
510 61 249 5 
511 21 248 48 
512 83 236 21 
513 236 248 21 
514 49 237 22 
515 22 245 83 
516 237 245 22 
517 28 243 46 
518 48 238 28 
519 238 243 28 
520 47 244 49 
521 48 248 238 
522 49 244 237 
523 51 240 50 
524 240 246 50 
525 50 246 244 
526 52 239 51 
527 239 240 51 
528 52 249 239 
529 59 250 60 
530 243 250 59 
531 60 241 61 
532 60 242 241 
533 60 250 242 
534 241 249 61 
535 83 247 236 
536 245 247 83 
537 239 241 236 
538 236 247 239 
539 241 242 236 
540 242 248 236 
541 240 245 237 
542 237 246 240 
543 244 246 237 
544 238 248 242 
545 242 250 238 
546 238 250 243 
547 239 247 240 
548 239 249 241 
549 240 247 245 
2 73 2 8
550 3 47 252 
551 74 3 252 
552 33 11 251 
553 11 74 251 
554 106 33 251 
555 47 106 252 
556 74 106 251 
557 106 74 252 
3 1 4 183
558 117 184 116 88 
559 179 186 195 253 
560 116 112 184 117 
561 191 193 115 253 
562 99 172 115 253 
563 175 115 172 253 
564 172 195 186 253 
565 114 115 193 253 
566 184 178 194 166 
567 171 188 99 115 
568 186 179 185 253 
569 188 187 99 115 
570 184 168 178 166 
571 172 186 185 253 
572 191 115 175 253 
573 176 172 185 253 
574 188 99 172 171 
575 171 99 172 115 
576 176 175 172 253 
577 186 185 176 172 
578 175 171 172 115 
579 181 168 178 184 
580 192 175 176 253 
581 167 187 99 37 
582 167 187 114 99 
583 192 176 185 253 
584 168 194 178 166 
585 114 167 99 253 
586 195 172 99 253 
587 167 187 37 114 
588 187 188 171 115 
589 112 33 34 117 
590 184 112 168 166 
591 116 184 181 88 
592 99 115 114 253 
593 187 114 99 115 
594 178 168 181 253 
595 35 44 166 194 
596 167 100 99 253 
597 112 116 184 113 
598 194 168 178 253 
599 179 195 100 253 
600 98 190 180 181 
601 116 184 113 181 
602 195 99 100 253 
603 167 168 194 253 
604 100 9 195 179 
605 176 185 186 91 
606 189 193 192 253 
607 113 180 181 253 
608 115 191 175 120 
609 179 96 178 194 
610 185 180 192 253 
611 88 23 177 86 
612 189 114 193 253 
613 194 178 179 253 
614 183 25 87 165 
615 175 171 115 120 
616 91 186 176 172 
617 99 43 167 37 
618 184 113 181 168 
619 180 189 190 98 
620 167 194 100 253 
621 39 191 193 115 
622 20 114 187 115 
623 180 113 189 253 
624 194 35 184 166 
625 112 184 168 113 
626 189 192 180 253 
627 42 35 44 166 
628 113 181 168 253 
629 179 96 194 100 
630 167 43 99 100 
631 115 171 187 120 
632 178 181 180 253 
633 194 179 100 253 
634 167 44 194 168 
635 88 24 87 190 
636 173 171 95 120 
637 179 180 185 253 
638 8 186 172 195 
639 168 114 113 253 
640 8 99 195 172 
641 30 187 171 174 
642 114 20 187 37 
643 187 30 36 174 
644 114 40 193 39 
645 173 31 93 121 
646 189 113 114 253 
647 188 30 187 171 
648 29 192 176 185 
649 35 184 166 182 
650 186 9 179 195 
651 38 191 39 120 
652 100 9 179 96 
653 95 38 173 120 
654 194 35 178 184 
655 39 193 114 115 
656 121 171 187 174 
657 38 95 191 120 
658 187 36 121 174 
659 40 193 189 114 
660 92 188 172 171 
661 168 44 194 166 
662 115 39 191 120 
663 189 180 97 98 
664 180 97 192 189 
665 172 99 188 92 
666 173 38 31 121 
667 117 177 184 88 
668 192 176 175 94 
669 182 112 184 166 
670 194 44 167 100 
671 183 87 25 98 
672 30 36 174 170 
673 184 181 88 177 
674 97 192 185 180 
675 189 40 114 113 
676 176 192 29 94 
677 87 88 183 165 
678 30 26 36 170 
679 91 8 186 172 
680 29 192 185 97 
681 121 20 36 187 
682 117 33 34 23 
683 179 178 180 253 
684 30 188 92 171 
685 34 112 117 182 
686 121 187 171 120 
687 36 121 174 170 
688 165 183 25 86 
689 186 14 8 91 
690 114 168 167 253 
691 8 99 172 92 
692 115 187 20 120 
693 121 20 187 120 
694 94 175 192 191 
695 43 167 44 100 
696 33 112 34 41 
697 185 176 29 91 
698 42 34 35 182 
699 121 173 38 120 
700 166 42 35 182 
701 93 26 174 170 
702 186 8 9 195 
703 177 117 184 182 
704 191 94 175 95 
705 88 183 165 86 
706 38 31 95 173 
707 183 88 177 86 
708 40 189 24 113 
709 174 26 30 170 
710 181 183 88 177 
711 38 95 31 32 
712 182 112 117 184 
713 121 171 173 120 
714 96 35 178 194 
715 174 121 93 170 
716 112 182 42 166 
717 121 93 173 174 
718 121 173 171 174 
719 9 14 8 186 
720 34 117 23 182 
721 23 182 117 177 
722 88 24 190 116 
723 88 23 117 177 
724 112 34 42 182 
725 112 42 34 41 
726 253 191 192 175 
727 253 192 191 193 
728 189 181 180 190 
729 189 180 181 113 
730 24 116 189 190 
731 24 189 116 113 
732 116 181 189 190 
733 116 189 181 113 
734 175 120 95 171 
735 95 120 175 191 
736 181 98 88 183 
737 98 88 87 190 
738 98 87 88 183 
739 190 88 181 98 
740 181 88 190 116 
3 2 4 316
741 117 88 116 259 
742 17 81 127 79 
743 207 114 199 255 
744 131 197 205 121 
745 125 254 64 257 
746 77 168 167 255 
747 167 255 168 258 
748 197 131 93 121 
749 114 202 207 199 
750 77 255 167 258 
751 126 254 125 257 
752 131 205 201 121 
753 81 64 125 254 
754 211 207 204 255 
755 254 255 77 258 
756 201 131 121 257 
757 81 254 127 256 
758 129 121 131 257 
759 130 127 254 256 
760 201 128 131 257 
761 81 125 126 254 
762 121 62 129 170 
763 76 102 215 259 
764 204 254 255 256 
765 131 129 93 121 
766 121 129 93 170 
767 166 255 215 259 
768 167 168 114 258 
769 76 134 102 259 
770 65 13 132 70 
771 211 204 254 255 
772 93 62 196 170 
773 81 126 127 254 
774 79 80 81 256 
775 112 102 101 259 
776 199 209 203 255 
777 112 101 117 259 
778 112 166 215 259 
779 168 215 166 255 
780 254 257 202 258 
781 78 77 254 255 
782 78 255 254 256 
783 197 31 205 121 
784 138 213 101 212 
785 126 130 127 254 
786 204 255 137 256 
787 123 62 129 257 
788 168 255 166 259 
789 130 142 127 256 
790 62 121 129 257 
791 168 255 114 258 
792 62 123 63 257 
793 199 203 207 255 
794 112 116 113 259 
795 122 136 76 255 
796 199 113 209 255 
797 136 255 122 256 
798 129 131 128 257 
799 79 127 142 256 
800 112 215 102 259 
801 76 215 255 259 
802 130 254 208 256 
803 7 254 77 258 
804 129 132 123 257 
805 202 254 210 257 
806 129 93 62 196 
807 137 204 139 255 
808 80 78 254 256 
809 63 62 121 170 
810 112 168 166 259 
811 130 141 142 256 
812 201 202 210 257 
813 204 208 254 256 
814 62 93 129 170 
815 215 168 77 255 
816 136 134 76 255 
817 136 122 76 71 
818 133 130 126 254 
819 76 255 134 259 
820 204 137 208 256 
821 205 201 56 131 
822 78 7 80 254 
823 204 203 139 255 
824 211 204 208 254 
825 209 203 255 259 
826 62 63 121 257 
827 137 255 136 256 
828 210 254 133 257 
829 78 77 7 254 
830 133 200 130 254 
831 134 136 76 71 
832 115 39 201 202 
833 201 128 56 131 
834 197 205 198 131 
835 79 81 127 256 
836 130 208 141 256 
837 208 137 141 256 
838 133 254 126 257 
839 126 125 81 127 
840 31 197 93 121 
841 213 23 101 212 
842 7 64 81 254 
843 80 254 81 256 
844 210 133 128 257 
845 121 120 201 257 
846 7 64 254 257 
847 201 210 128 257 
848 121 120 257 258 
849 113 209 255 259 
850 137 139 136 255 
851 122 255 78 256 
852 204 207 203 255 
853 167 7 77 258 
854 12 65 196 18 
855 19 136 122 256 
856 130 200 208 254 
857 33 112 101 117 
858 79 124 80 256 
859 88 212 86 259 
860 54 137 204 139 
861 129 128 132 257 
862 79 142 124 256 
863 126 69 125 127 
864 203 54 204 139 
865 205 38 201 121 
866 140 212 86 214 
867 132 64 123 257 
868 121 257 63 258 
869 44 167 77 168 
870 133 210 200 254 
871 33 112 41 101 
872 139 134 136 255 
873 23 88 212 86 
874 128 133 126 257 
875 19 78 124 256 
876 123 129 62 65 
877 76 215 77 255 
878 113 116 209 259 
879 102 76 10 134 
880 129 66 93 196 
881 115 201 39 120 
882 124 142 135 256 
883 86 214 165 259 
884 137 204 208 55 
885 113 255 168 259 
886 69 81 125 127 
887 137 208 141 55 
888 123 132 129 65 
889 128 210 201 56 
890 135 136 19 256 
891 122 76 77 255 
892 113 168 112 259 
893 7 257 254 258 
894 202 114 40 199 
895 203 139 255 259 
896 124 72 135 142 
897 121 20 120 258 
898 133 58 130 200 
899 42 44 215 166 
900 215 44 77 168 
901 127 68 142 130 
902 19 122 78 256 
903 72 124 79 142 
904 114 202 115 258 
905 206 165 214 259 
906 7 63 64 257 
907 130 68 142 141 
908 88 87 206 165 
909 139 134 255 259 
910 205 31 38 121 
911 70 18 129 65 
912 65 196 18 129 
913 77 78 122 255 
914 123 132 13 64 
915 63 257 7 258 
916 128 126 132 257 
917 200 211 208 254 
918 203 53 139 259 
919 53 140 206 214 
920 206 4 53 214 
921 168 215 44 166 
922 112 41 101 102 
923 205 198 31 197 
924 19 124 135 256 
925 65 196 129 62 
926 114 39 115 202 
927 135 137 136 256 
928 37 167 114 258 
929 140 53 4 214 
930 58 208 130 200 
931 212 140 86 259 
932 39 114 40 202 
933 116 112 117 259 
934 133 210 128 57 
935 141 130 6 208 
936 140 214 86 259 
937 54 203 53 139 
938 114 20 37 258 
939 38 201 121 120 
940 199 114 40 113 
941 44 7 167 43 
942 67 212 140 214 
943 88 24 209 87 
944 123 64 63 257 
945 36 121 63 258 
946 65 12 196 62 
947 7 20 36 258 
948 205 2 198 131 
949 208 130 6 58 
950 7 44 167 77 
951 58 133 57 200 
952 80 124 78 256 
953 200 210 202 254 
954 87 209 88 206 
955 142 141 135 256 
956 66 129 18 196 
957 140 4 67 214 
958 116 88 209 259 
959 36 63 7 258 
960 141 137 135 256 
961 165 206 88 259 
962 140 212 138 259 
963 11 213 138 67 
964 201 38 39 120 
965 56 128 210 57 
966 121 36 63 170 
967 36 26 62 170 
968 6 68 130 141 
969 6 141 208 55 
970 55 137 204 54 
971 131 2 198 66 
972 206 214 140 259 
973 203 206 53 259 
974 209 206 203 259 
975 62 63 36 170 
976 101 10 11 138 
977 81 17 127 69 
978 76 10 134 71 
979 42 215 102 112 
980 136 19 122 71 
981 33 117 101 23 
982 16 79 142 72 
983 202 211 200 254 
984 114 115 20 258 
985 88 206 209 259 
986 53 140 139 259 
987 18 15 66 196 
988 215 42 166 112 
989 142 79 17 127 
990 57 133 210 200 
991 56 2 205 131 
992 13 65 132 123 
993 213 101 11 138 
994 68 142 17 127 
995 198 197 131 66 
996 67 212 138 140 
997 86 165 88 259 
998 116 24 113 209 
999 165 25 206 214 
1000 139 140 134 259 
1001 135 19 72 124 
1002 36 20 121 258 
1003 13 69 125 126 
1004 142 17 16 68 
1005 134 140 138 259 
1006 206 25 4 214 
1007 40 24 199 113 
1008 196 62 26 170 
1009 16 79 17 142 
1010 53 206 140 259 
1011 20 115 120 258 
1012 212 138 213 67 
1013 41 112 42 102 
1014 25 165 86 214 
1015 196 26 93 170 
1016 32 2 198 205 
1017 132 70 129 65 
1018 25 87 165 206 
1019 24 209 199 113 
1020 33 101 11 213 
1021 37 20 7 258 
1022 26 12 62 196 
1023 33 23 101 213 
1024 32 198 31 205 
1025 32 31 38 205 
1026 15 18 12 196 
1027 24 88 209 116 
1028 80 7 81 254 
1029 125 257 132 126 
1030 132 257 125 64 
1031 132 13 125 126 
1032 125 13 132 64 
1033 259 101 134 102 
1034 259 134 101 138 
1035 10 134 101 102 
1036 10 101 134 138 
1037 131 93 66 197 
1038 66 93 131 129 
1039 114 202 255 207 
1040 211 202 255 254 
1041 211 255 202 207 
1042 113 114 255 199 
1043 113 255 114 168 
1044 202 258 201 115 
1045 202 201 258 257 
1046 120 201 258 115 
1047 120 258 201 257 
1048 37 167 7 43 
1049 37 7 167 258 
1050 23 88 259 212 
1051 23 259 88 117 
1052 255 258 202 114 
1053 202 258 255 254 
1054 23 101 259 117 
1055 212 101 259 23 
1056 212 259 101 138 
3 3 4 171
1057 187 109 85 99 
1058 90 26 220 89 
1059 20 109 85 187 
1060 100 194 162 163 
1061 224 195 227 260 
1062 109 162 163 260 
1063 100 163 162 260 
1064 99 187 188 82 
1065 99 188 218 82 
1066 217 227 195 260 
1067 99 188 217 218 
1068 99 85 82 260 
1069 194 222 163 260 
1070 219 218 82 260 
1071 219 217 218 260 
1072 230 82 164 260 
1073 82 231 219 230 
1074 230 219 82 260 
1075 161 222 110 163 
1076 99 187 82 85 
1077 194 163 100 260 
1078 109 110 84 260 
1079 163 222 110 260 
1080 194 222 161 163 
1081 195 99 217 260 
1082 230 82 231 164 
1083 228 227 217 260 
1084 228 224 227 260 
1085 228 221 217 227 
1086 188 187 218 82 
1087 224 100 195 260 
1088 217 221 228 260 
1089 109 85 99 260 
1090 119 231 219 82 
1091 195 100 99 260 
1092 224 222 194 260 
1093 110 222 226 260 
1094 85 109 84 260 
1095 100 224 194 260 
1096 84 230 164 260 
1097 221 219 232 260 
1098 187 109 99 37 
1099 221 228 103 227 
1100 231 216 119 218 
1101 219 221 217 260 
1102 218 187 119 82 
1103 222 110 225 161 
1104 85 164 82 260 
1105 100 9 224 195 
1106 219 230 232 260 
1107 110 226 222 225 
1108 218 119 219 82 
1109 219 231 119 218 
1110 103 217 221 227 
1111 82 21 231 164 
1112 84 164 85 260 
1113 231 105 216 218 
1114 44 162 194 163 
1115 232 228 221 260 
1116 37 109 99 43 
1117 194 224 96 222 
1118 194 96 224 100 
1119 226 228 107 260 
1120 109 163 110 260 
1121 230 84 229 260 
1122 44 35 161 194 
1123 161 225 222 223 
1124 107 229 226 260 
1125 8 99 217 195 
1126 20 109 187 37 
1127 229 110 226 260 
1128 105 231 219 218 
1129 90 26 118 220 
1130 35 194 222 161 
1131 230 231 21 164 
1132 104 219 231 230 
1133 232 107 228 260 
1134 107 232 229 260 
1135 84 110 229 260 
1136 8 217 227 195 
1137 118 26 169 220 
1138 161 222 35 223 
1139 219 104 232 230 
1140 229 232 230 260 
1141 82 187 20 85 
1142 48 118 119 216 
1143 161 44 194 163 
1144 9 100 224 96 
1145 226 222 224 260 
1146 232 104 219 221 
1147 110 229 226 225 
1148 231 119 21 82 
1149 226 224 228 260 
1150 169 187 119 218 
1151 217 188 92 218 
1152 227 224 9 195 
1153 99 188 92 217 
1154 194 162 44 100 
1155 49 22 110 233 
1156 35 44 161 42 
1157 103 8 217 227 
1158 14 8 103 227 
1159 48 119 21 231 
1160 229 110 233 225 
1161 43 44 162 100 
1162 108 226 229 225 
1163 233 108 225 47 
1164 229 233 108 225 
1165 48 28 118 216 
1166 110 225 161 111 
1167 35 161 223 42 
1168 216 48 28 105 
1169 225 49 233 47 
1170 46 27 28 105 
1171 89 90 27 216 
1172 92 188 30 218 
1173 225 110 49 111 
1174 110 49 233 225 
1175 99 8 217 92 
1176 216 28 27 105 
1177 228 45 232 221 
1178 106 111 225 47 
1179 221 228 45 103 
1180 49 225 111 47 
1181 229 107 226 108 
1182 219 231 105 104 
1183 232 45 228 107 
1184 161 111 223 42 
1185 111 33 34 41 
1186 119 187 20 82 
1187 22 84 110 229 
1188 104 232 45 221 
1189 225 161 111 223 
1190 111 34 106 223 
1191 169 220 30 218 
1192 22 84 229 83 
1193 169 119 118 216 
1194 33 111 34 106 
1195 230 21 83 164 
1196 28 90 216 27 
1197 30 187 36 169 
1198 216 169 119 218 
1199 119 20 187 169 
1200 110 22 229 233 
1201 223 111 225 106 
1202 28 90 118 216 
1203 9 8 227 195 
1204 220 169 216 218 
1205 34 42 35 223 
1206 96 35 194 222 
1207 169 118 220 216 
1208 36 187 20 169 
1209 220 90 89 216 
1210 8 14 9 227 
1211 90 220 118 216 
1212 260 218 99 217 
1213 260 99 218 82 
1214 162 260 99 100 
1215 99 260 162 109 
1216 99 43 162 100 
1217 162 43 99 109 
1218 216 231 48 105 
1219 48 231 216 119 
1220 230 84 83 229 
1221 83 84 230 164 
1222 187 218 30 188 
1223 30 218 187 169 
1224 169 30 26 36 
1225 169 26 30 220 
1226 34 111 42 223 
1227 34 42 111 41 
3 4 4 305
1228 17 81 79 144 
1229 76 102 152 262 
1230 215 102 76 262 
1231 102 152 111 156 
1232 111 237 246 262 
1233 111 152 102 262 
1234 250 238 148 263 
1235 250 243 148 238 
1236 109 84 110 264 
1237 158 111 246 262 
1238 148 238 118 263 
1239 123 146 62 263 
1240 63 123 62 263 
1241 158 246 157 262 
1242 245 110 84 264 
1243 243 118 148 238 
1244 247 262 245 264 
1245 156 152 111 158 
1246 154 153 122 261 
1247 145 250 148 263 
1248 148 146 145 263 
1249 158 152 111 262 
1250 146 123 149 263 
1251 151 144 159 261 
1252 148 118 146 263 
1253 151 147 144 261 
1254 62 146 118 263 
1255 101 102 251 156 
1256 241 261 264 265 
1257 244 111 237 246 
1258 249 151 159 261 
1259 147 151 249 261 
1260 237 240 246 262 
1261 248 119 238 263 
1262 241 264 263 265 
1263 150 241 263 265 
1264 248 82 263 264 
1265 154 261 122 262 
1266 161 215 163 262 
1267 124 78 153 261 
1268 111 110 237 262 
1269 249 159 155 261 
1270 163 262 77 264 
1271 79 81 80 261 
1272 63 62 169 263 
1273 144 79 160 261 
1274 237 110 245 262 
1275 244 158 111 246 
1276 159 144 160 261 
1277 19 78 153 124 
1278 241 147 261 265 
1279 249 155 239 261 
1280 164 82 248 236 
1281 163 215 77 262 
1282 89 62 234 146 
1283 240 157 246 262 
1284 237 245 240 262 
1285 13 65 149 70 
1286 158 157 152 262 
1287 145 150 250 263 
1288 153 78 122 261 
1289 239 241 261 264 
1290 251 102 111 156 
1291 26 90 62 89 
1292 241 147 249 261 
1293 155 153 154 261 
1294 245 262 110 264 
1295 122 19 153 154 
1296 62 118 169 263 
1297 242 250 150 263 
1298 150 241 242 263 
1299 155 261 154 262 
1300 80 264 261 265 
1301 239 261 155 262 
1302 111 161 110 262 
1303 146 149 145 263 
1304 118 238 119 263 
1305 162 7 109 264 
1306 248 236 82 264 
1307 80 78 261 264 
1308 149 64 125 265 
1309 162 77 7 264 
1310 76 154 122 262 
1311 241 150 147 265 
1312 149 125 143 265 
1313 239 261 262 264 
1314 124 153 160 261 
1315 164 82 236 264 
1316 124 160 79 261 
1317 242 263 241 264 
1318 89 90 62 146 
1319 154 76 122 71 
1320 155 157 240 262 
1321 78 19 153 122 
1322 169 7 36 63 
1323 152 154 76 262 
1324 119 248 82 263 
1325 110 262 163 264 
1326 242 250 60 150 
1327 249 239 241 261 
1328 144 261 147 265 
1329 239 262 247 264 
1330 248 238 242 263 
1331 239 155 240 262 
1332 7 119 82 263 
1333 241 242 60 150 
1334 154 152 76 71 
1335 122 261 78 262 
1336 145 60 250 150 
1337 64 13 149 125 
1338 149 123 64 263 
1339 215 161 42 102 
1340 7 263 82 264 
1341 143 69 81 125 
1342 252 158 111 244 
1343 110 161 163 262 
1344 143 149 13 125 
1345 159 160 153 261 
1346 52 155 249 159 
1347 7 264 80 265 
1348 239 236 241 264 
1349 146 90 118 148 
1350 44 162 163 77 
1351 80 7 78 264 
1352 155 159 153 261 
1353 146 234 89 235 
1354 85 84 109 264 
1355 149 263 64 265 
1356 242 241 236 264 
1357 52 155 239 249 
1358 242 238 250 263 
1359 85 7 82 264 
1360 81 143 125 265 
1361 247 164 236 264 
1362 155 154 157 262 
1363 148 90 118 243 
1364 82 248 21 164 
1365 81 79 144 261 
1366 251 102 101 41 
1367 81 261 144 265 
1368 247 240 245 262 
1369 51 157 240 155 
1370 63 64 123 263 
1371 109 110 163 264 
1372 65 62 123 146 
1373 90 118 62 146 
1374 48 248 119 238 
1375 236 239 247 264 
1376 85 164 84 264 
1377 161 111 42 102 
1378 251 111 102 41 
1379 20 7 119 82 
1380 7 169 20 119 
1381 143 69 144 81 
1382 143 81 144 265 
1383 106 251 111 156 
1384 77 78 7 264 
1385 157 154 152 262 
1386 7 263 264 265 
1387 152 76 10 102 
1388 148 146 90 235 
1389 215 76 77 262 
1390 149 65 123 146 
1391 7 64 63 263 
1392 164 248 21 236 
1393 27 90 148 243 
1394 155 240 51 239 
1395 7 64 263 265 
1396 247 164 83 236 
1397 89 90 146 235 
1398 159 144 75 160 
1399 150 263 149 265 
1400 144 151 159 75 
1401 143 144 147 265 
1402 239 240 247 262 
1403 85 109 7 264 
1404 77 163 44 215 
1405 20 109 7 85 
1406 80 124 79 261 
1407 246 50 158 157 
1408 60 241 150 147 
1409 153 160 72 124 
1410 77 76 122 262 
1411 111 106 158 252 
1412 243 28 118 238 
1413 252 3 158 244 
1414 143 150 149 265 
1415 169 7 20 36 
1416 160 72 124 79 
1417 50 246 240 157 
1418 90 28 243 27 
1419 109 20 7 37 
1420 7 44 162 43 
1421 102 10 152 156 
1422 119 118 48 238 
1423 17 81 144 69 
1424 7 44 77 162 
1425 82 20 7 85 
1426 106 74 251 156 
1427 109 43 7 162 
1428 65 70 18 146 
1429 122 78 77 262 
1430 118 119 169 263 
1431 237 49 110 111 
1432 156 111 106 158 
1433 149 150 145 263 
1434 81 64 7 265 
1435 158 106 74 252 
1436 111 237 49 244 
1437 149 123 13 64 
1438 150 143 147 265 
1439 111 33 41 251 
1440 90 27 148 235 
1441 158 74 3 252 
1442 164 85 82 264 
1443 51 52 155 239 
1444 159 249 5 151 
1445 49 110 22 237 
1446 11 251 74 156 
1447 160 144 17 79 
1448 241 147 61 249 
1449 73 234 18 146 
1450 248 21 119 82 
1451 60 241 147 61 
1452 156 106 74 158 
1453 47 252 111 244 
1454 59 243 148 250 
1455 111 42 102 41 
1456 28 90 243 118 
1457 158 244 50 246 
1458 157 240 50 51 
1459 234 26 62 89 
1460 163 161 44 215 
1461 244 3 158 50 
1462 48 118 28 238 
1463 147 61 249 151 
1464 22 84 245 110 
1465 11 101 251 156 
1466 1 27 148 243 
1467 101 11 10 156 
1468 75 144 17 160 
1469 152 10 76 71 
1470 146 73 234 235 
1471 145 59 148 250 
1472 18 15 234 73 
1473 154 122 19 71 
1474 5 52 249 159 
1475 79 16 160 72 
1476 90 26 62 118 
1477 243 148 1 59 
1478 84 22 245 83 
1479 248 119 21 48 
1480 102 101 10 156 
1481 42 44 161 215 
1482 59 145 60 250 
1483 111 33 251 106 
1484 249 61 5 151 
1485 124 80 78 261 
1486 118 26 62 169 
1487 5 159 151 75 
1488 109 37 7 43 
1489 27 1 148 235 
1490 13 65 123 149 
1491 21 83 164 236 
1492 111 106 252 47 
1493 148 1 73 235 
1494 47 111 49 244 
1495 70 65 149 146 
1496 64 81 125 265 
1497 13 69 143 125 
1498 153 72 19 124 
1499 110 245 22 237 
1500 17 16 75 160 
1501 73 146 148 235 
1502 36 26 169 62 
1503 16 79 160 17 
1504 36 63 62 169 
1505 80 261 81 265 
1506 3 252 47 244 
1507 251 101 11 33 
1508 1 27 243 46 
1509 101 251 41 33 
1510 62 12 26 234 
1511 89 27 90 235 
1512 243 27 28 46 
1513 12 18 15 234 
1514 7 80 81 265 
1515 245 264 164 247 
1516 164 264 245 84 
1517 164 83 245 247 
1518 245 83 164 84 
1519 161 102 262 111 
1520 262 102 161 215 
1521 264 162 163 109 
1522 264 163 162 77 
1523 7 169 263 63 
1524 7 263 169 119 
1525 264 78 262 77 
1526 264 262 78 261 
1527 264 242 248 236 
1528 264 248 242 263 
1529 18 234 65 146 
1530 18 65 234 12 
1531 62 65 234 146 
1532 62 234 65 12 
$EndElements
